  0
SECTION
  2
HEADER
  9
$ACADVER
  1
AC1009
  9
$INSBASE
 10
0.0
 20
0.0
 30
0.0
  9
$EXTMIN
 10
-0.5
 20
-0.5
 30
-20.5
  9
$EXTMAX
 10
50.5
 20
10.5
 30
0.5
  9
$LIMMIN
 10
0.0
 20
0.0
  9
$LIMMAX
 10
12.0
 20
9.0
  9
$ORTHOMODE
 70
     0
  9
$REGENMODE
 70
     1
  9
$FILLMODE
 70
     1
  9
$QTEXTMODE
 70
     0
  9
$MIRRTEXT
 70
     1
  9
$DRAGMODE
 70
     2
  9
$LTSCALE
 40
1.0
  9
$OSMODE
 70
     1
  9
$ATTMODE
 70
     1
  9
$TEXTSIZE
 40
0.2
  9
$TRACEWID
 40
0.05
  9
$TEXTSTYLE
  7
STANDARD
  9
$CLAYER
  8
NODES
  9
$CELTYPE
  6
BYLAYER
  9
$CECOLOR
 62
   256
  9
$DIMSCALE
 40
1.0
  9
$DIMASZ
 40
0.18
  9
$DIMEXO
 40
0.0625
  9
$DIMDLI
 40
0.38
  9
$DIMRND
 40
0.0
  9
$DIMDLE
 40
0.0
  9
$DIMEXE
 40
0.18
  9
$DIMTP
 40
0.0
  9
$DIMTM
 40
0.0
  9
$DIMTXT
 40
0.18
  9
$DIMCEN
 40
0.09
  9
$DIMTSZ
 40
0.0
  9
$DIMTOL
 70
     0
  9
$DIMLIM
 70
     0
  9
$DIMTIH
 70
     1
  9
$DIMTOH
 70
     1
  9
$DIMSE1
 70
     0
  9
$DIMSE2
 70
     0
  9
$DIMTAD
 70
     0
  9
$DIMZIN
 70
     0
  9
$DIMBLK
  1

  9
$DIMASO
 70
     1
  9
$DIMSHO
 70
     1
  9
$DIMPOST
  1

  9
$DIMAPOST
  1

  9
$DIMALT
 70
     0
  9
$DIMALTD
 70
     2
  9
$DIMALTF
 40
25.4
  9
$DIMLFAC
 40
1.0
  9
$DIMTOFL
 70
     0
  9
$DIMTVP
 40
0.0
  9
$DIMTIX
 70
     0
  9
$DIMSOXD
 70
     0
  9
$DIMSAH
 70
     0
  9
$DIMBLK1
  1

  9
$DIMBLK2
  1

  9
$DIMSTYLE
  2
STANDARD
  9
$DIMCLRD
 70
     0
  9
$DIMCLRE
 70
     0
  9
$DIMCLRT
 70
     0
  9
$DIMTFAC
 40
1.0
  9
$DIMGAP
 40
0.09
  9
$LUNITS
 70
     2
  9
$LUPREC
 70
     4
  9
$SKETCHINC
 40
0.1
  9
$FILLETRAD
 40
0.0
  9
$AUNITS
 70
     0
  9
$AUPREC
 70
     0
  9
$MENU
  1
acad
  9
$ELEVATION
 40
0.0
  9
$PELEVATION
 40
0.0
  9
$THICKNESS
 40
0.0
  9
$LIMCHECK
 70
     0
  9
$BLIPMODE
 70
     1
  9
$CHAMFERA
 40
0.0
  9
$CHAMFERB
 40
0.0
  9
$SKPOLY
 70
     0
  9
$TDCREATE
 40
2451003.593446
  9
$TDUPDATE
 40
2451003.596661
  9
$TDINDWG
 40
0.003085
  9
$TDUSRTIMER
 40
0.003085
  9
$USRTIMER
 70
     1
  9
$ANGBASE
 50
0.0
  9
$ANGDIR
 70
     0
  9
$PDMODE
 70
     0
  9
$PDSIZE
 40
0.0
  9
$PLINEWID
 40
0.0
  9
$COORDS
 70
     1
  9
$SPLFRAME
 70
     0
  9
$SPLINETYPE
 70
     6
  9
$SPLINESEGS
 70
     8
  9
$ATTDIA
 70
     0
  9
$ATTREQ
 70
     1
  9
$HANDLING
 70
     1
  9
$HANDSEED
  5
5D7
  9
$SURFTAB1
 70
     8
  9
$SURFTAB2
 70
     8
  9
$SURFTYPE
 70
     6
  9
$SURFU
 70
     6
  9
$SURFV
 70
     6
  9
$UCSNAME
  2

  9
$UCSORG
 10
0.0
 20
0.0
 30
0.0
  9
$UCSXDIR
 10
1.0
 20
0.0
 30
0.0
  9
$UCSYDIR
 10
0.0
 20
1.0
 30
0.0
  9
$PUCSNAME
  2

  9
$PUCSORG
 10
0.0
 20
0.0
 30
0.0
  9
$PUCSXDIR
 10
1.0
 20
0.0
 30
0.0
  9
$PUCSYDIR
 10
0.0
 20
1.0
 30
0.0
  9
$USERI1
 70
     0
  9
$USERI2
 70
     0
  9
$USERI3
 70
     0
  9
$USERI4
 70
     0
  9
$USERI5
 70
     0
  9
$USERR1
 40
0.0
  9
$USERR2
 40
0.0
  9
$USERR3
 40
0.0
  9
$USERR4
 40
0.0
  9
$USERR5
 40
0.0
  9
$WORLDVIEW
 70
     1
  9
$SHADEDGE
 70
     3
  9
$SHADEDIF
 70
    70
  9
$TILEMODE
 70
     1
  9
$MAXACTVP
 70
    16
  9
$PLIMCHECK
 70
     0
  9
$PEXTMIN
 10
1.000000E+020
 20
1.000000E+020
 30
1.000000E+020
  9
$PEXTMAX
 10
-1.000000E+020
 20
-1.000000E+020
 30
-1.000000E+020
  9
$PLIMMIN
 10
0.0
 20
0.0
  9
$PLIMMAX
 10
12.0
 20
9.0
  9
$UNITMODE
 70
     0
  9
$VISRETAIN
 70
     0
  9
$PLINEGEN
 70
     0
  9
$PSLTSCALE
 70
     1
  0
ENDSEC
  0
SECTION
  2
TABLES
  0
TABLE
  2
VPORT
 70
     3
  0
VPORT
  2
*ACTIVE
 70
     0
 10
0.0
 20
0.0
 11
1.0
 21
1.0
 12
8.366075
 22
-20.514477
 13
0.0
 23
0.0
 14
1.0
 24
1.0
 15
0.0
 25
0.0
 16
1.0
 26
1.0
 36
1.0
 17
0.0
 27
0.0
 37
0.0
 40
42.253698
 41
2.102941
 42
50.0
 43
0.0
 44
0.0
 50
0.0
 51
0.0
 71
     0
 72
   100
 73
     1
 74
     3
 75
     0
 76
     0
 77
     0
 78
     0
  0
ENDTAB
  0
TABLE
  2
LTYPE
 70
     1
  0
LTYPE
  2
CONTINUOUS
 70
     0
  3
Solid line
 72
    65
 73
     0
 40
0.0
  0
ENDTAB
  0
TABLE
  2
LAYER
 70
     5
  0
LAYER
  2
0
 70
     1
 62
     7
  6
CONTINUOUS
  0
LAYER
  2
SIDES_10
 70
     0
 62
     4
  6
CONTINUOUS
  0
LAYER
  2
BOTOP_15
 70
     0
 62
     3
  6
CONTINUOUS
  0
LAYER
  2
INSIDE_8
 70
     0
 62
     1
  6
CONTINUOUS
  0
LAYER
  2
NODES
 70
     0
 62
     6
  6
CONTINUOUS
  0
ENDTAB
  0
TABLE
  2
STYLE
 70
     1
  0
STYLE
  2
STANDARD
 70
     0
 40
0.0
 41
1.0
 50
0.0
 71
     0
 42
0.2
  3
txt
  4

  0
ENDTAB
  0
TABLE
  2
VIEW
 70
     0
  0
ENDTAB
  0
TABLE
  2
UCS
 70
     0
  0
ENDTAB
  0
TABLE
  2
APPID
 70
     1
  0
APPID
  2
ACAD
 70
     0
  0
ENDTAB
  0
TABLE
  2
DIMSTYLE
 70
     1
  0
DIMSTYLE
  2
STANDARD
 70
     0
  3

  4

  5

  6

  7

 40
1.0
 41
0.18
 42
0.0625
 43
0.38
 44
0.18
 45
0.0
 46
0.0
 47
0.0
 48
0.0
140
0.18
141
0.09
142
0.0
143
25.4
144
1.0
145
0.0
146
1.0
147
0.09
 71
     0
 72
     0
 73
     1
 74
     1
 75
     0
 76
     0
 77
     0
 78
     0
170
     0
171
     2
172
     0
173
     0
174
     0
175
     0
176
     0
177
     0
178
     0
  0
ENDTAB
  0
ENDSEC
  0
SECTION
  2
BLOCKS
  0
BLOCK
  8
0
  2
$MODEL_SPACE
 70
     0
 10
0.0
 20
0.0
 30
0.0
  3
$MODEL_SPACE
  1

  0
ENDBLK
  5
29
  8
0
  0
BLOCK
 67
     1
  8
0
  2
$PAPER_SPACE
 70
     0
 10
0.0
 20
0.0
 30
0.0
  3
$PAPER_SPACE
  1

  0
ENDBLK
  5
27
 67
     1
  8
0
  0
BLOCK
  8
0
  2
FE-NODE
 70
     2
 10
0.0
 20
0.0
 30
0.0
  3
FE-NODE
  1

  0
POLYLINE
  5
2D
  8
0
 66
     1
 10
0.0
 20
0.0
 30
0.0
 70
    17
 71
     4
 72
     3
  0
VERTEX
  5
2E
  8
0
 10
0.0
 20
0.0
 30
0.5
 70
    64
  0
VERTEX
  5
2F
  8
0
 10
-0.5
 20
0.0
 30
0.0
 70
    64
  0
VERTEX
  5
30
  8
0
 10
0.0
 20
0.0
 30
-0.5
 70
    64
  0
VERTEX
  5
31
  8
0
 10
0.0
 20
0.0
 30
0.5
 70
    64
  0
VERTEX
  5
32
  8
0
 10
0.0
 20
-0.5
 30
0.0
 70
    64
  0
VERTEX
  5
33
  8
0
 10
0.0
 20
0.0
 30
-0.5
 70
    64
  0
VERTEX
  5
34
  8
0
 10
0.0
 20
0.0
 30
0.5
 70
    64
  0
VERTEX
  5
35
  8
0
 10
0.5
 20
0.0
 30
0.0
 70
    64
  0
VERTEX
  5
36
  8
0
 10
0.0
 20
0.0
 30
-0.5
 70
    64
  0
VERTEX
  5
37
  8
0
 10
0.0
 20
0.0
 30
0.5
 70
    64
  0
VERTEX
  5
38
  8
0
 10
0.0
 20
0.5
 30
0.0
 70
    64
  0
VERTEX
  5
39
  8
0
 10
0.0
 20
0.0
 30
-0.5
 70
    64
  0
SEQEND
  5
3A
  8
0
  0
ATTDEF
  5
3B
  8
0
 10
0.0
 20
0.5
 30
0.0
 40
0.2
  1

  3

  2
UX
 70
     1
  0
ATTDEF
  5
3D
  8
0
 10
0.0
 20
0.3
 30
0.0
 40
0.2
  1

  3

  2
UY
 70
     1
  0
ATTDEF
  5
3E
  8
0
 10
0.0
 20
0.1
 30
0.0
 40
0.2
  1

  3

  2
UZ
 70
     1
  0
ATTDEF
  5
3F
  8
0
 10
0.0
 20
-0.3
 30
0.0
 40
0.2
  1

  3

  2
ROTX
 70
     1
  0
ATTDEF
  5
40
  8
0
 10
0.0
 20
-0.5
 30
0.0
 40
0.2
  1

  3

  2
ROTY
 70
     1
  0
ATTDEF
  5
41
  8
0
 10
0.0
 20
-0.7
 30
0.0
 40
0.2
  1

  3

  2
ROTZ
 70
     1
  0
ATTDEF
  5
42
  8
0
 10
0.0
 20
-1.043787
 30
0.0
 40
0.2
  1

  3

  2
ID
 70
     1
  0
ATTDEF
  5
43
  8
0
 10
0.945493
 20
0.5
 30
0.0
 40
0.2
  1

  3

  2
FX
 70
     1
  0
ATTDEF
  5
44
  8
0
 10
0.945493
 20
0.3
 30
0.0
 40
0.2
  1

  3

  2
FY
 70
     1
  0
ATTDEF
  5
45
  8
0
 10
0.945493
 20
0.1
 30
0.0
 40
0.2
  1

  3

  2
FZ
 70
     1
  0
ATTDEF
  5
46
  8
0
 10
0.945493
 20
-0.3
 30
0.0
 40
0.2
  1

  3

  2
MX
 70
     1
  0
ATTDEF
  5
47
  8
0
 10
0.945493
 20
-0.5
 30
0.0
 40
0.2
  1

  3

  2
MY
 70
     1
  0
ATTDEF
  5
48
  8
0
 10
0.945493
 20
-0.7
 30
0.0
 40
0.2
  1

  3

  2
MZ
 70
     1
  0
ENDBLK
  5
49
  8
0
  0
BLOCK
  8
0
  2
WMF0
 70
     0
 10
-0.002268
 20
0.498773
 30
0.0
  3
WMF0
  1

  0
POLYLINE
  5
4B
  8
0
 62
   250
 66
     1
 10
0.0
 20
0.0
 30
0.0
  0
VERTEX
  5
597
  8
0
 62
   250
 10
0.29559
 20
0.426632
 30
0.0
  0
VERTEX
  5
598
  8
0
 62
   250
 10
0.228544
 20
0.496319
 30
0.0
  0
SEQEND
  5
599
  8
0
 62
   250
  0
POLYLINE
  5
4F
  8
0
 62
   250
 66
     1
 10
0.0
 20
0.0
 30
0.0
  0
VERTEX
  5
59A
  8
0
 62
   250
 10
0.280827
 20
0.0
 30
0.0
  0
VERTEX
  5
59B
  8
0
 62
   250
 10
0.176261
 20
0.0
 30
0.0
  0
SEQEND
  5
59C
  8
0
 62
   250
  0
POLYLINE
  5
53
  8
0
 62
   250
 66
     1
 10
0.0
 20
0.0
 30
0.0
  0
VERTEX
  5
59D
  8
0
 62
   250
 10
0.176261
 20
0.119106
 30
0.0
  0
VERTEX
  5
59E
  8
0
 62
   250
 10
0.011342
 20
0.287297
 30
0.0
  0
SEQEND
  5
59F
  8
0
 62
   250
  0
POLYLINE
  5
57
  8
0
 62
   250
 66
     1
 10
0.0
 20
0.0
 30
0.0
  0
VERTEX
  5
5A0
  8
0
 62
   250
 10
0.176261
 20
0.0
 30
0.0
  0
VERTEX
  5
5A1
  8
0
 62
   250
 10
0.176261
 20
0.119106
 30
0.0
  0
SEQEND
  5
5A2
  8
0
 62
   250
  0
POLYLINE
  5
5B
  8
0
 62
   250
 66
     1
 10
0.0
 20
0.0
 30
0.0
  0
VERTEX
  5
5A3
  8
0
 62
   250
 10
0.085304
 20
0.36271
 30
0.0
  0
VERTEX
  5
5A4
  8
0
 62
   250
 10
0.176261
 20
0.269969
 30
0.0
  0
SEQEND
  5
5A5
  8
0
 62
   250
  0
POLYLINE
  5
5F
  8
0
 62
   250
 66
     1
 10
0.0
 20
0.0
 30
0.0
  0
VERTEX
  5
5A6
  8
0
 62
   250
 10
0.085304
 20
0.36271
 30
0.0
  0
VERTEX
  5
5A7
  8
0
 62
   250
 10
0.095716
 20
0.373345
 30
0.0
  0
SEQEND
  5
5A8
  8
0
 62
   250
  0
POLYLINE
  5
63
  8
0
 62
   250
 66
     1
 10
0.0
 20
0.0
 30
0.0
  0
VERTEX
  5
5A9
  8
0
 62
   250
 10
0.095716
 20
0.373345
 30
0.0
  0
VERTEX
  5
5AA
  8
0
 62
   250
 10
0.0
 20
0.374275
 30
0.0
  0
SEQEND
  5
5AB
  8
0
 62
   250
  0
POLYLINE
  5
67
  8
0
 62
   250
 66
     1
 10
0.0
 20
0.0
 30
0.0
  0
VERTEX
  5
5AC
  8
0
 62
   250
 10
0.000892
 20
0.276662
 30
0.0
  0
VERTEX
  5
5AD
  8
0
 62
   250
 10
0.0
 20
0.374275
 30
0.0
  0
SEQEND
  5
5AE
  8
0
 62
   250
  0
POLYLINE
  5
6B
  8
0
 62
   250
 66
     1
 10
0.0
 20
0.0
 30
0.0
  0
VERTEX
  5
5AF
  8
0
 62
   250
 10
0.011342
 20
0.287297
 30
0.0
  0
VERTEX
  5
5B0
  8
0
 62
   250
 10
0.000892
 20
0.276662
 30
0.0
  0
SEQEND
  5
5B1
  8
0
 62
   250
  0
POLYLINE
  5
6F
  8
0
 62
   250
 66
     1
 10
0.0
 20
0.0
 30
0.0
  0
VERTEX
  5
5B2
  8
0
 62
   250
 10
0.176261
 20
0.269969
 30
0.0
  0
VERTEX
  5
5B3
  8
0
 62
   250
 10
0.176261
 20
0.426632
 30
0.0
  0
SEQEND
  5
5B4
  8
0
 62
   250
  0
POLYLINE
  5
73
  8
0
 62
   250
 66
     1
 10
0.0
 20
0.0
 30
0.0
  0
VERTEX
  5
5B5
  8
0
 62
   250
 10
0.161498
 20
0.426632
 30
0.0
  0
VERTEX
  5
5B6
  8
0
 62
   250
 10
0.228544
 20
0.496319
 30
0.0
  0
SEQEND
  5
5B7
  8
0
 62
   250
  0
POLYLINE
  5
77
  8
0
 62
   250
 66
     1
 10
0.0
 20
0.0
 30
0.0
  0
VERTEX
  5
5B8
  8
0
 62
   250
 10
0.176261
 20
0.426632
 30
0.0
  0
VERTEX
  5
5B9
  8
0
 62
   250
 10
0.161498
 20
0.426632
 30
0.0
  0
SEQEND
  5
5BA
  8
0
 62
   250
  0
POLYLINE
  5
7B
  8
0
 62
   250
 66
     1
 10
0.0
 20
0.0
 30
0.0
  0
VERTEX
  5
5BB
  8
0
 62
   250
 10
0.280827
 20
0.119106
 30
0.0
  0
VERTEX
  5
5BC
  8
0
 62
   250
 10
0.445746
 20
0.287297
 30
0.0
  0
SEQEND
  5
5BD
  8
0
 62
   250
  0
POLYLINE
  5
7F
  8
0
 62
   250
 66
     1
 10
0.0
 20
0.0
 30
0.0
  0
VERTEX
  5
5BE
  8
0
 62
   250
 10
0.280827
 20
0.119106
 30
0.0
  0
VERTEX
  5
5BF
  8
0
 62
   250
 10
0.280827
 20
0.0
 30
0.0
  0
SEQEND
  5
5C0
  8
0
 62
   250
  0
POLYLINE
  5
83
  8
0
 62
   250
 66
     1
 10
0.0
 20
0.0
 30
0.0
  0
VERTEX
  5
5C1
  8
0
 62
   250
 10
0.361371
 20
0.373345
 30
0.0
  0
VERTEX
  5
5C2
  8
0
 62
   250
 10
0.457125
 20
0.374275
 30
0.0
  0
SEQEND
  5
5C3
  8
0
 62
   250
  0
POLYLINE
  5
87
  8
0
 62
   250
 66
     1
 10
0.0
 20
0.0
 30
0.0
  0
VERTEX
  5
5C4
  8
0
 62
   250
 10
0.371783
 20
0.36271
 30
0.0
  0
VERTEX
  5
5C5
  8
0
 62
   250
 10
0.280827
 20
0.269969
 30
0.0
  0
SEQEND
  5
5C6
  8
0
 62
   250
  0
POLYLINE
  5
8B
  8
0
 62
   250
 66
     1
 10
0.0
 20
0.0
 30
0.0
  0
VERTEX
  5
5C7
  8
0
 62
   250
 10
0.371783
 20
0.36271
 30
0.0
  0
VERTEX
  5
5C8
  8
0
 62
   250
 10
0.361371
 20
0.373345
 30
0.0
  0
SEQEND
  5
5C9
  8
0
 62
   250
  0
POLYLINE
  5
8F
  8
0
 62
   250
 66
     1
 10
0.0
 20
0.0
 30
0.0
  0
VERTEX
  5
5CA
  8
0
 62
   250
 10
0.280827
 20
0.426632
 30
0.0
  0
VERTEX
  5
5CB
  8
0
 62
   250
 10
0.280827
 20
0.269969
 30
0.0
  0
SEQEND
  5
5CC
  8
0
 62
   250
  0
POLYLINE
  5
93
  8
0
 62
   250
 66
     1
 10
0.0
 20
0.0
 30
0.0
  0
VERTEX
  5
5CD
  8
0
 62
   250
 10
0.280827
 20
0.426632
 30
0.0
  0
VERTEX
  5
5CE
  8
0
 62
   250
 10
0.29559
 20
0.426632
 30
0.0
  0
SEQEND
  5
5CF
  8
0
 62
   250
  0
POLYLINE
  5
97
  8
0
 62
   250
 66
     1
 10
0.0
 20
0.0
 30
0.0
  0
VERTEX
  5
5D0
  8
0
 62
   250
 10
0.456195
 20
0.276662
 30
0.0
  0
VERTEX
  5
5D1
  8
0
 62
   250
 10
0.457125
 20
0.374275
 30
0.0
  0
SEQEND
  5
5D2
  8
0
 62
   250
  0
POLYLINE
  5
9B
  8
0
 62
   250
 66
     1
 10
0.0
 20
0.0
 30
0.0
  0
VERTEX
  5
5D3
  8
0
 62
   250
 10
0.445746
 20
0.287297
 30
0.0
  0
VERTEX
  5
5D4
  8
0
 62
   250
 10
0.456195
 20
0.276662
 30
0.0
  0
SEQEND
  5
5D5
  8
0
 62
   250
  0
ENDBLK
  5
9F
  8
0
  0
ENDSEC
  0
SECTION
  2
ENTITIES
  0
LINE
  5
A0
  8
0
 10
0.0
 20
0.0
 30
0.0
 11
50.0
 21
0.0
 31
0.0
210
1.0
220
0.0
230
0.0
  0
LINE
  5
A1
  8
0
 10
0.0
 20
0.0
 30
0.0
 11
0.0
 21
10.0
 31
0.0
210
1.0
220
0.0
230
0.0
  0
LINE
  5
A2
  8
0
 10
0.0
 20
10.0
 30
0.0
 11
0.0
 21
10.0
 31
-20.0
210
1.0
220
0.0
230
0.0
  0
LINE
  5
A3
  8
0
 10
0.0
 20
10.0
 30
-20.0
 11
0.0
 21
0.0
 31
-20.0
210
1.0
220
0.0
230
0.0
  0
LINE
  5
A4
  8
0
 10
0.0
 20
0.0
 30
-20.0
 11
0.0
 21
0.0
 31
0.0
210
1.0
220
0.0
230
0.0
  0
LINE
  5
A5
  8
0
 10
50.0
 20
10.0
 30
-20.0
 11
50.0
 21
0.0
 31
-20.0
210
1.0
220
0.0
230
0.0
  0
LINE
  5
A6
  8
0
 10
50.0
 20
0.0
 30
0.0
 11
50.0
 21
10.0
 31
0.0
210
1.0
220
0.0
230
0.0
  0
LINE
  5
A7
  8
0
 10
50.0
 20
0.0
 30
-20.0
 11
50.0
 21
0.0
 31
0.0
210
1.0
220
0.0
230
0.0
  0
LINE
  5
A8
  8
0
 10
50.0
 20
10.0
 30
0.0
 11
50.0
 21
10.0
 31
-20.0
210
1.0
220
0.0
230
0.0
  0
LINE
  5
A9
  8
0
 10
0.0
 20
0.0
 30
-20.0
 11
50.0
 21
0.0
 31
-20.0
210
1.0
220
0.0
230
0.0
  0
LINE
  5
AA
  8
0
 10
0.0
 20
10.0
 30
-20.0
 11
50.0
 21
10.0
 31
-20.0
210
1.0
220
0.0
230
0.0
  0
LINE
  5
AB
  8
0
 10
0.0
 20
10.0
 30
0.0
 11
50.0
 21
10.0
 31
0.0
210
1.0
220
0.0
230
0.0
  0
POLYLINE
  5
AC
  8
BOTOP_15
 66
     1
 10
0.0
 20
0.0
 30
0.0
 70
    16
 71
     9
 72
     9
  0
VERTEX
  5
AD
  8
BOTOP_15
 10
0.0
 20
10.0
 30
0.0
 70
    64
  0
VERTEX
  5
AE
  8
BOTOP_15
 10
0.0
 20
8.75
 30
0.0
 70
    64
  0
VERTEX
  5
AF
  8
BOTOP_15
 10
0.0
 20
7.5
 30
0.0
 70
    64
  0
VERTEX
  5
B0
  8
BOTOP_15
 10
0.0
 20
6.25
 30
0.0
 70
    64
  0
VERTEX
  5
B1
  8
BOTOP_15
 10
0.0
 20
5.0
 30
0.0
 70
    64
  0
VERTEX
  5
B2
  8
BOTOP_15
 10
0.0
 20
3.75
 30
0.0
 70
    64
  0
VERTEX
  5
B3
  8
BOTOP_15
 10
0.0
 20
2.5
 30
0.0
 70
    64
  0
VERTEX
  5
B4
  8
BOTOP_15
 10
0.0
 20
1.25
 30
0.0
 70
    64
  0
VERTEX
  5
B5
  8
BOTOP_15
 10
0.0
 20
0.0
 30
0.0
 70
    64
  0
VERTEX
  5
B6
  8
BOTOP_15
 10
6.25
 20
10.0
 30
0.0
 70
    64
  0
VERTEX
  5
B7
  8
BOTOP_15
 10
6.25
 20
8.75
 30
0.0
 70
    64
  0
VERTEX
  5
B8
  8
BOTOP_15
 10
6.25
 20
7.5
 30
0.0
 70
    64
  0
VERTEX
  5
B9
  8
BOTOP_15
 10
6.25
 20
6.25
 30
0.0
 70
    64
  0
VERTEX
  5
BA
  8
BOTOP_15
 10
6.25
 20
5.0
 30
0.0
 70
    64
  0
VERTEX
  5
BB
  8
BOTOP_15
 10
6.25
 20
3.75
 30
0.0
 70
    64
  0
VERTEX
  5
BC
  8
BOTOP_15
 10
6.25
 20
2.5
 30
0.0
 70
    64
  0
VERTEX
  5
BD
  8
BOTOP_15
 10
6.25
 20
1.25
 30
0.0
 70
    64
  0
VERTEX
  5
BE
  8
BOTOP_15
 10
6.25
 20
0.0
 30
0.0
 70
    64
  0
VERTEX
  5
BF
  8
BOTOP_15
 10
12.5
 20
10.0
 30
0.0
 70
    64
  0
VERTEX
  5
C0
  8
BOTOP_15
 10
12.5
 20
8.75
 30
0.0
 70
    64
  0
VERTEX
  5
C1
  8
BOTOP_15
 10
12.5
 20
7.5
 30
0.0
 70
    64
  0
VERTEX
  5
C2
  8
BOTOP_15
 10
12.5
 20
6.25
 30
0.0
 70
    64
  0
VERTEX
  5
C3
  8
BOTOP_15
 10
12.5
 20
5.0
 30
0.0
 70
    64
  0
VERTEX
  5
C4
  8
BOTOP_15
 10
12.5
 20
3.75
 30
0.0
 70
    64
  0
VERTEX
  5
C5
  8
BOTOP_15
 10
12.5
 20
2.5
 30
0.0
 70
    64
  0
VERTEX
  5
C6
  8
BOTOP_15
 10
12.5
 20
1.25
 30
0.0
 70
    64
  0
VERTEX
  5
C7
  8
BOTOP_15
 10
12.5
 20
0.0
 30
0.0
 70
    64
  0
VERTEX
  5
C8
  8
BOTOP_15
 10
18.75
 20
10.0
 30
0.0
 70
    64
  0
VERTEX
  5
C9
  8
BOTOP_15
 10
18.75
 20
8.75
 30
0.0
 70
    64
  0
VERTEX
  5
CA
  8
BOTOP_15
 10
18.75
 20
7.5
 30
0.0
 70
    64
  0
VERTEX
  5
CB
  8
BOTOP_15
 10
18.75
 20
6.25
 30
0.0
 70
    64
  0
VERTEX
  5
CC
  8
BOTOP_15
 10
18.75
 20
5.0
 30
0.0
 70
    64
  0
VERTEX
  5
CD
  8
BOTOP_15
 10
18.75
 20
3.75
 30
0.0
 70
    64
  0
VERTEX
  5
CE
  8
BOTOP_15
 10
18.75
 20
2.5
 30
0.0
 70
    64
  0
VERTEX
  5
CF
  8
BOTOP_15
 10
18.75
 20
1.25
 30
0.0
 70
    64
  0
VERTEX
  5
D0
  8
BOTOP_15
 10
18.75
 20
0.0
 30
0.0
 70
    64
  0
VERTEX
  5
D1
  8
BOTOP_15
 10
25.0
 20
10.0
 30
0.0
 70
    64
  0
VERTEX
  5
D2
  8
BOTOP_15
 10
25.0
 20
8.75
 30
0.0
 70
    64
  0
VERTEX
  5
D3
  8
BOTOP_15
 10
25.0
 20
7.5
 30
0.0
 70
    64
  0
VERTEX
  5
D4
  8
BOTOP_15
 10
25.0
 20
6.25
 30
0.0
 70
    64
  0
VERTEX
  5
D5
  8
BOTOP_15
 10
25.0
 20
5.0
 30
0.0
 70
    64
  0
VERTEX
  5
D6
  8
BOTOP_15
 10
25.0
 20
3.75
 30
0.0
 70
    64
  0
VERTEX
  5
D7
  8
BOTOP_15
 10
25.0
 20
2.5
 30
0.0
 70
    64
  0
VERTEX
  5
D8
  8
BOTOP_15
 10
25.0
 20
1.25
 30
0.0
 70
    64
  0
VERTEX
  5
D9
  8
BOTOP_15
 10
25.0
 20
0.0
 30
0.0
 70
    64
  0
VERTEX
  5
DA
  8
BOTOP_15
 10
31.25
 20
10.0
 30
0.0
 70
    64
  0
VERTEX
  5
DB
  8
BOTOP_15
 10
31.25
 20
8.75
 30
0.0
 70
    64
  0
VERTEX
  5
DC
  8
BOTOP_15
 10
31.25
 20
7.5
 30
0.0
 70
    64
  0
VERTEX
  5
DD
  8
BOTOP_15
 10
31.25
 20
6.25
 30
0.0
 70
    64
  0
VERTEX
  5
DE
  8
BOTOP_15
 10
31.25
 20
5.0
 30
0.0
 70
    64
  0
VERTEX
  5
DF
  8
BOTOP_15
 10
31.25
 20
3.75
 30
0.0
 70
    64
  0
VERTEX
  5
E0
  8
BOTOP_15
 10
31.25
 20
2.5
 30
0.0
 70
    64
  0
VERTEX
  5
E1
  8
BOTOP_15
 10
31.25
 20
1.25
 30
0.0
 70
    64
  0
VERTEX
  5
E2
  8
BOTOP_15
 10
31.25
 20
0.0
 30
0.0
 70
    64
  0
VERTEX
  5
E3
  8
BOTOP_15
 10
37.5
 20
10.0
 30
0.0
 70
    64
  0
VERTEX
  5
E4
  8
BOTOP_15
 10
37.5
 20
8.75
 30
0.0
 70
    64
  0
VERTEX
  5
E5
  8
BOTOP_15
 10
37.5
 20
7.5
 30
0.0
 70
    64
  0
VERTEX
  5
E6
  8
BOTOP_15
 10
37.5
 20
6.25
 30
0.0
 70
    64
  0
VERTEX
  5
E7
  8
BOTOP_15
 10
37.5
 20
5.0
 30
0.0
 70
    64
  0
VERTEX
  5
E8
  8
BOTOP_15
 10
37.5
 20
3.75
 30
0.0
 70
    64
  0
VERTEX
  5
E9
  8
BOTOP_15
 10
37.5
 20
2.5
 30
0.0
 70
    64
  0
VERTEX
  5
EA
  8
BOTOP_15
 10
37.5
 20
1.25
 30
0.0
 70
    64
  0
VERTEX
  5
EB
  8
BOTOP_15
 10
37.5
 20
0.0
 30
0.0
 70
    64
  0
VERTEX
  5
EC
  8
BOTOP_15
 10
43.75
 20
10.0
 30
0.0
 70
    64
  0
VERTEX
  5
ED
  8
BOTOP_15
 10
43.75
 20
8.75
 30
0.0
 70
    64
  0
VERTEX
  5
EE
  8
BOTOP_15
 10
43.75
 20
7.5
 30
0.0
 70
    64
  0
VERTEX
  5
EF
  8
BOTOP_15
 10
43.75
 20
6.25
 30
0.0
 70
    64
  0
VERTEX
  5
F0
  8
BOTOP_15
 10
43.75
 20
5.0
 30
0.0
 70
    64
  0
VERTEX
  5
F1
  8
BOTOP_15
 10
43.75
 20
3.75
 30
0.0
 70
    64
  0
VERTEX
  5
F2
  8
BOTOP_15
 10
43.75
 20
2.5
 30
0.0
 70
    64
  0
VERTEX
  5
F3
  8
BOTOP_15
 10
43.75
 20
1.25
 30
0.0
 70
    64
  0
VERTEX
  5
F4
  8
BOTOP_15
 10
43.75
 20
0.0
 30
0.0
 70
    64
  0
VERTEX
  5
F5
  8
BOTOP_15
 10
50.0
 20
10.0
 30
0.0
 70
    64
  0
VERTEX
  5
F6
  8
BOTOP_15
 10
50.0
 20
8.75
 30
0.0
 70
    64
  0
VERTEX
  5
F7
  8
BOTOP_15
 10
50.0
 20
7.5
 30
0.0
 70
    64
  0
VERTEX
  5
F8
  8
BOTOP_15
 10
50.0
 20
6.25
 30
0.0
 70
    64
  0
VERTEX
  5
F9
  8
BOTOP_15
 10
50.0
 20
5.0
 30
0.0
 70
    64
  0
VERTEX
  5
FA
  8
BOTOP_15
 10
50.0
 20
3.75
 30
0.0
 70
    64
  0
VERTEX
  5
FB
  8
BOTOP_15
 10
50.0
 20
2.5
 30
0.0
 70
    64
  0
VERTEX
  5
FC
  8
BOTOP_15
 10
50.0
 20
1.25
 30
0.0
 70
    64
  0
VERTEX
  5
FD
  8
BOTOP_15
 10
50.0
 20
0.0
 30
0.0
 70
    64
  0
SEQEND
  5
FE
  8
BOTOP_15
  0
POLYLINE
  5
FF
  8
BOTOP_15
 66
     1
 10
0.0
 20
0.0
 30
0.0
 70
    16
 71
     9
 72
     9
  0
VERTEX
  5
100
  8
BOTOP_15
 10
0.0
 20
10.0
 30
-20.0
 70
    64
  0
VERTEX
  5
101
  8
BOTOP_15
 10
0.0
 20
8.75
 30
-20.0
 70
    64
  0
VERTEX
  5
102
  8
BOTOP_15
 10
0.0
 20
7.5
 30
-20.0
 70
    64
  0
VERTEX
  5
103
  8
BOTOP_15
 10
0.0
 20
6.25
 30
-20.0
 70
    64
  0
VERTEX
  5
104
  8
BOTOP_15
 10
0.0
 20
5.0
 30
-20.0
 70
    64
  0
VERTEX
  5
105
  8
BOTOP_15
 10
0.0
 20
3.75
 30
-20.0
 70
    64
  0
VERTEX
  5
106
  8
BOTOP_15
 10
0.0
 20
2.5
 30
-20.0
 70
    64
  0
VERTEX
  5
107
  8
BOTOP_15
 10
0.0
 20
1.25
 30
-20.0
 70
    64
  0
VERTEX
  5
108
  8
BOTOP_15
 10
0.0
 20
0.0
 30
-20.0
 70
    64
  0
VERTEX
  5
109
  8
BOTOP_15
 10
6.25
 20
10.0
 30
-20.0
 70
    64
  0
VERTEX
  5
10A
  8
BOTOP_15
 10
6.25
 20
8.75
 30
-20.0
 70
    64
  0
VERTEX
  5
10B
  8
BOTOP_15
 10
6.25
 20
7.5
 30
-20.0
 70
    64
  0
VERTEX
  5
10C
  8
BOTOP_15
 10
6.25
 20
6.25
 30
-20.0
 70
    64
  0
VERTEX
  5
10D
  8
BOTOP_15
 10
6.25
 20
5.0
 30
-20.0
 70
    64
  0
VERTEX
  5
10E
  8
BOTOP_15
 10
6.25
 20
3.75
 30
-20.0
 70
    64
  0
VERTEX
  5
10F
  8
BOTOP_15
 10
6.25
 20
2.5
 30
-20.0
 70
    64
  0
VERTEX
  5
110
  8
BOTOP_15
 10
6.25
 20
1.25
 30
-20.0
 70
    64
  0
VERTEX
  5
111
  8
BOTOP_15
 10
6.25
 20
0.0
 30
-20.0
 70
    64
  0
VERTEX
  5
112
  8
BOTOP_15
 10
12.5
 20
10.0
 30
-20.0
 70
    64
  0
VERTEX
  5
113
  8
BOTOP_15
 10
12.5
 20
8.75
 30
-20.0
 70
    64
  0
VERTEX
  5
114
  8
BOTOP_15
 10
12.5
 20
7.5
 30
-20.0
 70
    64
  0
VERTEX
  5
115
  8
BOTOP_15
 10
12.5
 20
6.25
 30
-20.0
 70
    64
  0
VERTEX
  5
116
  8
BOTOP_15
 10
12.5
 20
5.0
 30
-20.0
 70
    64
  0
VERTEX
  5
117
  8
BOTOP_15
 10
12.5
 20
3.75
 30
-20.0
 70
    64
  0
VERTEX
  5
118
  8
BOTOP_15
 10
12.5
 20
2.5
 30
-20.0
 70
    64
  0
VERTEX
  5
119
  8
BOTOP_15
 10
12.5
 20
1.25
 30
-20.0
 70
    64
  0
VERTEX
  5
11A
  8
BOTOP_15
 10
12.5
 20
0.0
 30
-20.0
 70
    64
  0
VERTEX
  5
11B
  8
BOTOP_15
 10
18.75
 20
10.0
 30
-20.0
 70
    64
  0
VERTEX
  5
11C
  8
BOTOP_15
 10
18.75
 20
8.75
 30
-20.0
 70
    64
  0
VERTEX
  5
11D
  8
BOTOP_15
 10
18.75
 20
7.5
 30
-20.0
 70
    64
  0
VERTEX
  5
11E
  8
BOTOP_15
 10
18.75
 20
6.25
 30
-20.0
 70
    64
  0
VERTEX
  5
11F
  8
BOTOP_15
 10
18.75
 20
5.0
 30
-20.0
 70
    64
  0
VERTEX
  5
120
  8
BOTOP_15
 10
18.75
 20
3.75
 30
-20.0
 70
    64
  0
VERTEX
  5
121
  8
BOTOP_15
 10
18.75
 20
2.5
 30
-20.0
 70
    64
  0
VERTEX
  5
122
  8
BOTOP_15
 10
18.75
 20
1.25
 30
-20.0
 70
    64
  0
VERTEX
  5
123
  8
BOTOP_15
 10
18.75
 20
0.0
 30
-20.0
 70
    64
  0
VERTEX
  5
124
  8
BOTOP_15
 10
25.0
 20
10.0
 30
-20.0
 70
    64
  0
VERTEX
  5
125
  8
BOTOP_15
 10
25.0
 20
8.75
 30
-20.0
 70
    64
  0
VERTEX
  5
126
  8
BOTOP_15
 10
25.0
 20
7.5
 30
-20.0
 70
    64
  0
VERTEX
  5
127
  8
BOTOP_15
 10
25.0
 20
6.25
 30
-20.0
 70
    64
  0
VERTEX
  5
128
  8
BOTOP_15
 10
25.0
 20
5.0
 30
-20.0
 70
    64
  0
VERTEX
  5
129
  8
BOTOP_15
 10
25.0
 20
3.75
 30
-20.0
 70
    64
  0
VERTEX
  5
12A
  8
BOTOP_15
 10
25.0
 20
2.5
 30
-20.0
 70
    64
  0
VERTEX
  5
12B
  8
BOTOP_15
 10
25.0
 20
1.25
 30
-20.0
 70
    64
  0
VERTEX
  5
12C
  8
BOTOP_15
 10
25.0
 20
0.0
 30
-20.0
 70
    64
  0
VERTEX
  5
12D
  8
BOTOP_15
 10
31.25
 20
10.0
 30
-20.0
 70
    64
  0
VERTEX
  5
12E
  8
BOTOP_15
 10
31.25
 20
8.75
 30
-20.0
 70
    64
  0
VERTEX
  5
12F
  8
BOTOP_15
 10
31.25
 20
7.5
 30
-20.0
 70
    64
  0
VERTEX
  5
130
  8
BOTOP_15
 10
31.25
 20
6.25
 30
-20.0
 70
    64
  0
VERTEX
  5
131
  8
BOTOP_15
 10
31.25
 20
5.0
 30
-20.0
 70
    64
  0
VERTEX
  5
132
  8
BOTOP_15
 10
31.25
 20
3.75
 30
-20.0
 70
    64
  0
VERTEX
  5
133
  8
BOTOP_15
 10
31.25
 20
2.5
 30
-20.0
 70
    64
  0
VERTEX
  5
134
  8
BOTOP_15
 10
31.25
 20
1.25
 30
-20.0
 70
    64
  0
VERTEX
  5
135
  8
BOTOP_15
 10
31.25
 20
0.0
 30
-20.0
 70
    64
  0
VERTEX
  5
136
  8
BOTOP_15
 10
37.5
 20
10.0
 30
-20.0
 70
    64
  0
VERTEX
  5
137
  8
BOTOP_15
 10
37.5
 20
8.75
 30
-20.0
 70
    64
  0
VERTEX
  5
138
  8
BOTOP_15
 10
37.5
 20
7.5
 30
-20.0
 70
    64
  0
VERTEX
  5
139
  8
BOTOP_15
 10
37.5
 20
6.25
 30
-20.0
 70
    64
  0
VERTEX
  5
13A
  8
BOTOP_15
 10
37.5
 20
5.0
 30
-20.0
 70
    64
  0
VERTEX
  5
13B
  8
BOTOP_15
 10
37.5
 20
3.75
 30
-20.0
 70
    64
  0
VERTEX
  5
13C
  8
BOTOP_15
 10
37.5
 20
2.5
 30
-20.0
 70
    64
  0
VERTEX
  5
13D
  8
BOTOP_15
 10
37.5
 20
1.25
 30
-20.0
 70
    64
  0
VERTEX
  5
13E
  8
BOTOP_15
 10
37.5
 20
0.0
 30
-20.0
 70
    64
  0
VERTEX
  5
13F
  8
BOTOP_15
 10
43.75
 20
10.0
 30
-20.0
 70
    64
  0
VERTEX
  5
140
  8
BOTOP_15
 10
43.75
 20
8.75
 30
-20.0
 70
    64
  0
VERTEX
  5
141
  8
BOTOP_15
 10
43.75
 20
7.5
 30
-20.0
 70
    64
  0
VERTEX
  5
142
  8
BOTOP_15
 10
43.75
 20
6.25
 30
-20.0
 70
    64
  0
VERTEX
  5
143
  8
BOTOP_15
 10
43.75
 20
5.0
 30
-20.0
 70
    64
  0
VERTEX
  5
144
  8
BOTOP_15
 10
43.75
 20
3.75
 30
-20.0
 70
    64
  0
VERTEX
  5
145
  8
BOTOP_15
 10
43.75
 20
2.5
 30
-20.0
 70
    64
  0
VERTEX
  5
146
  8
BOTOP_15
 10
43.75
 20
1.25
 30
-20.0
 70
    64
  0
VERTEX
  5
147
  8
BOTOP_15
 10
43.75
 20
0.0
 30
-20.0
 70
    64
  0
VERTEX
  5
148
  8
BOTOP_15
 10
50.0
 20
10.0
 30
-20.0
 70
    64
  0
VERTEX
  5
149
  8
BOTOP_15
 10
50.0
 20
8.75
 30
-20.0
 70
    64
  0
VERTEX
  5
14A
  8
BOTOP_15
 10
50.0
 20
7.5
 30
-20.0
 70
    64
  0
VERTEX
  5
14B
  8
BOTOP_15
 10
50.0
 20
6.25
 30
-20.0
 70
    64
  0
VERTEX
  5
14C
  8
BOTOP_15
 10
50.0
 20
5.0
 30
-20.0
 70
    64
  0
VERTEX
  5
14D
  8
BOTOP_15
 10
50.0
 20
3.75
 30
-20.0
 70
    64
  0
VERTEX
  5
14E
  8
BOTOP_15
 10
50.0
 20
2.5
 30
-20.0
 70
    64
  0
VERTEX
  5
14F
  8
BOTOP_15
 10
50.0
 20
1.25
 30
-20.0
 70
    64
  0
VERTEX
  5
150
  8
BOTOP_15
 10
50.0
 20
0.0
 30
-20.0
 70
    64
  0
SEQEND
  5
151
  8
BOTOP_15
  0
POLYLINE
  5
152
  8
SIDES_10
 66
     1
 10
0.0
 20
0.0
 30
0.0
 70
    16
 71
     9
 72
     9
  0
VERTEX
  5
153
  8
SIDES_10
 10
50.0
 20
0.0
 30
0.0
 70
    64
  0
VERTEX
  5
154
  8
SIDES_10
 10
50.0
 20
0.0
 30
-2.5
 70
    64
  0
VERTEX
  5
155
  8
SIDES_10
 10
50.0
 20
0.0
 30
-5.0
 70
    64
  0
VERTEX
  5
156
  8
SIDES_10
 10
50.0
 20
0.0
 30
-7.5
 70
    64
  0
VERTEX
  5
157
  8
SIDES_10
 10
50.0
 20
0.0
 30
-10.0
 70
    64
  0
VERTEX
  5
158
  8
SIDES_10
 10
50.0
 20
0.0
 30
-12.5
 70
    64
  0
VERTEX
  5
159
  8
SIDES_10
 10
50.0
 20
0.0
 30
-15.0
 70
    64
  0
VERTEX
  5
15A
  8
SIDES_10
 10
50.0
 20
0.0
 30
-17.5
 70
    64
  0
VERTEX
  5
15B
  8
SIDES_10
 10
50.0
 20
0.0
 30
-20.0
 70
    64
  0
VERTEX
  5
15C
  8
SIDES_10
 10
43.75
 20
0.0
 30
0.0
 70
    64
  0
VERTEX
  5
15D
  8
SIDES_10
 10
43.75
 20
0.0
 30
-2.5
 70
    64
  0
VERTEX
  5
15E
  8
SIDES_10
 10
43.75
 20
0.0
 30
-5.0
 70
    64
  0
VERTEX
  5
15F
  8
SIDES_10
 10
43.75
 20
0.0
 30
-7.5
 70
    64
  0
VERTEX
  5
160
  8
SIDES_10
 10
43.75
 20
0.0
 30
-10.0
 70
    64
  0
VERTEX
  5
161
  8
SIDES_10
 10
43.75
 20
0.0
 30
-12.5
 70
    64
  0
VERTEX
  5
162
  8
SIDES_10
 10
43.75
 20
0.0
 30
-15.0
 70
    64
  0
VERTEX
  5
163
  8
SIDES_10
 10
43.75
 20
0.0
 30
-17.5
 70
    64
  0
VERTEX
  5
164
  8
SIDES_10
 10
43.75
 20
0.0
 30
-20.0
 70
    64
  0
VERTEX
  5
165
  8
SIDES_10
 10
37.5
 20
0.0
 30
0.0
 70
    64
  0
VERTEX
  5
166
  8
SIDES_10
 10
37.5
 20
0.0
 30
-2.5
 70
    64
  0
VERTEX
  5
167
  8
SIDES_10
 10
37.5
 20
0.0
 30
-5.0
 70
    64
  0
VERTEX
  5
168
  8
SIDES_10
 10
37.5
 20
0.0
 30
-7.5
 70
    64
  0
VERTEX
  5
169
  8
SIDES_10
 10
37.5
 20
0.0
 30
-10.0
 70
    64
  0
VERTEX
  5
16A
  8
SIDES_10
 10
37.5
 20
0.0
 30
-12.5
 70
    64
  0
VERTEX
  5
16B
  8
SIDES_10
 10
37.5
 20
0.0
 30
-15.0
 70
    64
  0
VERTEX
  5
16C
  8
SIDES_10
 10
37.5
 20
0.0
 30
-17.5
 70
    64
  0
VERTEX
  5
16D
  8
SIDES_10
 10
37.5
 20
0.0
 30
-20.0
 70
    64
  0
VERTEX
  5
16E
  8
SIDES_10
 10
31.25
 20
0.0
 30
0.0
 70
    64
  0
VERTEX
  5
16F
  8
SIDES_10
 10
31.25
 20
0.0
 30
-2.5
 70
    64
  0
VERTEX
  5
170
  8
SIDES_10
 10
31.25
 20
0.0
 30
-5.0
 70
    64
  0
VERTEX
  5
171
  8
SIDES_10
 10
31.25
 20
0.0
 30
-7.5
 70
    64
  0
VERTEX
  5
172
  8
SIDES_10
 10
31.25
 20
0.0
 30
-10.0
 70
    64
  0
VERTEX
  5
173
  8
SIDES_10
 10
31.25
 20
0.0
 30
-12.5
 70
    64
  0
VERTEX
  5
174
  8
SIDES_10
 10
31.25
 20
0.0
 30
-15.0
 70
    64
  0
VERTEX
  5
175
  8
SIDES_10
 10
31.25
 20
0.0
 30
-17.5
 70
    64
  0
VERTEX
  5
176
  8
SIDES_10
 10
31.25
 20
0.0
 30
-20.0
 70
    64
  0
VERTEX
  5
177
  8
SIDES_10
 10
25.0
 20
0.0
 30
0.0
 70
    64
  0
VERTEX
  5
178
  8
SIDES_10
 10
25.0
 20
0.0
 30
-2.5
 70
    64
  0
VERTEX
  5
179
  8
SIDES_10
 10
25.0
 20
0.0
 30
-5.0
 70
    64
  0
VERTEX
  5
17A
  8
SIDES_10
 10
25.0
 20
0.0
 30
-7.5
 70
    64
  0
VERTEX
  5
17B
  8
SIDES_10
 10
25.0
 20
0.0
 30
-10.0
 70
    64
  0
VERTEX
  5
17C
  8
SIDES_10
 10
25.0
 20
0.0
 30
-12.5
 70
    64
  0
VERTEX
  5
17D
  8
SIDES_10
 10
25.0
 20
0.0
 30
-15.0
 70
    64
  0
VERTEX
  5
17E
  8
SIDES_10
 10
25.0
 20
0.0
 30
-17.5
 70
    64
  0
VERTEX
  5
17F
  8
SIDES_10
 10
25.0
 20
0.0
 30
-20.0
 70
    64
  0
VERTEX
  5
180
  8
SIDES_10
 10
18.75
 20
0.0
 30
0.0
 70
    64
  0
VERTEX
  5
181
  8
SIDES_10
 10
18.75
 20
0.0
 30
-2.5
 70
    64
  0
VERTEX
  5
182
  8
SIDES_10
 10
18.75
 20
0.0
 30
-5.0
 70
    64
  0
VERTEX
  5
183
  8
SIDES_10
 10
18.75
 20
0.0
 30
-7.5
 70
    64
  0
VERTEX
  5
184
  8
SIDES_10
 10
18.75
 20
0.0
 30
-10.0
 70
    64
  0
VERTEX
  5
185
  8
SIDES_10
 10
18.75
 20
0.0
 30
-12.5
 70
    64
  0
VERTEX
  5
186
  8
SIDES_10
 10
18.75
 20
0.0
 30
-15.0
 70
    64
  0
VERTEX
  5
187
  8
SIDES_10
 10
18.75
 20
0.0
 30
-17.5
 70
    64
  0
VERTEX
  5
188
  8
SIDES_10
 10
18.75
 20
0.0
 30
-20.0
 70
    64
  0
VERTEX
  5
189
  8
SIDES_10
 10
12.5
 20
0.0
 30
0.0
 70
    64
  0
VERTEX
  5
18A
  8
SIDES_10
 10
12.5
 20
0.0
 30
-2.5
 70
    64
  0
VERTEX
  5
18B
  8
SIDES_10
 10
12.5
 20
0.0
 30
-5.0
 70
    64
  0
VERTEX
  5
18C
  8
SIDES_10
 10
12.5
 20
0.0
 30
-7.5
 70
    64
  0
VERTEX
  5
18D
  8
SIDES_10
 10
12.5
 20
0.0
 30
-10.0
 70
    64
  0
VERTEX
  5
18E
  8
SIDES_10
 10
12.5
 20
0.0
 30
-12.5
 70
    64
  0
VERTEX
  5
18F
  8
SIDES_10
 10
12.5
 20
0.0
 30
-15.0
 70
    64
  0
VERTEX
  5
190
  8
SIDES_10
 10
12.5
 20
0.0
 30
-17.5
 70
    64
  0
VERTEX
  5
191
  8
SIDES_10
 10
12.5
 20
0.0
 30
-20.0
 70
    64
  0
VERTEX
  5
192
  8
SIDES_10
 10
6.25
 20
0.0
 30
0.0
 70
    64
  0
VERTEX
  5
193
  8
SIDES_10
 10
6.25
 20
0.0
 30
-2.5
 70
    64
  0
VERTEX
  5
194
  8
SIDES_10
 10
6.25
 20
0.0
 30
-5.0
 70
    64
  0
VERTEX
  5
195
  8
SIDES_10
 10
6.25
 20
0.0
 30
-7.5
 70
    64
  0
VERTEX
  5
196
  8
SIDES_10
 10
6.25
 20
0.0
 30
-10.0
 70
    64
  0
VERTEX
  5
197
  8
SIDES_10
 10
6.25
 20
0.0
 30
-12.5
 70
    64
  0
VERTEX
  5
198
  8
SIDES_10
 10
6.25
 20
0.0
 30
-15.0
 70
    64
  0
VERTEX
  5
199
  8
SIDES_10
 10
6.25
 20
0.0
 30
-17.5
 70
    64
  0
VERTEX
  5
19A
  8
SIDES_10
 10
6.25
 20
0.0
 30
-20.0
 70
    64
  0
VERTEX
  5
19B
  8
SIDES_10
 10
0.0
 20
0.0
 30
0.0
 70
    64
  0
VERTEX
  5
19C
  8
SIDES_10
 10
0.0
 20
0.0
 30
-2.5
 70
    64
  0
VERTEX
  5
19D
  8
SIDES_10
 10
0.0
 20
0.0
 30
-5.0
 70
    64
  0
VERTEX
  5
19E
  8
SIDES_10
 10
0.0
 20
0.0
 30
-7.5
 70
    64
  0
VERTEX
  5
19F
  8
SIDES_10
 10
0.0
 20
0.0
 30
-10.0
 70
    64
  0
VERTEX
  5
1A0
  8
SIDES_10
 10
0.0
 20
0.0
 30
-12.5
 70
    64
  0
VERTEX
  5
1A1
  8
SIDES_10
 10
0.0
 20
0.0
 30
-15.0
 70
    64
  0
VERTEX
  5
1A2
  8
SIDES_10
 10
0.0
 20
0.0
 30
-17.5
 70
    64
  0
VERTEX
  5
1A3
  8
SIDES_10
 10
0.0
 20
0.0
 30
-20.0
 70
    64
  0
SEQEND
  5
1A4
  8
SIDES_10
  0
POLYLINE
  5
1A5
  8
SIDES_10
 66
     1
 10
0.0
 20
0.0
 30
0.0
 70
    16
 71
     9
 72
     9
  0
VERTEX
  5
1A6
  8
SIDES_10
 10
50.0
 20
10.0
 30
0.0
 70
    64
  0
VERTEX
  5
1A7
  8
SIDES_10
 10
50.0
 20
10.0
 30
-2.5
 70
    64
  0
VERTEX
  5
1A8
  8
SIDES_10
 10
50.0
 20
10.0
 30
-5.0
 70
    64
  0
VERTEX
  5
1A9
  8
SIDES_10
 10
50.0
 20
10.0
 30
-7.5
 70
    64
  0
VERTEX
  5
1AA
  8
SIDES_10
 10
50.0
 20
10.0
 30
-10.0
 70
    64
  0
VERTEX
  5
1AB
  8
SIDES_10
 10
50.0
 20
10.0
 30
-12.5
 70
    64
  0
VERTEX
  5
1AC
  8
SIDES_10
 10
50.0
 20
10.0
 30
-15.0
 70
    64
  0
VERTEX
  5
1AD
  8
SIDES_10
 10
50.0
 20
10.0
 30
-17.5
 70
    64
  0
VERTEX
  5
1AE
  8
SIDES_10
 10
50.0
 20
10.0
 30
-20.0
 70
    64
  0
VERTEX
  5
1AF
  8
SIDES_10
 10
43.75
 20
10.0
 30
0.0
 70
    64
  0
VERTEX
  5
1B0
  8
SIDES_10
 10
43.75
 20
10.0
 30
-2.5
 70
    64
  0
VERTEX
  5
1B1
  8
SIDES_10
 10
43.75
 20
10.0
 30
-5.0
 70
    64
  0
VERTEX
  5
1B2
  8
SIDES_10
 10
43.75
 20
10.0
 30
-7.5
 70
    64
  0
VERTEX
  5
1B3
  8
SIDES_10
 10
43.75
 20
10.0
 30
-10.0
 70
    64
  0
VERTEX
  5
1B4
  8
SIDES_10
 10
43.75
 20
10.0
 30
-12.5
 70
    64
  0
VERTEX
  5
1B5
  8
SIDES_10
 10
43.75
 20
10.0
 30
-15.0
 70
    64
  0
VERTEX
  5
1B6
  8
SIDES_10
 10
43.75
 20
10.0
 30
-17.5
 70
    64
  0
VERTEX
  5
1B7
  8
SIDES_10
 10
43.75
 20
10.0
 30
-20.0
 70
    64
  0
VERTEX
  5
1B8
  8
SIDES_10
 10
37.5
 20
10.0
 30
0.0
 70
    64
  0
VERTEX
  5
1B9
  8
SIDES_10
 10
37.5
 20
10.0
 30
-2.5
 70
    64
  0
VERTEX
  5
1BA
  8
SIDES_10
 10
37.5
 20
10.0
 30
-5.0
 70
    64
  0
VERTEX
  5
1BB
  8
SIDES_10
 10
37.5
 20
10.0
 30
-7.5
 70
    64
  0
VERTEX
  5
1BC
  8
SIDES_10
 10
37.5
 20
10.0
 30
-10.0
 70
    64
  0
VERTEX
  5
1BD
  8
SIDES_10
 10
37.5
 20
10.0
 30
-12.5
 70
    64
  0
VERTEX
  5
1BE
  8
SIDES_10
 10
37.5
 20
10.0
 30
-15.0
 70
    64
  0
VERTEX
  5
1BF
  8
SIDES_10
 10
37.5
 20
10.0
 30
-17.5
 70
    64
  0
VERTEX
  5
1C0
  8
SIDES_10
 10
37.5
 20
10.0
 30
-20.0
 70
    64
  0
VERTEX
  5
1C1
  8
SIDES_10
 10
31.25
 20
10.0
 30
0.0
 70
    64
  0
VERTEX
  5
1C2
  8
SIDES_10
 10
31.25
 20
10.0
 30
-2.5
 70
    64
  0
VERTEX
  5
1C3
  8
SIDES_10
 10
31.25
 20
10.0
 30
-5.0
 70
    64
  0
VERTEX
  5
1C4
  8
SIDES_10
 10
31.25
 20
10.0
 30
-7.5
 70
    64
  0
VERTEX
  5
1C5
  8
SIDES_10
 10
31.25
 20
10.0
 30
-10.0
 70
    64
  0
VERTEX
  5
1C6
  8
SIDES_10
 10
31.25
 20
10.0
 30
-12.5
 70
    64
  0
VERTEX
  5
1C7
  8
SIDES_10
 10
31.25
 20
10.0
 30
-15.0
 70
    64
  0
VERTEX
  5
1C8
  8
SIDES_10
 10
31.25
 20
10.0
 30
-17.5
 70
    64
  0
VERTEX
  5
1C9
  8
SIDES_10
 10
31.25
 20
10.0
 30
-20.0
 70
    64
  0
VERTEX
  5
1CA
  8
SIDES_10
 10
25.0
 20
10.0
 30
0.0
 70
    64
  0
VERTEX
  5
1CB
  8
SIDES_10
 10
25.0
 20
10.0
 30
-2.5
 70
    64
  0
VERTEX
  5
1CC
  8
SIDES_10
 10
25.0
 20
10.0
 30
-5.0
 70
    64
  0
VERTEX
  5
1CD
  8
SIDES_10
 10
25.0
 20
10.0
 30
-7.5
 70
    64
  0
VERTEX
  5
1CE
  8
SIDES_10
 10
25.0
 20
10.0
 30
-10.0
 70
    64
  0
VERTEX
  5
1CF
  8
SIDES_10
 10
25.0
 20
10.0
 30
-12.5
 70
    64
  0
VERTEX
  5
1D0
  8
SIDES_10
 10
25.0
 20
10.0
 30
-15.0
 70
    64
  0
VERTEX
  5
1D1
  8
SIDES_10
 10
25.0
 20
10.0
 30
-17.5
 70
    64
  0
VERTEX
  5
1D2
  8
SIDES_10
 10
25.0
 20
10.0
 30
-20.0
 70
    64
  0
VERTEX
  5
1D3
  8
SIDES_10
 10
18.75
 20
10.0
 30
0.0
 70
    64
  0
VERTEX
  5
1D4
  8
SIDES_10
 10
18.75
 20
10.0
 30
-2.5
 70
    64
  0
VERTEX
  5
1D5
  8
SIDES_10
 10
18.75
 20
10.0
 30
-5.0
 70
    64
  0
VERTEX
  5
1D6
  8
SIDES_10
 10
18.75
 20
10.0
 30
-7.5
 70
    64
  0
VERTEX
  5
1D7
  8
SIDES_10
 10
18.75
 20
10.0
 30
-10.0
 70
    64
  0
VERTEX
  5
1D8
  8
SIDES_10
 10
18.75
 20
10.0
 30
-12.5
 70
    64
  0
VERTEX
  5
1D9
  8
SIDES_10
 10
18.75
 20
10.0
 30
-15.0
 70
    64
  0
VERTEX
  5
1DA
  8
SIDES_10
 10
18.75
 20
10.0
 30
-17.5
 70
    64
  0
VERTEX
  5
1DB
  8
SIDES_10
 10
18.75
 20
10.0
 30
-20.0
 70
    64
  0
VERTEX
  5
1DC
  8
SIDES_10
 10
12.5
 20
10.0
 30
0.0
 70
    64
  0
VERTEX
  5
1DD
  8
SIDES_10
 10
12.5
 20
10.0
 30
-2.5
 70
    64
  0
VERTEX
  5
1DE
  8
SIDES_10
 10
12.5
 20
10.0
 30
-5.0
 70
    64
  0
VERTEX
  5
1DF
  8
SIDES_10
 10
12.5
 20
10.0
 30
-7.5
 70
    64
  0
VERTEX
  5
1E0
  8
SIDES_10
 10
12.5
 20
10.0
 30
-10.0
 70
    64
  0
VERTEX
  5
1E1
  8
SIDES_10
 10
12.5
 20
10.0
 30
-12.5
 70
    64
  0
VERTEX
  5
1E2
  8
SIDES_10
 10
12.5
 20
10.0
 30
-15.0
 70
    64
  0
VERTEX
  5
1E3
  8
SIDES_10
 10
12.5
 20
10.0
 30
-17.5
 70
    64
  0
VERTEX
  5
1E4
  8
SIDES_10
 10
12.5
 20
10.0
 30
-20.0
 70
    64
  0
VERTEX
  5
1E5
  8
SIDES_10
 10
6.25
 20
10.0
 30
0.0
 70
    64
  0
VERTEX
  5
1E6
  8
SIDES_10
 10
6.25
 20
10.0
 30
-2.5
 70
    64
  0
VERTEX
  5
1E7
  8
SIDES_10
 10
6.25
 20
10.0
 30
-5.0
 70
    64
  0
VERTEX
  5
1E8
  8
SIDES_10
 10
6.25
 20
10.0
 30
-7.5
 70
    64
  0
VERTEX
  5
1E9
  8
SIDES_10
 10
6.25
 20
10.0
 30
-10.0
 70
    64
  0
VERTEX
  5
1EA
  8
SIDES_10
 10
6.25
 20
10.0
 30
-12.5
 70
    64
  0
VERTEX
  5
1EB
  8
SIDES_10
 10
6.25
 20
10.0
 30
-15.0
 70
    64
  0
VERTEX
  5
1EC
  8
SIDES_10
 10
6.25
 20
10.0
 30
-17.5
 70
    64
  0
VERTEX
  5
1ED
  8
SIDES_10
 10
6.25
 20
10.0
 30
-20.0
 70
    64
  0
VERTEX
  5
1EE
  8
SIDES_10
 10
0.0
 20
10.0
 30
0.0
 70
    64
  0
VERTEX
  5
1EF
  8
SIDES_10
 10
0.0
 20
10.0
 30
-2.5
 70
    64
  0
VERTEX
  5
1F0
  8
SIDES_10
 10
0.0
 20
10.0
 30
-5.0
 70
    64
  0
VERTEX
  5
1F1
  8
SIDES_10
 10
0.0
 20
10.0
 30
-7.5
 70
    64
  0
VERTEX
  5
1F2
  8
SIDES_10
 10
0.0
 20
10.0
 30
-10.0
 70
    64
  0
VERTEX
  5
1F3
  8
SIDES_10
 10
0.0
 20
10.0
 30
-12.5
 70
    64
  0
VERTEX
  5
1F4
  8
SIDES_10
 10
0.0
 20
10.0
 30
-15.0
 70
    64
  0
VERTEX
  5
1F5
  8
SIDES_10
 10
0.0
 20
10.0
 30
-17.5
 70
    64
  0
VERTEX
  5
1F6
  8
SIDES_10
 10
0.0
 20
10.0
 30
-20.0
 70
    64
  0
SEQEND
  5
1F7
  8
SIDES_10
  0
LINE
  5
1F8
  8
0
 10
0.0
 20
5.0
 30
-10.0
 11
-10.0
 21
5.0
 31
-10.0
210
1.0
220
0.0
230
0.0
  0
3DFACE
  5
1F9
  8
INSIDE_8
 10
50.0
 20
0.0
 30
-2.5
 11
50.0
 21
1.25
 31
0.0
 12
50.0
 22
0.0
 32
0.0
 13
50.0
 23
0.0
 33
-2.5
  0
3DFACE
  5
1FA
  8
INSIDE_8
 10
50.0
 20
10.0
 30
-2.5
 11
50.0
 21
10.0
 31
0.0
 12
50.0
 22
8.75
 32
0.0
 13
50.0
 23
10.0
 33
-2.5
  0
LINE
  5
1FB
  8
0
 10
50.0
 20
0.0
 30
-2.5
 11
50.0
 21
10.0
 31
-2.5
  0
3DFACE
  5
1FC
  8
INSIDE_8
 10
50.0
 20
0.0
 30
-2.5
 11
50.0
 21
1.25
 31
0.0
 12
50.0
 22
2.5
 32
0.0
 13
50.0
 23
2.5
 33
-2.5
  0
3DFACE
  5
1FD
  8
INSIDE_8
 10
50.0
 20
10.0
 30
-2.5
 11
50.0
 21
8.75
 31
0.0
 12
50.0
 22
7.5
 32
0.0
 13
50.0
 23
7.5
 33
-2.5
  0
3DFACE
  5
1FE
  8
INSIDE_8
 10
50.0
 20
2.5
 30
-2.5
 11
50.0
 21
2.5
 31
0.0
 12
50.0
 22
3.75
 32
0.0
 13
50.0
 23
3.75
 33
-2.5
  0
3DFACE
  5
1FF
  8
INSIDE_8
 10
50.0
 20
3.75
 30
-2.5
 11
50.0
 21
3.75
 31
0.0
 12
50.0
 22
5.0
 32
0.0
 13
50.0
 23
5.0
 33
-2.5
  0
3DFACE
  5
200
  8
INSIDE_8
 10
50.0
 20
5.0
 30
-2.5
 11
50.0
 21
5.0
 31
0.0
 12
50.0
 22
6.25
 32
0.0
 13
50.0
 23
6.25
 33
-2.5
  0
3DFACE
  5
201
  8
INSIDE_8
 10
50.0
 20
6.25
 30
-2.5
 11
50.0
 21
6.25
 31
0.0
 12
50.0
 22
7.5
 32
0.0
 13
50.0
 23
7.5
 33
-2.5
  0
INSERT
  5
202
  8
NODES
 66
     1
  2
FE-NODE
 10
50.0
 20
0.0
 30
-20.0
  0
ATTRIB
  5
203
  8
0
 10
50.0
 20
0.5
 30
-20.0
 40
0.2
  1
0
  2
UX
 70
     1
  0
ATTRIB
  5
204
  8
0
 10
50.0
 20
0.3
 30
-20.0
 40
0.2
  1
0
  2
UY
 70
     1
  0
ATTRIB
  5
205
  8
0
 10
50.0
 20
0.1
 30
-20.0
 40
0.2
  1
0
  2
UZ
 70
     1
  0
ATTRIB
  5
206
  8
0
 10
50.0
 20
-0.3
 30
-20.0
 40
0.2
  1

  2
ROTX
 70
     1
  0
ATTRIB
  5
207
  8
0
 10
50.0
 20
-0.5
 30
-20.0
 40
0.2
  1

  2
ROTY
 70
     1
  0
ATTRIB
  5
208
  8
0
 10
50.0
 20
-0.7
 30
-20.0
 40
0.2
  1

  2
ROTZ
 70
     1
  0
ATTRIB
  5
209
  8
0
 10
50.0
 20
-1.043787
 30
-20.0
 40
0.2
  1

  2
ID
 70
     1
  0
ATTRIB
  5
20A
  8
0
 10
50.945493
 20
0.5
 30
-20.0
 40
0.2
  1

  2
FX
 70
     1
  0
ATTRIB
  5
20B
  8
0
 10
50.945493
 20
0.3
 30
-20.0
 40
0.2
  1

  2
FY
 70
     1
  0
ATTRIB
  5
20C
  8
0
 10
50.945493
 20
0.1
 30
-20.0
 40
0.2
  1

  2
FZ
 70
     1
  0
ATTRIB
  5
20D
  8
0
 10
50.945493
 20
-0.3
 30
-20.0
 40
0.2
  1

  2
MX
 70
     1
  0
ATTRIB
  5
20E
  8
0
 10
50.945493
 20
-0.5
 30
-20.0
 40
0.2
  1

  2
MY
 70
     1
  0
ATTRIB
  5
20F
  8
0
 10
50.945493
 20
-0.7
 30
-20.0
 40
0.2
  1

  2
MZ
 70
     1
  0
SEQEND
  5
210
  8
NODES
  0
INSERT
  5
211
  8
NODES
 66
     1
  2
FE-NODE
 10
50.0
 20
1.25
 30
-20.0
  0
ATTRIB
  5
212
  8
0
 10
50.0
 20
1.75
 30
-20.0
 40
0.2
  1
0
  2
UX
 70
     1
  0
ATTRIB
  5
213
  8
0
 10
50.0
 20
1.55
 30
-20.0
 40
0.2
  1

  2
UY
 70
     1
  0
ATTRIB
  5
214
  8
0
 10
50.0
 20
1.35
 30
-20.0
 40
0.2
  1
0
  2
UZ
 70
     1
  0
ATTRIB
  5
215
  8
0
 10
50.0
 20
0.95
 30
-20.0
 40
0.2
  1

  2
ROTX
 70
     1
  0
ATTRIB
  5
216
  8
0
 10
50.0
 20
0.75
 30
-20.0
 40
0.2
  1

  2
ROTY
 70
     1
  0
ATTRIB
  5
217
  8
0
 10
50.0
 20
0.55
 30
-20.0
 40
0.2
  1

  2
ROTZ
 70
     1
  0
ATTRIB
  5
218
  8
0
 10
50.0
 20
0.206213
 30
-20.0
 40
0.2
  1

  2
ID
 70
     1
  0
ATTRIB
  5
219
  8
0
 10
50.945493
 20
1.75
 30
-20.0
 40
0.2
  1

  2
FX
 70
     1
  0
ATTRIB
  5
21A
  8
0
 10
50.945493
 20
1.55
 30
-20.0
 40
0.2
  1

  2
FY
 70
     1
  0
ATTRIB
  5
21B
  8
0
 10
50.945493
 20
1.35
 30
-20.0
 40
0.2
  1

  2
FZ
 70
     1
  0
ATTRIB
  5
21C
  8
0
 10
50.945493
 20
0.95
 30
-20.0
 40
0.2
  1

  2
MX
 70
     1
  0
ATTRIB
  5
21D
  8
0
 10
50.945493
 20
0.75
 30
-20.0
 40
0.2
  1

  2
MY
 70
     1
  0
ATTRIB
  5
21E
  8
0
 10
50.945493
 20
0.55
 30
-20.0
 40
0.2
  1

  2
MZ
 70
     1
  0
SEQEND
  5
21F
  8
NODES
  0
INSERT
  5
220
  8
NODES
 66
     1
  2
FE-NODE
 10
50.0
 20
2.5
 30
-20.0
  0
ATTRIB
  5
221
  8
0
 10
50.0
 20
3.0
 30
-20.0
 40
0.2
  1
0
  2
UX
 70
     1
  0
ATTRIB
  5
222
  8
0
 10
50.0
 20
2.8
 30
-20.0
 40
0.2
  1

  2
UY
 70
     1
  0
ATTRIB
  5
223
  8
0
 10
50.0
 20
2.6
 30
-20.0
 40
0.2
  1
0
  2
UZ
 70
     1
  0
ATTRIB
  5
224
  8
0
 10
50.0
 20
2.2
 30
-20.0
 40
0.2
  1

  2
ROTX
 70
     1
  0
ATTRIB
  5
225
  8
0
 10
50.0
 20
2.0
 30
-20.0
 40
0.2
  1

  2
ROTY
 70
     1
  0
ATTRIB
  5
226
  8
0
 10
50.0
 20
1.8
 30
-20.0
 40
0.2
  1

  2
ROTZ
 70
     1
  0
ATTRIB
  5
227
  8
0
 10
50.0
 20
1.456213
 30
-20.0
 40
0.2
  1

  2
ID
 70
     1
  0
ATTRIB
  5
228
  8
0
 10
50.945493
 20
3.0
 30
-20.0
 40
0.2
  1

  2
FX
 70
     1
  0
ATTRIB
  5
229
  8
0
 10
50.945493
 20
2.8
 30
-20.0
 40
0.2
  1

  2
FY
 70
     1
  0
ATTRIB
  5
22A
  8
0
 10
50.945493
 20
2.6
 30
-20.0
 40
0.2
  1

  2
FZ
 70
     1
  0
ATTRIB
  5
22B
  8
0
 10
50.945493
 20
2.2
 30
-20.0
 40
0.2
  1

  2
MX
 70
     1
  0
ATTRIB
  5
22C
  8
0
 10
50.945493
 20
2.0
 30
-20.0
 40
0.2
  1

  2
MY
 70
     1
  0
ATTRIB
  5
22D
  8
0
 10
50.945493
 20
1.8
 30
-20.0
 40
0.2
  1

  2
MZ
 70
     1
  0
SEQEND
  5
22E
  8
NODES
  0
INSERT
  5
22F
  8
NODES
 66
     1
  2
FE-NODE
 10
50.0
 20
3.75
 30
-20.0
  0
ATTRIB
  5
230
  8
0
 10
50.0
 20
4.25
 30
-20.0
 40
0.2
  1
0
  2
UX
 70
     1
  0
ATTRIB
  5
231
  8
0
 10
50.0
 20
4.05
 30
-20.0
 40
0.2
  1

  2
UY
 70
     1
  0
ATTRIB
  5
232
  8
0
 10
50.0
 20
3.85
 30
-20.0
 40
0.2
  1
0
  2
UZ
 70
     1
  0
ATTRIB
  5
233
  8
0
 10
50.0
 20
3.45
 30
-20.0
 40
0.2
  1

  2
ROTX
 70
     1
  0
ATTRIB
  5
234
  8
0
 10
50.0
 20
3.25
 30
-20.0
 40
0.2
  1

  2
ROTY
 70
     1
  0
ATTRIB
  5
235
  8
0
 10
50.0
 20
3.05
 30
-20.0
 40
0.2
  1

  2
ROTZ
 70
     1
  0
ATTRIB
  5
236
  8
0
 10
50.0
 20
2.706213
 30
-20.0
 40
0.2
  1

  2
ID
 70
     1
  0
ATTRIB
  5
237
  8
0
 10
50.945493
 20
4.25
 30
-20.0
 40
0.2
  1

  2
FX
 70
     1
  0
ATTRIB
  5
238
  8
0
 10
50.945493
 20
4.05
 30
-20.0
 40
0.2
  1

  2
FY
 70
     1
  0
ATTRIB
  5
239
  8
0
 10
50.945493
 20
3.85
 30
-20.0
 40
0.2
  1

  2
FZ
 70
     1
  0
ATTRIB
  5
23A
  8
0
 10
50.945493
 20
3.45
 30
-20.0
 40
0.2
  1

  2
MX
 70
     1
  0
ATTRIB
  5
23B
  8
0
 10
50.945493
 20
3.25
 30
-20.0
 40
0.2
  1

  2
MY
 70
     1
  0
ATTRIB
  5
23C
  8
0
 10
50.945493
 20
3.05
 30
-20.0
 40
0.2
  1

  2
MZ
 70
     1
  0
SEQEND
  5
23D
  8
NODES
  0
INSERT
  5
23E
  8
NODES
 66
     1
  2
FE-NODE
 10
50.0
 20
5.0
 30
-20.0
  0
ATTRIB
  5
23F
  8
0
 10
50.0
 20
5.5
 30
-20.0
 40
0.2
  1
0
  2
UX
 70
     1
  0
ATTRIB
  5
240
  8
0
 10
50.0
 20
5.3
 30
-20.0
 40
0.2
  1

  2
UY
 70
     1
  0
ATTRIB
  5
241
  8
0
 10
50.0
 20
5.1
 30
-20.0
 40
0.2
  1
0
  2
UZ
 70
     1
  0
ATTRIB
  5
242
  8
0
 10
50.0
 20
4.7
 30
-20.0
 40
0.2
  1

  2
ROTX
 70
     1
  0
ATTRIB
  5
243
  8
0
 10
50.0
 20
4.5
 30
-20.0
 40
0.2
  1

  2
ROTY
 70
     1
  0
ATTRIB
  5
244
  8
0
 10
50.0
 20
4.3
 30
-20.0
 40
0.2
  1

  2
ROTZ
 70
     1
  0
ATTRIB
  5
245
  8
0
 10
50.0
 20
3.956213
 30
-20.0
 40
0.2
  1

  2
ID
 70
     1
  0
ATTRIB
  5
246
  8
0
 10
50.945493
 20
5.5
 30
-20.0
 40
0.2
  1

  2
FX
 70
     1
  0
ATTRIB
  5
247
  8
0
 10
50.945493
 20
5.3
 30
-20.0
 40
0.2
  1

  2
FY
 70
     1
  0
ATTRIB
  5
248
  8
0
 10
50.945493
 20
5.1
 30
-20.0
 40
0.2
  1

  2
FZ
 70
     1
  0
ATTRIB
  5
249
  8
0
 10
50.945493
 20
4.7
 30
-20.0
 40
0.2
  1

  2
MX
 70
     1
  0
ATTRIB
  5
24A
  8
0
 10
50.945493
 20
4.5
 30
-20.0
 40
0.2
  1

  2
MY
 70
     1
  0
ATTRIB
  5
24B
  8
0
 10
50.945493
 20
4.3
 30
-20.0
 40
0.2
  1

  2
MZ
 70
     1
  0
SEQEND
  5
24C
  8
NODES
  0
INSERT
  5
24D
  8
NODES
 66
     1
  2
FE-NODE
 10
50.0
 20
6.25
 30
-20.0
  0
ATTRIB
  5
24E
  8
0
 10
50.0
 20
6.75
 30
-20.0
 40
0.2
  1
0
  2
UX
 70
     1
  0
ATTRIB
  5
24F
  8
0
 10
50.0
 20
6.55
 30
-20.0
 40
0.2
  1

  2
UY
 70
     1
  0
ATTRIB
  5
250
  8
0
 10
50.0
 20
6.35
 30
-20.0
 40
0.2
  1
0
  2
UZ
 70
     1
  0
ATTRIB
  5
251
  8
0
 10
50.0
 20
5.95
 30
-20.0
 40
0.2
  1

  2
ROTX
 70
     1
  0
ATTRIB
  5
252
  8
0
 10
50.0
 20
5.75
 30
-20.0
 40
0.2
  1

  2
ROTY
 70
     1
  0
ATTRIB
  5
253
  8
0
 10
50.0
 20
5.55
 30
-20.0
 40
0.2
  1

  2
ROTZ
 70
     1
  0
ATTRIB
  5
254
  8
0
 10
50.0
 20
5.206213
 30
-20.0
 40
0.2
  1

  2
ID
 70
     1
  0
ATTRIB
  5
255
  8
0
 10
50.945493
 20
6.75
 30
-20.0
 40
0.2
  1

  2
FX
 70
     1
  0
ATTRIB
  5
256
  8
0
 10
50.945493
 20
6.55
 30
-20.0
 40
0.2
  1

  2
FY
 70
     1
  0
ATTRIB
  5
257
  8
0
 10
50.945493
 20
6.35
 30
-20.0
 40
0.2
  1

  2
FZ
 70
     1
  0
ATTRIB
  5
258
  8
0
 10
50.945493
 20
5.95
 30
-20.0
 40
0.2
  1

  2
MX
 70
     1
  0
ATTRIB
  5
259
  8
0
 10
50.945493
 20
5.75
 30
-20.0
 40
0.2
  1

  2
MY
 70
     1
  0
ATTRIB
  5
25A
  8
0
 10
50.945493
 20
5.55
 30
-20.0
 40
0.2
  1

  2
MZ
 70
     1
  0
SEQEND
  5
25B
  8
NODES
  0
INSERT
  5
25C
  8
NODES
 66
     1
  2
FE-NODE
 10
50.0
 20
7.5
 30
-20.0
  0
ATTRIB
  5
25D
  8
0
 10
50.0
 20
8.0
 30
-20.0
 40
0.2
  1
0
  2
UX
 70
     1
  0
ATTRIB
  5
25E
  8
0
 10
50.0
 20
7.8
 30
-20.0
 40
0.2
  1

  2
UY
 70
     1
  0
ATTRIB
  5
25F
  8
0
 10
50.0
 20
7.6
 30
-20.0
 40
0.2
  1
0
  2
UZ
 70
     1
  0
ATTRIB
  5
260
  8
0
 10
50.0
 20
7.2
 30
-20.0
 40
0.2
  1

  2
ROTX
 70
     1
  0
ATTRIB
  5
261
  8
0
 10
50.0
 20
7.0
 30
-20.0
 40
0.2
  1

  2
ROTY
 70
     1
  0
ATTRIB
  5
262
  8
0
 10
50.0
 20
6.8
 30
-20.0
 40
0.2
  1

  2
ROTZ
 70
     1
  0
ATTRIB
  5
263
  8
0
 10
50.0
 20
6.456213
 30
-20.0
 40
0.2
  1

  2
ID
 70
     1
  0
ATTRIB
  5
264
  8
0
 10
50.945493
 20
8.0
 30
-20.0
 40
0.2
  1

  2
FX
 70
     1
  0
ATTRIB
  5
265
  8
0
 10
50.945493
 20
7.8
 30
-20.0
 40
0.2
  1

  2
FY
 70
     1
  0
ATTRIB
  5
266
  8
0
 10
50.945493
 20
7.6
 30
-20.0
 40
0.2
  1

  2
FZ
 70
     1
  0
ATTRIB
  5
267
  8
0
 10
50.945493
 20
7.2
 30
-20.0
 40
0.2
  1

  2
MX
 70
     1
  0
ATTRIB
  5
268
  8
0
 10
50.945493
 20
7.0
 30
-20.0
 40
0.2
  1

  2
MY
 70
     1
  0
ATTRIB
  5
269
  8
0
 10
50.945493
 20
6.8
 30
-20.0
 40
0.2
  1

  2
MZ
 70
     1
  0
SEQEND
  5
26A
  8
NODES
  0
INSERT
  5
26B
  8
NODES
 66
     1
  2
FE-NODE
 10
50.0
 20
8.75
 30
-20.0
  0
ATTRIB
  5
26C
  8
0
 10
50.0
 20
9.25
 30
-20.0
 40
0.2
  1
0
  2
UX
 70
     1
  0
ATTRIB
  5
26D
  8
0
 10
50.0
 20
9.05
 30
-20.0
 40
0.2
  1

  2
UY
 70
     1
  0
ATTRIB
  5
26E
  8
0
 10
50.0
 20
8.85
 30
-20.0
 40
0.2
  1
0
  2
UZ
 70
     1
  0
ATTRIB
  5
26F
  8
0
 10
50.0
 20
8.45
 30
-20.0
 40
0.2
  1

  2
ROTX
 70
     1
  0
ATTRIB
  5
270
  8
0
 10
50.0
 20
8.25
 30
-20.0
 40
0.2
  1

  2
ROTY
 70
     1
  0
ATTRIB
  5
271
  8
0
 10
50.0
 20
8.05
 30
-20.0
 40
0.2
  1

  2
ROTZ
 70
     1
  0
ATTRIB
  5
272
  8
0
 10
50.0
 20
7.706213
 30
-20.0
 40
0.2
  1

  2
ID
 70
     1
  0
ATTRIB
  5
273
  8
0
 10
50.945493
 20
9.25
 30
-20.0
 40
0.2
  1

  2
FX
 70
     1
  0
ATTRIB
  5
274
  8
0
 10
50.945493
 20
9.05
 30
-20.0
 40
0.2
  1

  2
FY
 70
     1
  0
ATTRIB
  5
275
  8
0
 10
50.945493
 20
8.85
 30
-20.0
 40
0.2
  1

  2
FZ
 70
     1
  0
ATTRIB
  5
276
  8
0
 10
50.945493
 20
8.45
 30
-20.0
 40
0.2
  1

  2
MX
 70
     1
  0
ATTRIB
  5
277
  8
0
 10
50.945493
 20
8.25
 30
-20.0
 40
0.2
  1

  2
MY
 70
     1
  0
ATTRIB
  5
278
  8
0
 10
50.945493
 20
8.05
 30
-20.0
 40
0.2
  1

  2
MZ
 70
     1
  0
SEQEND
  5
279
  8
NODES
  0
INSERT
  5
27A
  8
NODES
 66
     1
  2
FE-NODE
 10
50.0
 20
10.0
 30
-20.0
  0
ATTRIB
  5
27B
  8
0
 10
50.0
 20
10.5
 30
-20.0
 40
0.2
  1
0
  2
UX
 70
     1
  0
ATTRIB
  5
27C
  8
0
 10
50.0
 20
10.3
 30
-20.0
 40
0.2
  1

  2
UY
 70
     1
  0
ATTRIB
  5
27D
  8
0
 10
50.0
 20
10.1
 30
-20.0
 40
0.2
  1
0
  2
UZ
 70
     1
  0
ATTRIB
  5
27E
  8
0
 10
50.0
 20
9.7
 30
-20.0
 40
0.2
  1

  2
ROTX
 70
     1
  0
ATTRIB
  5
27F
  8
0
 10
50.0
 20
9.5
 30
-20.0
 40
0.2
  1

  2
ROTY
 70
     1
  0
ATTRIB
  5
280
  8
0
 10
50.0
 20
9.3
 30
-20.0
 40
0.2
  1

  2
ROTZ
 70
     1
  0
ATTRIB
  5
281
  8
0
 10
50.0
 20
8.956213
 30
-20.0
 40
0.2
  1

  2
ID
 70
     1
  0
ATTRIB
  5
282
  8
0
 10
50.945493
 20
10.5
 30
-20.0
 40
0.2
  1

  2
FX
 70
     1
  0
ATTRIB
  5
283
  8
0
 10
50.945493
 20
10.3
 30
-20.0
 40
0.2
  1

  2
FY
 70
     1
  0
ATTRIB
  5
284
  8
0
 10
50.945493
 20
10.1
 30
-20.0
 40
0.2
  1

  2
FZ
 70
     1
  0
ATTRIB
  5
285
  8
0
 10
50.945493
 20
9.7
 30
-20.0
 40
0.2
  1

  2
MX
 70
     1
  0
ATTRIB
  5
286
  8
0
 10
50.945493
 20
9.5
 30
-20.0
 40
0.2
  1

  2
MY
 70
     1
  0
ATTRIB
  5
287
  8
0
 10
50.945493
 20
9.3
 30
-20.0
 40
0.2
  1

  2
MZ
 70
     1
  0
SEQEND
  5
288
  8
NODES
  0
INSERT
  5
289
  8
NODES
 66
     1
  2
FE-NODE
 10
50.0
 20
10.0
 30
-17.5
  0
ATTRIB
  5
28A
  8
0
 10
50.0
 20
10.5
 30
-17.5
 40
0.2
  1
0
  2
UX
 70
     1
  0
ATTRIB
  5
28B
  8
0
 10
50.0
 20
10.3
 30
-17.5
 40
0.2
  1

  2
UY
 70
     1
  0
ATTRIB
  5
28C
  8
0
 10
50.0
 20
10.1
 30
-17.5
 40
0.2
  1

  2
UZ
 70
     1
  0
ATTRIB
  5
28D
  8
0
 10
50.0
 20
9.7
 30
-17.5
 40
0.2
  1

  2
ROTX
 70
     1
  0
ATTRIB
  5
28E
  8
0
 10
50.0
 20
9.5
 30
-17.5
 40
0.2
  1

  2
ROTY
 70
     1
  0
ATTRIB
  5
28F
  8
0
 10
50.0
 20
9.3
 30
-17.5
 40
0.2
  1

  2
ROTZ
 70
     1
  0
ATTRIB
  5
290
  8
0
 10
50.0
 20
8.956213
 30
-17.5
 40
0.2
  1

  2
ID
 70
     1
  0
ATTRIB
  5
291
  8
0
 10
50.945493
 20
10.5
 30
-17.5
 40
0.2
  1

  2
FX
 70
     1
  0
ATTRIB
  5
292
  8
0
 10
50.945493
 20
10.3
 30
-17.5
 40
0.2
  1

  2
FY
 70
     1
  0
ATTRIB
  5
293
  8
0
 10
50.945493
 20
10.1
 30
-17.5
 40
0.2
  1

  2
FZ
 70
     1
  0
ATTRIB
  5
294
  8
0
 10
50.945493
 20
9.7
 30
-17.5
 40
0.2
  1

  2
MX
 70
     1
  0
ATTRIB
  5
295
  8
0
 10
50.945493
 20
9.5
 30
-17.5
 40
0.2
  1

  2
MY
 70
     1
  0
ATTRIB
  5
296
  8
0
 10
50.945493
 20
9.3
 30
-17.5
 40
0.2
  1

  2
MZ
 70
     1
  0
SEQEND
  5
297
  8
NODES
  0
INSERT
  5
298
  8
NODES
 66
     1
  2
FE-NODE
 10
50.0
 20
10.0
 30
-15.0
  0
ATTRIB
  5
299
  8
0
 10
50.0
 20
10.5
 30
-15.0
 40
0.2
  1
0
  2
UX
 70
     1
  0
ATTRIB
  5
29A
  8
0
 10
50.0
 20
10.3
 30
-15.0
 40
0.2
  1

  2
UY
 70
     1
  0
ATTRIB
  5
29B
  8
0
 10
50.0
 20
10.1
 30
-15.0
 40
0.2
  1

  2
UZ
 70
     1
  0
ATTRIB
  5
29C
  8
0
 10
50.0
 20
9.7
 30
-15.0
 40
0.2
  1

  2
ROTX
 70
     1
  0
ATTRIB
  5
29D
  8
0
 10
50.0
 20
9.5
 30
-15.0
 40
0.2
  1

  2
ROTY
 70
     1
  0
ATTRIB
  5
29E
  8
0
 10
50.0
 20
9.3
 30
-15.0
 40
0.2
  1

  2
ROTZ
 70
     1
  0
ATTRIB
  5
29F
  8
0
 10
50.0
 20
8.956213
 30
-15.0
 40
0.2
  1

  2
ID
 70
     1
  0
ATTRIB
  5
2A0
  8
0
 10
50.945493
 20
10.5
 30
-15.0
 40
0.2
  1

  2
FX
 70
     1
  0
ATTRIB
  5
2A1
  8
0
 10
50.945493
 20
10.3
 30
-15.0
 40
0.2
  1

  2
FY
 70
     1
  0
ATTRIB
  5
2A2
  8
0
 10
50.945493
 20
10.1
 30
-15.0
 40
0.2
  1

  2
FZ
 70
     1
  0
ATTRIB
  5
2A3
  8
0
 10
50.945493
 20
9.7
 30
-15.0
 40
0.2
  1

  2
MX
 70
     1
  0
ATTRIB
  5
2A4
  8
0
 10
50.945493
 20
9.5
 30
-15.0
 40
0.2
  1

  2
MY
 70
     1
  0
ATTRIB
  5
2A5
  8
0
 10
50.945493
 20
9.3
 30
-15.0
 40
0.2
  1

  2
MZ
 70
     1
  0
SEQEND
  5
2A6
  8
NODES
  0
INSERT
  5
2A7
  8
NODES
 66
     1
  2
FE-NODE
 10
50.0
 20
10.0
 30
-12.5
  0
ATTRIB
  5
2A8
  8
0
 10
50.0
 20
10.5
 30
-12.5
 40
0.2
  1
0
  2
UX
 70
     1
  0
ATTRIB
  5
2A9
  8
0
 10
50.0
 20
10.3
 30
-12.5
 40
0.2
  1

  2
UY
 70
     1
  0
ATTRIB
  5
2AA
  8
0
 10
50.0
 20
10.1
 30
-12.5
 40
0.2
  1

  2
UZ
 70
     1
  0
ATTRIB
  5
2AB
  8
0
 10
50.0
 20
9.7
 30
-12.5
 40
0.2
  1

  2
ROTX
 70
     1
  0
ATTRIB
  5
2AC
  8
0
 10
50.0
 20
9.5
 30
-12.5
 40
0.2
  1

  2
ROTY
 70
     1
  0
ATTRIB
  5
2AD
  8
0
 10
50.0
 20
9.3
 30
-12.5
 40
0.2
  1

  2
ROTZ
 70
     1
  0
ATTRIB
  5
2AE
  8
0
 10
50.0
 20
8.956213
 30
-12.5
 40
0.2
  1

  2
ID
 70
     1
  0
ATTRIB
  5
2AF
  8
0
 10
50.945493
 20
10.5
 30
-12.5
 40
0.2
  1

  2
FX
 70
     1
  0
ATTRIB
  5
2B0
  8
0
 10
50.945493
 20
10.3
 30
-12.5
 40
0.2
  1

  2
FY
 70
     1
  0
ATTRIB
  5
2B1
  8
0
 10
50.945493
 20
10.1
 30
-12.5
 40
0.2
  1

  2
FZ
 70
     1
  0
ATTRIB
  5
2B2
  8
0
 10
50.945493
 20
9.7
 30
-12.5
 40
0.2
  1

  2
MX
 70
     1
  0
ATTRIB
  5
2B3
  8
0
 10
50.945493
 20
9.5
 30
-12.5
 40
0.2
  1

  2
MY
 70
     1
  0
ATTRIB
  5
2B4
  8
0
 10
50.945493
 20
9.3
 30
-12.5
 40
0.2
  1

  2
MZ
 70
     1
  0
SEQEND
  5
2B5
  8
NODES
  0
INSERT
  5
2B6
  8
NODES
 66
     1
  2
FE-NODE
 10
50.0
 20
10.0
 30
-10.0
  0
ATTRIB
  5
2B7
  8
0
 10
50.0
 20
10.5
 30
-10.0
 40
0.2
  1
0
  2
UX
 70
     1
  0
ATTRIB
  5
2B8
  8
0
 10
50.0
 20
10.3
 30
-10.0
 40
0.2
  1

  2
UY
 70
     1
  0
ATTRIB
  5
2B9
  8
0
 10
50.0
 20
10.1
 30
-10.0
 40
0.2
  1

  2
UZ
 70
     1
  0
ATTRIB
  5
2BA
  8
0
 10
50.0
 20
9.7
 30
-10.0
 40
0.2
  1

  2
ROTX
 70
     1
  0
ATTRIB
  5
2BB
  8
0
 10
50.0
 20
9.5
 30
-10.0
 40
0.2
  1

  2
ROTY
 70
     1
  0
ATTRIB
  5
2BC
  8
0
 10
50.0
 20
9.3
 30
-10.0
 40
0.2
  1

  2
ROTZ
 70
     1
  0
ATTRIB
  5
2BD
  8
0
 10
50.0
 20
8.956213
 30
-10.0
 40
0.2
  1

  2
ID
 70
     1
  0
ATTRIB
  5
2BE
  8
0
 10
50.945493
 20
10.5
 30
-10.0
 40
0.2
  1

  2
FX
 70
     1
  0
ATTRIB
  5
2BF
  8
0
 10
50.945493
 20
10.3
 30
-10.0
 40
0.2
  1

  2
FY
 70
     1
  0
ATTRIB
  5
2C0
  8
0
 10
50.945493
 20
10.1
 30
-10.0
 40
0.2
  1

  2
FZ
 70
     1
  0
ATTRIB
  5
2C1
  8
0
 10
50.945493
 20
9.7
 30
-10.0
 40
0.2
  1

  2
MX
 70
     1
  0
ATTRIB
  5
2C2
  8
0
 10
50.945493
 20
9.5
 30
-10.0
 40
0.2
  1

  2
MY
 70
     1
  0
ATTRIB
  5
2C3
  8
0
 10
50.945493
 20
9.3
 30
-10.0
 40
0.2
  1

  2
MZ
 70
     1
  0
SEQEND
  5
2C4
  8
NODES
  0
INSERT
  5
2C5
  8
NODES
 66
     1
  2
FE-NODE
 10
50.0
 20
10.0
 30
-7.5
  0
ATTRIB
  5
2C6
  8
0
 10
50.0
 20
10.5
 30
-7.5
 40
0.2
  1
0
  2
UX
 70
     1
  0
ATTRIB
  5
2C7
  8
0
 10
50.0
 20
10.3
 30
-7.5
 40
0.2
  1

  2
UY
 70
     1
  0
ATTRIB
  5
2C8
  8
0
 10
50.0
 20
10.1
 30
-7.5
 40
0.2
  1

  2
UZ
 70
     1
  0
ATTRIB
  5
2C9
  8
0
 10
50.0
 20
9.7
 30
-7.5
 40
0.2
  1

  2
ROTX
 70
     1
  0
ATTRIB
  5
2CA
  8
0
 10
50.0
 20
9.5
 30
-7.5
 40
0.2
  1

  2
ROTY
 70
     1
  0
ATTRIB
  5
2CB
  8
0
 10
50.0
 20
9.3
 30
-7.5
 40
0.2
  1

  2
ROTZ
 70
     1
  0
ATTRIB
  5
2CC
  8
0
 10
50.0
 20
8.956213
 30
-7.5
 40
0.2
  1

  2
ID
 70
     1
  0
ATTRIB
  5
2CD
  8
0
 10
50.945493
 20
10.5
 30
-7.5
 40
0.2
  1

  2
FX
 70
     1
  0
ATTRIB
  5
2CE
  8
0
 10
50.945493
 20
10.3
 30
-7.5
 40
0.2
  1

  2
FY
 70
     1
  0
ATTRIB
  5
2CF
  8
0
 10
50.945493
 20
10.1
 30
-7.5
 40
0.2
  1

  2
FZ
 70
     1
  0
ATTRIB
  5
2D0
  8
0
 10
50.945493
 20
9.7
 30
-7.5
 40
0.2
  1

  2
MX
 70
     1
  0
ATTRIB
  5
2D1
  8
0
 10
50.945493
 20
9.5
 30
-7.5
 40
0.2
  1

  2
MY
 70
     1
  0
ATTRIB
  5
2D2
  8
0
 10
50.945493
 20
9.3
 30
-7.5
 40
0.2
  1

  2
MZ
 70
     1
  0
SEQEND
  5
2D3
  8
NODES
  0
INSERT
  5
2D4
  8
NODES
 66
     1
  2
FE-NODE
 10
50.0
 20
10.0
 30
-5.0
  0
ATTRIB
  5
2D5
  8
0
 10
50.0
 20
10.5
 30
-5.0
 40
0.2
  1
0
  2
UX
 70
     1
  0
ATTRIB
  5
2D6
  8
0
 10
50.0
 20
10.3
 30
-5.0
 40
0.2
  1

  2
UY
 70
     1
  0
ATTRIB
  5
2D7
  8
0
 10
50.0
 20
10.1
 30
-5.0
 40
0.2
  1

  2
UZ
 70
     1
  0
ATTRIB
  5
2D8
  8
0
 10
50.0
 20
9.7
 30
-5.0
 40
0.2
  1

  2
ROTX
 70
     1
  0
ATTRIB
  5
2D9
  8
0
 10
50.0
 20
9.5
 30
-5.0
 40
0.2
  1

  2
ROTY
 70
     1
  0
ATTRIB
  5
2DA
  8
0
 10
50.0
 20
9.3
 30
-5.0
 40
0.2
  1

  2
ROTZ
 70
     1
  0
ATTRIB
  5
2DB
  8
0
 10
50.0
 20
8.956213
 30
-5.0
 40
0.2
  1

  2
ID
 70
     1
  0
ATTRIB
  5
2DC
  8
0
 10
50.945493
 20
10.5
 30
-5.0
 40
0.2
  1

  2
FX
 70
     1
  0
ATTRIB
  5
2DD
  8
0
 10
50.945493
 20
10.3
 30
-5.0
 40
0.2
  1

  2
FY
 70
     1
  0
ATTRIB
  5
2DE
  8
0
 10
50.945493
 20
10.1
 30
-5.0
 40
0.2
  1

  2
FZ
 70
     1
  0
ATTRIB
  5
2DF
  8
0
 10
50.945493
 20
9.7
 30
-5.0
 40
0.2
  1

  2
MX
 70
     1
  0
ATTRIB
  5
2E0
  8
0
 10
50.945493
 20
9.5
 30
-5.0
 40
0.2
  1

  2
MY
 70
     1
  0
ATTRIB
  5
2E1
  8
0
 10
50.945493
 20
9.3
 30
-5.0
 40
0.2
  1

  2
MZ
 70
     1
  0
SEQEND
  5
2E2
  8
NODES
  0
INSERT
  5
2E3
  8
NODES
 66
     1
  2
FE-NODE
 10
50.0
 20
10.0
 30
-2.5
  0
ATTRIB
  5
2E4
  8
0
 10
50.0
 20
10.5
 30
-2.5
 40
0.2
  1
0
  2
UX
 70
     1
  0
ATTRIB
  5
2E5
  8
0
 10
50.0
 20
10.3
 30
-2.5
 40
0.2
  1

  2
UY
 70
     1
  0
ATTRIB
  5
2E6
  8
0
 10
50.0
 20
10.1
 30
-2.5
 40
0.2
  1

  2
UZ
 70
     1
  0
ATTRIB
  5
2E7
  8
0
 10
50.0
 20
9.7
 30
-2.5
 40
0.2
  1

  2
ROTX
 70
     1
  0
ATTRIB
  5
2E8
  8
0
 10
50.0
 20
9.5
 30
-2.5
 40
0.2
  1

  2
ROTY
 70
     1
  0
ATTRIB
  5
2E9
  8
0
 10
50.0
 20
9.3
 30
-2.5
 40
0.2
  1

  2
ROTZ
 70
     1
  0
ATTRIB
  5
2EA
  8
0
 10
50.0
 20
8.956213
 30
-2.5
 40
0.2
  1

  2
ID
 70
     1
  0
ATTRIB
  5
2EB
  8
0
 10
50.945493
 20
10.5
 30
-2.5
 40
0.2
  1

  2
FX
 70
     1
  0
ATTRIB
  5
2EC
  8
0
 10
50.945493
 20
10.3
 30
-2.5
 40
0.2
  1

  2
FY
 70
     1
  0
ATTRIB
  5
2ED
  8
0
 10
50.945493
 20
10.1
 30
-2.5
 40
0.2
  1

  2
FZ
 70
     1
  0
ATTRIB
  5
2EE
  8
0
 10
50.945493
 20
9.7
 30
-2.5
 40
0.2
  1

  2
MX
 70
     1
  0
ATTRIB
  5
2EF
  8
0
 10
50.945493
 20
9.5
 30
-2.5
 40
0.2
  1

  2
MY
 70
     1
  0
ATTRIB
  5
2F0
  8
0
 10
50.945493
 20
9.3
 30
-2.5
 40
0.2
  1

  2
MZ
 70
     1
  0
SEQEND
  5
2F1
  8
NODES
  0
INSERT
  5
2F2
  8
NODES
 66
     1
  2
FE-NODE
 10
50.0
 20
6.25
 30
0.0
  0
ATTRIB
  5
2F3
  8
0
 10
50.0
 20
6.75
 30
0.0
 40
0.2
  1
0
  2
UX
 70
     1
  0
ATTRIB
  5
2F4
  8
0
 10
50.0
 20
6.55
 30
0.0
 40
0.2
  1

  2
UY
 70
     1
  0
ATTRIB
  5
2F5
  8
0
 10
50.0
 20
6.35
 30
0.0
 40
0.2
  1

  2
UZ
 70
     1
  0
ATTRIB
  5
2F6
  8
0
 10
50.0
 20
5.95
 30
0.0
 40
0.2
  1

  2
ROTX
 70
     1
  0
ATTRIB
  5
2F7
  8
0
 10
50.0
 20
5.75
 30
0.0
 40
0.2
  1

  2
ROTY
 70
     1
  0
ATTRIB
  5
2F8
  8
0
 10
50.0
 20
5.55
 30
0.0
 40
0.2
  1

  2
ROTZ
 70
     1
  0
ATTRIB
  5
2F9
  8
0
 10
50.0
 20
5.206213
 30
0.0
 40
0.2
  1

  2
ID
 70
     1
  0
ATTRIB
  5
2FA
  8
0
 10
50.945493
 20
6.75
 30
0.0
 40
0.2
  1

  2
FX
 70
     1
  0
ATTRIB
  5
2FB
  8
0
 10
50.945493
 20
6.55
 30
0.0
 40
0.2
  1

  2
FY
 70
     1
  0
ATTRIB
  5
2FC
  8
0
 10
50.945493
 20
6.35
 30
0.0
 40
0.2
  1

  2
FZ
 70
     1
  0
ATTRIB
  5
2FD
  8
0
 10
50.945493
 20
5.95
 30
0.0
 40
0.2
  1

  2
MX
 70
     1
  0
ATTRIB
  5
2FE
  8
0
 10
50.945493
 20
5.75
 30
0.0
 40
0.2
  1

  2
MY
 70
     1
  0
ATTRIB
  5
2FF
  8
0
 10
50.945493
 20
5.55
 30
0.0
 40
0.2
  1

  2
MZ
 70
     1
  0
SEQEND
  5
300
  8
NODES
  0
INSERT
  5
301
  8
NODES
 66
     1
  2
FE-NODE
 10
50.0
 20
5.0
 30
0.0
  0
ATTRIB
  5
302
  8
0
 10
50.0
 20
5.5
 30
0.0
 40
0.2
  1
0
  2
UX
 70
     1
  0
ATTRIB
  5
303
  8
0
 10
50.0
 20
5.3
 30
0.0
 40
0.2
  1

  2
UY
 70
     1
  0
ATTRIB
  5
304
  8
0
 10
50.0
 20
5.1
 30
0.0
 40
0.2
  1

  2
UZ
 70
     1
  0
ATTRIB
  5
305
  8
0
 10
50.0
 20
4.7
 30
0.0
 40
0.2
  1

  2
ROTX
 70
     1
  0
ATTRIB
  5
306
  8
0
 10
50.0
 20
4.5
 30
0.0
 40
0.2
  1

  2
ROTY
 70
     1
  0
ATTRIB
  5
307
  8
0
 10
50.0
 20
4.3
 30
0.0
 40
0.2
  1

  2
ROTZ
 70
     1
  0
ATTRIB
  5
308
  8
0
 10
50.0
 20
3.956213
 30
0.0
 40
0.2
  1

  2
ID
 70
     1
  0
ATTRIB
  5
309
  8
0
 10
50.945493
 20
5.5
 30
0.0
 40
0.2
  1

  2
FX
 70
     1
  0
ATTRIB
  5
30A
  8
0
 10
50.945493
 20
5.3
 30
0.0
 40
0.2
  1

  2
FY
 70
     1
  0
ATTRIB
  5
30B
  8
0
 10
50.945493
 20
5.1
 30
0.0
 40
0.2
  1

  2
FZ
 70
     1
  0
ATTRIB
  5
30C
  8
0
 10
50.945493
 20
4.7
 30
0.0
 40
0.2
  1

  2
MX
 70
     1
  0
ATTRIB
  5
30D
  8
0
 10
50.945493
 20
4.5
 30
0.0
 40
0.2
  1

  2
MY
 70
     1
  0
ATTRIB
  5
30E
  8
0
 10
50.945493
 20
4.3
 30
0.0
 40
0.2
  1

  2
MZ
 70
     1
  0
SEQEND
  5
30F
  8
NODES
  0
INSERT
  5
310
  8
NODES
 66
     1
  2
FE-NODE
 10
50.0
 20
3.75
 30
0.0
  0
ATTRIB
  5
311
  8
0
 10
50.0
 20
4.25
 30
0.0
 40
0.2
  1
0
  2
UX
 70
     1
  0
ATTRIB
  5
312
  8
0
 10
50.0
 20
4.05
 30
0.0
 40
0.2
  1

  2
UY
 70
     1
  0
ATTRIB
  5
313
  8
0
 10
50.0
 20
3.85
 30
0.0
 40
0.2
  1

  2
UZ
 70
     1
  0
ATTRIB
  5
314
  8
0
 10
50.0
 20
3.45
 30
0.0
 40
0.2
  1

  2
ROTX
 70
     1
  0
ATTRIB
  5
315
  8
0
 10
50.0
 20
3.25
 30
0.0
 40
0.2
  1

  2
ROTY
 70
     1
  0
ATTRIB
  5
316
  8
0
 10
50.0
 20
3.05
 30
0.0
 40
0.2
  1

  2
ROTZ
 70
     1
  0
ATTRIB
  5
317
  8
0
 10
50.0
 20
2.706213
 30
0.0
 40
0.2
  1

  2
ID
 70
     1
  0
ATTRIB
  5
318
  8
0
 10
50.945493
 20
4.25
 30
0.0
 40
0.2
  1

  2
FX
 70
     1
  0
ATTRIB
  5
319
  8
0
 10
50.945493
 20
4.05
 30
0.0
 40
0.2
  1

  2
FY
 70
     1
  0
ATTRIB
  5
31A
  8
0
 10
50.945493
 20
3.85
 30
0.0
 40
0.2
  1

  2
FZ
 70
     1
  0
ATTRIB
  5
31B
  8
0
 10
50.945493
 20
3.45
 30
0.0
 40
0.2
  1

  2
MX
 70
     1
  0
ATTRIB
  5
31C
  8
0
 10
50.945493
 20
3.25
 30
0.0
 40
0.2
  1

  2
MY
 70
     1
  0
ATTRIB
  5
31D
  8
0
 10
50.945493
 20
3.05
 30
0.0
 40
0.2
  1

  2
MZ
 70
     1
  0
SEQEND
  5
31E
  8
NODES
  0
INSERT
  5
31F
  8
NODES
 66
     1
  2
FE-NODE
 10
50.0
 20
2.5
 30
0.0
  0
ATTRIB
  5
320
  8
0
 10
50.0
 20
3.0
 30
0.0
 40
0.2
  1
0
  2
UX
 70
     1
  0
ATTRIB
  5
321
  8
0
 10
50.0
 20
2.8
 30
0.0
 40
0.2
  1

  2
UY
 70
     1
  0
ATTRIB
  5
322
  8
0
 10
50.0
 20
2.6
 30
0.0
 40
0.2
  1

  2
UZ
 70
     1
  0
ATTRIB
  5
323
  8
0
 10
50.0
 20
2.2
 30
0.0
 40
0.2
  1

  2
ROTX
 70
     1
  0
ATTRIB
  5
324
  8
0
 10
50.0
 20
2.0
 30
0.0
 40
0.2
  1

  2
ROTY
 70
     1
  0
ATTRIB
  5
325
  8
0
 10
50.0
 20
1.8
 30
0.0
 40
0.2
  1

  2
ROTZ
 70
     1
  0
ATTRIB
  5
326
  8
0
 10
50.0
 20
1.456213
 30
0.0
 40
0.2
  1

  2
ID
 70
     1
  0
ATTRIB
  5
327
  8
0
 10
50.945493
 20
3.0
 30
0.0
 40
0.2
  1

  2
FX
 70
     1
  0
ATTRIB
  5
328
  8
0
 10
50.945493
 20
2.8
 30
0.0
 40
0.2
  1

  2
FY
 70
     1
  0
ATTRIB
  5
329
  8
0
 10
50.945493
 20
2.6
 30
0.0
 40
0.2
  1

  2
FZ
 70
     1
  0
ATTRIB
  5
32A
  8
0
 10
50.945493
 20
2.2
 30
0.0
 40
0.2
  1

  2
MX
 70
     1
  0
ATTRIB
  5
32B
  8
0
 10
50.945493
 20
2.0
 30
0.0
 40
0.2
  1

  2
MY
 70
     1
  0
ATTRIB
  5
32C
  8
0
 10
50.945493
 20
1.8
 30
0.0
 40
0.2
  1

  2
MZ
 70
     1
  0
SEQEND
  5
32D
  8
NODES
  0
INSERT
  5
32E
  8
NODES
 66
     1
  2
FE-NODE
 10
50.0
 20
1.25
 30
0.0
  0
ATTRIB
  5
32F
  8
0
 10
50.0
 20
1.75
 30
0.0
 40
0.2
  1
0
  2
UX
 70
     1
  0
ATTRIB
  5
330
  8
0
 10
50.0
 20
1.55
 30
0.0
 40
0.2
  1

  2
UY
 70
     1
  0
ATTRIB
  5
331
  8
0
 10
50.0
 20
1.35
 30
0.0
 40
0.2
  1

  2
UZ
 70
     1
  0
ATTRIB
  5
332
  8
0
 10
50.0
 20
0.95
 30
0.0
 40
0.2
  1

  2
ROTX
 70
     1
  0
ATTRIB
  5
333
  8
0
 10
50.0
 20
0.75
 30
0.0
 40
0.2
  1

  2
ROTY
 70
     1
  0
ATTRIB
  5
334
  8
0
 10
50.0
 20
0.55
 30
0.0
 40
0.2
  1

  2
ROTZ
 70
     1
  0
ATTRIB
  5
335
  8
0
 10
50.0
 20
0.206213
 30
0.0
 40
0.2
  1

  2
ID
 70
     1
  0
ATTRIB
  5
336
  8
0
 10
50.945493
 20
1.75
 30
0.0
 40
0.2
  1

  2
FX
 70
     1
  0
ATTRIB
  5
337
  8
0
 10
50.945493
 20
1.55
 30
0.0
 40
0.2
  1

  2
FY
 70
     1
  0
ATTRIB
  5
338
  8
0
 10
50.945493
 20
1.35
 30
0.0
 40
0.2
  1

  2
FZ
 70
     1
  0
ATTRIB
  5
339
  8
0
 10
50.945493
 20
0.95
 30
0.0
 40
0.2
  1

  2
MX
 70
     1
  0
ATTRIB
  5
33A
  8
0
 10
50.945493
 20
0.75
 30
0.0
 40
0.2
  1

  2
MY
 70
     1
  0
ATTRIB
  5
33B
  8
0
 10
50.945493
 20
0.55
 30
0.0
 40
0.2
  1

  2
MZ
 70
     1
  0
SEQEND
  5
33C
  8
NODES
  0
INSERT
  5
33D
  8
NODES
 66
     1
  2
FE-NODE
 10
50.0
 20
0.0
 30
0.0
  0
ATTRIB
  5
33E
  8
0
 10
50.0
 20
0.5
 30
0.0
 40
0.2
  1
0
  2
UX
 70
     1
  0
ATTRIB
  5
33F
  8
0
 10
50.0
 20
0.3
 30
0.0
 40
0.2
  1

  2
UY
 70
     1
  0
ATTRIB
  5
340
  8
0
 10
50.0
 20
0.1
 30
0.0
 40
0.2
  1

  2
UZ
 70
     1
  0
ATTRIB
  5
341
  8
0
 10
50.0
 20
-0.3
 30
0.0
 40
0.2
  1

  2
ROTX
 70
     1
  0
ATTRIB
  5
342
  8
0
 10
50.0
 20
-0.5
 30
0.0
 40
0.2
  1

  2
ROTY
 70
     1
  0
ATTRIB
  5
343
  8
0
 10
50.0
 20
-0.7
 30
0.0
 40
0.2
  1

  2
ROTZ
 70
     1
  0
ATTRIB
  5
344
  8
0
 10
50.0
 20
-1.043787
 30
0.0
 40
0.2
  1

  2
ID
 70
     1
  0
ATTRIB
  5
345
  8
0
 10
50.945493
 20
0.5
 30
0.0
 40
0.2
  1

  2
FX
 70
     1
  0
ATTRIB
  5
346
  8
0
 10
50.945493
 20
0.3
 30
0.0
 40
0.2
  1

  2
FY
 70
     1
  0
ATTRIB
  5
347
  8
0
 10
50.945493
 20
0.1
 30
0.0
 40
0.2
  1

  2
FZ
 70
     1
  0
ATTRIB
  5
348
  8
0
 10
50.945493
 20
-0.3
 30
0.0
 40
0.2
  1

  2
MX
 70
     1
  0
ATTRIB
  5
349
  8
0
 10
50.945493
 20
-0.5
 30
0.0
 40
0.2
  1

  2
MY
 70
     1
  0
ATTRIB
  5
34A
  8
0
 10
50.945493
 20
-0.7
 30
0.0
 40
0.2
  1

  2
MZ
 70
     1
  0
SEQEND
  5
34B
  8
NODES
  0
INSERT
  5
34C
  8
NODES
 66
     1
  2
FE-NODE
 10
50.0
 20
0.0
 30
-2.5
  0
ATTRIB
  5
34D
  8
0
 10
50.0
 20
0.5
 30
-2.5
 40
0.2
  1
0
  2
UX
 70
     1
  0
ATTRIB
  5
34E
  8
0
 10
50.0
 20
0.3
 30
-2.5
 40
0.2
  1

  2
UY
 70
     1
  0
ATTRIB
  5
34F
  8
0
 10
50.0
 20
0.1
 30
-2.5
 40
0.2
  1

  2
UZ
 70
     1
  0
ATTRIB
  5
350
  8
0
 10
50.0
 20
-0.3
 30
-2.5
 40
0.2
  1

  2
ROTX
 70
     1
  0
ATTRIB
  5
351
  8
0
 10
50.0
 20
-0.5
 30
-2.5
 40
0.2
  1

  2
ROTY
 70
     1
  0
ATTRIB
  5
352
  8
0
 10
50.0
 20
-0.7
 30
-2.5
 40
0.2
  1

  2
ROTZ
 70
     1
  0
ATTRIB
  5
353
  8
0
 10
50.0
 20
-1.043787
 30
-2.5
 40
0.2
  1

  2
ID
 70
     1
  0
ATTRIB
  5
354
  8
0
 10
50.945493
 20
0.5
 30
-2.5
 40
0.2
  1

  2
FX
 70
     1
  0
ATTRIB
  5
355
  8
0
 10
50.945493
 20
0.3
 30
-2.5
 40
0.2
  1

  2
FY
 70
     1
  0
ATTRIB
  5
356
  8
0
 10
50.945493
 20
0.1
 30
-2.5
 40
0.2
  1

  2
FZ
 70
     1
  0
ATTRIB
  5
357
  8
0
 10
50.945493
 20
-0.3
 30
-2.5
 40
0.2
  1

  2
MX
 70
     1
  0
ATTRIB
  5
358
  8
0
 10
50.945493
 20
-0.5
 30
-2.5
 40
0.2
  1

  2
MY
 70
     1
  0
ATTRIB
  5
359
  8
0
 10
50.945493
 20
-0.7
 30
-2.5
 40
0.2
  1

  2
MZ
 70
     1
  0
SEQEND
  5
35A
  8
NODES
  0
INSERT
  5
35B
  8
NODES
 66
     1
  2
FE-NODE
 10
50.0
 20
0.0
 30
-5.0
  0
ATTRIB
  5
35C
  8
0
 10
50.0
 20
0.5
 30
-5.0
 40
0.2
  1
0
  2
UX
 70
     1
  0
ATTRIB
  5
35D
  8
0
 10
50.0
 20
0.3
 30
-5.0
 40
0.2
  1

  2
UY
 70
     1
  0
ATTRIB
  5
35E
  8
0
 10
50.0
 20
0.1
 30
-5.0
 40
0.2
  1

  2
UZ
 70
     1
  0
ATTRIB
  5
35F
  8
0
 10
50.0
 20
-0.3
 30
-5.0
 40
0.2
  1

  2
ROTX
 70
     1
  0
ATTRIB
  5
360
  8
0
 10
50.0
 20
-0.5
 30
-5.0
 40
0.2
  1

  2
ROTY
 70
     1
  0
ATTRIB
  5
361
  8
0
 10
50.0
 20
-0.7
 30
-5.0
 40
0.2
  1

  2
ROTZ
 70
     1
  0
ATTRIB
  5
362
  8
0
 10
50.0
 20
-1.043787
 30
-5.0
 40
0.2
  1

  2
ID
 70
     1
  0
ATTRIB
  5
363
  8
0
 10
50.945493
 20
0.5
 30
-5.0
 40
0.2
  1

  2
FX
 70
     1
  0
ATTRIB
  5
364
  8
0
 10
50.945493
 20
0.3
 30
-5.0
 40
0.2
  1

  2
FY
 70
     1
  0
ATTRIB
  5
365
  8
0
 10
50.945493
 20
0.1
 30
-5.0
 40
0.2
  1

  2
FZ
 70
     1
  0
ATTRIB
  5
366
  8
0
 10
50.945493
 20
-0.3
 30
-5.0
 40
0.2
  1

  2
MX
 70
     1
  0
ATTRIB
  5
367
  8
0
 10
50.945493
 20
-0.5
 30
-5.0
 40
0.2
  1

  2
MY
 70
     1
  0
ATTRIB
  5
368
  8
0
 10
50.945493
 20
-0.7
 30
-5.0
 40
0.2
  1

  2
MZ
 70
     1
  0
SEQEND
  5
369
  8
NODES
  0
INSERT
  5
36A
  8
NODES
 66
     1
  2
FE-NODE
 10
50.0
 20
0.0
 30
-7.5
  0
ATTRIB
  5
36B
  8
0
 10
50.0
 20
0.5
 30
-7.5
 40
0.2
  1
0
  2
UX
 70
     1
  0
ATTRIB
  5
36C
  8
0
 10
50.0
 20
0.3
 30
-7.5
 40
0.2
  1

  2
UY
 70
     1
  0
ATTRIB
  5
36D
  8
0
 10
50.0
 20
0.1
 30
-7.5
 40
0.2
  1

  2
UZ
 70
     1
  0
ATTRIB
  5
36E
  8
0
 10
50.0
 20
-0.3
 30
-7.5
 40
0.2
  1

  2
ROTX
 70
     1
  0
ATTRIB
  5
36F
  8
0
 10
50.0
 20
-0.5
 30
-7.5
 40
0.2
  1

  2
ROTY
 70
     1
  0
ATTRIB
  5
370
  8
0
 10
50.0
 20
-0.7
 30
-7.5
 40
0.2
  1

  2
ROTZ
 70
     1
  0
ATTRIB
  5
371
  8
0
 10
50.0
 20
-1.043787
 30
-7.5
 40
0.2
  1

  2
ID
 70
     1
  0
ATTRIB
  5
372
  8
0
 10
50.945493
 20
0.5
 30
-7.5
 40
0.2
  1

  2
FX
 70
     1
  0
ATTRIB
  5
373
  8
0
 10
50.945493
 20
0.3
 30
-7.5
 40
0.2
  1

  2
FY
 70
     1
  0
ATTRIB
  5
374
  8
0
 10
50.945493
 20
0.1
 30
-7.5
 40
0.2
  1

  2
FZ
 70
     1
  0
ATTRIB
  5
375
  8
0
 10
50.945493
 20
-0.3
 30
-7.5
 40
0.2
  1

  2
MX
 70
     1
  0
ATTRIB
  5
376
  8
0
 10
50.945493
 20
-0.5
 30
-7.5
 40
0.2
  1

  2
MY
 70
     1
  0
ATTRIB
  5
377
  8
0
 10
50.945493
 20
-0.7
 30
-7.5
 40
0.2
  1

  2
MZ
 70
     1
  0
SEQEND
  5
378
  8
NODES
  0
INSERT
  5
379
  8
NODES
 66
     1
  2
FE-NODE
 10
50.0
 20
0.0
 30
-10.0
  0
ATTRIB
  5
37A
  8
0
 10
50.0
 20
0.5
 30
-10.0
 40
0.2
  1
0
  2
UX
 70
     1
  0
ATTRIB
  5
37B
  8
0
 10
50.0
 20
0.3
 30
-10.0
 40
0.2
  1

  2
UY
 70
     1
  0
ATTRIB
  5
37C
  8
0
 10
50.0
 20
0.1
 30
-10.0
 40
0.2
  1

  2
UZ
 70
     1
  0
ATTRIB
  5
37D
  8
0
 10
50.0
 20
-0.3
 30
-10.0
 40
0.2
  1

  2
ROTX
 70
     1
  0
ATTRIB
  5
37E
  8
0
 10
50.0
 20
-0.5
 30
-10.0
 40
0.2
  1

  2
ROTY
 70
     1
  0
ATTRIB
  5
37F
  8
0
 10
50.0
 20
-0.7
 30
-10.0
 40
0.2
  1

  2
ROTZ
 70
     1
  0
ATTRIB
  5
380
  8
0
 10
50.0
 20
-1.043787
 30
-10.0
 40
0.2
  1

  2
ID
 70
     1
  0
ATTRIB
  5
381
  8
0
 10
50.945493
 20
0.5
 30
-10.0
 40
0.2
  1

  2
FX
 70
     1
  0
ATTRIB
  5
382
  8
0
 10
50.945493
 20
0.3
 30
-10.0
 40
0.2
  1

  2
FY
 70
     1
  0
ATTRIB
  5
383
  8
0
 10
50.945493
 20
0.1
 30
-10.0
 40
0.2
  1

  2
FZ
 70
     1
  0
ATTRIB
  5
384
  8
0
 10
50.945493
 20
-0.3
 30
-10.0
 40
0.2
  1

  2
MX
 70
     1
  0
ATTRIB
  5
385
  8
0
 10
50.945493
 20
-0.5
 30
-10.0
 40
0.2
  1

  2
MY
 70
     1
  0
ATTRIB
  5
386
  8
0
 10
50.945493
 20
-0.7
 30
-10.0
 40
0.2
  1

  2
MZ
 70
     1
  0
SEQEND
  5
387
  8
NODES
  0
INSERT
  5
388
  8
NODES
 66
     1
  2
FE-NODE
 10
50.0
 20
0.0
 30
-12.5
  0
ATTRIB
  5
389
  8
0
 10
50.0
 20
0.5
 30
-12.5
 40
0.2
  1
0
  2
UX
 70
     1
  0
ATTRIB
  5
38A
  8
0
 10
50.0
 20
0.3
 30
-12.5
 40
0.2
  1

  2
UY
 70
     1
  0
ATTRIB
  5
38B
  8
0
 10
50.0
 20
0.1
 30
-12.5
 40
0.2
  1

  2
UZ
 70
     1
  0
ATTRIB
  5
38C
  8
0
 10
50.0
 20
-0.3
 30
-12.5
 40
0.2
  1

  2
ROTX
 70
     1
  0
ATTRIB
  5
38D
  8
0
 10
50.0
 20
-0.5
 30
-12.5
 40
0.2
  1

  2
ROTY
 70
     1
  0
ATTRIB
  5
38E
  8
0
 10
50.0
 20
-0.7
 30
-12.5
 40
0.2
  1

  2
ROTZ
 70
     1
  0
ATTRIB
  5
38F
  8
0
 10
50.0
 20
-1.043787
 30
-12.5
 40
0.2
  1

  2
ID
 70
     1
  0
ATTRIB
  5
390
  8
0
 10
50.945493
 20
0.5
 30
-12.5
 40
0.2
  1

  2
FX
 70
     1
  0
ATTRIB
  5
391
  8
0
 10
50.945493
 20
0.3
 30
-12.5
 40
0.2
  1

  2
FY
 70
     1
  0
ATTRIB
  5
392
  8
0
 10
50.945493
 20
0.1
 30
-12.5
 40
0.2
  1

  2
FZ
 70
     1
  0
ATTRIB
  5
393
  8
0
 10
50.945493
 20
-0.3
 30
-12.5
 40
0.2
  1

  2
MX
 70
     1
  0
ATTRIB
  5
394
  8
0
 10
50.945493
 20
-0.5
 30
-12.5
 40
0.2
  1

  2
MY
 70
     1
  0
ATTRIB
  5
395
  8
0
 10
50.945493
 20
-0.7
 30
-12.5
 40
0.2
  1

  2
MZ
 70
     1
  0
SEQEND
  5
396
  8
NODES
  0
INSERT
  5
397
  8
NODES
 66
     1
  2
FE-NODE
 10
50.0
 20
0.0
 30
-15.0
  0
ATTRIB
  5
398
  8
0
 10
50.0
 20
0.5
 30
-15.0
 40
0.2
  1
0
  2
UX
 70
     1
  0
ATTRIB
  5
399
  8
0
 10
50.0
 20
0.3
 30
-15.0
 40
0.2
  1

  2
UY
 70
     1
  0
ATTRIB
  5
39A
  8
0
 10
50.0
 20
0.1
 30
-15.0
 40
0.2
  1

  2
UZ
 70
     1
  0
ATTRIB
  5
39B
  8
0
 10
50.0
 20
-0.3
 30
-15.0
 40
0.2
  1

  2
ROTX
 70
     1
  0
ATTRIB
  5
39C
  8
0
 10
50.0
 20
-0.5
 30
-15.0
 40
0.2
  1

  2
ROTY
 70
     1
  0
ATTRIB
  5
39D
  8
0
 10
50.0
 20
-0.7
 30
-15.0
 40
0.2
  1

  2
ROTZ
 70
     1
  0
ATTRIB
  5
39E
  8
0
 10
50.0
 20
-1.043787
 30
-15.0
 40
0.2
  1

  2
ID
 70
     1
  0
ATTRIB
  5
39F
  8
0
 10
50.945493
 20
0.5
 30
-15.0
 40
0.2
  1

  2
FX
 70
     1
  0
ATTRIB
  5
3A0
  8
0
 10
50.945493
 20
0.3
 30
-15.0
 40
0.2
  1

  2
FY
 70
     1
  0
ATTRIB
  5
3A1
  8
0
 10
50.945493
 20
0.1
 30
-15.0
 40
0.2
  1

  2
FZ
 70
     1
  0
ATTRIB
  5
3A2
  8
0
 10
50.945493
 20
-0.3
 30
-15.0
 40
0.2
  1

  2
MX
 70
     1
  0
ATTRIB
  5
3A3
  8
0
 10
50.945493
 20
-0.5
 30
-15.0
 40
0.2
  1

  2
MY
 70
     1
  0
ATTRIB
  5
3A4
  8
0
 10
50.945493
 20
-0.7
 30
-15.0
 40
0.2
  1

  2
MZ
 70
     1
  0
SEQEND
  5
3A5
  8
NODES
  0
INSERT
  5
3A6
  8
NODES
 66
     1
  2
FE-NODE
 10
50.0
 20
0.0
 30
-17.5
  0
ATTRIB
  5
3A7
  8
0
 10
50.0
 20
0.5
 30
-17.5
 40
0.2
  1
0
  2
UX
 70
     1
  0
ATTRIB
  5
3A8
  8
0
 10
50.0
 20
0.3
 30
-17.5
 40
0.2
  1

  2
UY
 70
     1
  0
ATTRIB
  5
3A9
  8
0
 10
50.0
 20
0.1
 30
-17.5
 40
0.2
  1

  2
UZ
 70
     1
  0
ATTRIB
  5
3AA
  8
0
 10
50.0
 20
-0.3
 30
-17.5
 40
0.2
  1

  2
ROTX
 70
     1
  0
ATTRIB
  5
3AB
  8
0
 10
50.0
 20
-0.5
 30
-17.5
 40
0.2
  1

  2
ROTY
 70
     1
  0
ATTRIB
  5
3AC
  8
0
 10
50.0
 20
-0.7
 30
-17.5
 40
0.2
  1

  2
ROTZ
 70
     1
  0
ATTRIB
  5
3AD
  8
0
 10
50.0
 20
-1.043787
 30
-17.5
 40
0.2
  1

  2
ID
 70
     1
  0
ATTRIB
  5
3AE
  8
0
 10
50.945493
 20
0.5
 30
-17.5
 40
0.2
  1

  2
FX
 70
     1
  0
ATTRIB
  5
3AF
  8
0
 10
50.945493
 20
0.3
 30
-17.5
 40
0.2
  1

  2
FY
 70
     1
  0
ATTRIB
  5
3B0
  8
0
 10
50.945493
 20
0.1
 30
-17.5
 40
0.2
  1

  2
FZ
 70
     1
  0
ATTRIB
  5
3B1
  8
0
 10
50.945493
 20
-0.3
 30
-17.5
 40
0.2
  1

  2
MX
 70
     1
  0
ATTRIB
  5
3B2
  8
0
 10
50.945493
 20
-0.5
 30
-17.5
 40
0.2
  1

  2
MY
 70
     1
  0
ATTRIB
  5
3B3
  8
0
 10
50.945493
 20
-0.7
 30
-17.5
 40
0.2
  1

  2
MZ
 70
     1
  0
SEQEND
  5
3B4
  8
NODES
  0
INSERT
  5
3B5
  8
NODES
 66
     1
  2
FE-NODE
 10
0.0
 20
10.0
 30
-20.0
  0
ATTRIB
  5
3B6
  8
0
 10
0.0
 20
10.5
 30
-20.0
 40
0.2
  1
1
  2
UX
 70
     1
  0
ATTRIB
  5
3B7
  8
0
 10
0.0
 20
10.3
 30
-20.0
 40
0.2
  1
2
  2
UY
 70
     1
  0
ATTRIB
  5
3B8
  8
0
 10
0.0
 20
10.1
 30
-20.0
 40
0.2
  1
3
  2
UZ
 70
     1
  0
ATTRIB
  5
3B9
  8
0
 10
0.0
 20
9.7
 30
-20.0
 40
0.2
  1
4
  2
ROTX
 70
     1
  0
ATTRIB
  5
3BA
  8
0
 10
0.0
 20
9.5
 30
-20.0
 40
0.2
  1
5
  2
ROTY
 70
     1
  0
ATTRIB
  5
3BB
  8
0
 10
0.0
 20
9.3
 30
-20.0
 40
0.2
  1
6
  2
ROTZ
 70
     1
  0
ATTRIB
  5
3BC
  8
0
 10
0.0
 20
8.956213
 30
-20.0
 40
0.2
  1

  2
ID
 70
     1
  0
ATTRIB
  5
3BD
  8
0
 10
0.945493
 20
10.5
 30
-20.0
 40
0.2
  1
7
  2
FX
 70
     1
  0
ATTRIB
  5
3BE
  8
0
 10
0.945493
 20
10.3
 30
-20.0
 40
0.2
  1
8
  2
FY
 70
     1
  0
ATTRIB
  5
3BF
  8
0
 10
0.945493
 20
10.1
 30
-20.0
 40
0.2
  1
9
  2
FZ
 70
     1
  0
ATTRIB
  5
3C0
  8
0
 10
0.945493
 20
9.7
 30
-20.0
 40
0.2
  1
10
  2
MX
 70
     1
  0
ATTRIB
  5
3C1
  8
0
 10
0.945493
 20
9.5
 30
-20.0
 40
0.2
  1
11
  2
MY
 70
     1
  0
ATTRIB
  5
3C2
  8
0
 10
0.945493
 20
9.3
 30
-20.0
 40
0.2
  1
12
  2
MZ
 70
     1
  0
SEQEND
  5
3C3
  8
NODES
  0
INSERT
  5
3C4
  8
NODES
 66
     1
  2
FE-NODE
 10
0.0
 20
8.75
 30
-20.0
  0
ATTRIB
  5
3C5
  8
0
 10
0.0
 20
9.25
 30
-20.0
 40
0.2
  1

  2
UX
 70
     1
  0
ATTRIB
  5
3C6
  8
0
 10
0.0
 20
9.05
 30
-20.0
 40
0.2
  1

  2
UY
 70
     1
  0
ATTRIB
  5
3C7
  8
0
 10
0.0
 20
8.85
 30
-20.0
 40
0.2
  1

  2
UZ
 70
     1
  0
ATTRIB
  5
3C8
  8
0
 10
0.0
 20
8.45
 30
-20.0
 40
0.2
  1

  2
ROTX
 70
     1
  0
ATTRIB
  5
3C9
  8
0
 10
0.0
 20
8.25
 30
-20.0
 40
0.2
  1

  2
ROTY
 70
     1
  0
ATTRIB
  5
3CA
  8
0
 10
0.0
 20
8.05
 30
-20.0
 40
0.2
  1

  2
ROTZ
 70
     1
  0
ATTRIB
  5
3CB
  8
0
 10
0.0
 20
7.706213
 30
-20.0
 40
0.2
  1

  2
ID
 70
     1
  0
ATTRIB
  5
3CC
  8
0
 10
0.945493
 20
9.25
 30
-20.0
 40
0.2
  1
-1000
  2
FX
 70
     1
  0
ATTRIB
  5
3CD
  8
0
 10
0.945493
 20
9.05
 30
-20.0
 40
0.2
  1

  2
FY
 70
     1
  0
ATTRIB
  5
3CE
  8
0
 10
0.945493
 20
8.85
 30
-20.0
 40
0.2
  1

  2
FZ
 70
     1
  0
ATTRIB
  5
3CF
  8
0
 10
0.945493
 20
8.45
 30
-20.0
 40
0.2
  1

  2
MX
 70
     1
  0
ATTRIB
  5
3D0
  8
0
 10
0.945493
 20
8.25
 30
-20.0
 40
0.2
  1

  2
MY
 70
     1
  0
ATTRIB
  5
3D1
  8
0
 10
0.945493
 20
8.05
 30
-20.0
 40
0.2
  1

  2
MZ
 70
     1
  0
SEQEND
  5
3D2
  8
NODES
  0
INSERT
  5
3D3
  8
NODES
 66
     1
  2
FE-NODE
 10
0.0
 20
7.5
 30
-20.0
  0
ATTRIB
  5
3D4
  8
0
 10
0.0
 20
8.0
 30
-20.0
 40
0.2
  1

  2
UX
 70
     1
  0
ATTRIB
  5
3D5
  8
0
 10
0.0
 20
7.8
 30
-20.0
 40
0.2
  1

  2
UY
 70
     1
  0
ATTRIB
  5
3D6
  8
0
 10
0.0
 20
7.6
 30
-20.0
 40
0.2
  1

  2
UZ
 70
     1
  0
ATTRIB
  5
3D7
  8
0
 10
0.0
 20
7.2
 30
-20.0
 40
0.2
  1

  2
ROTX
 70
     1
  0
ATTRIB
  5
3D8
  8
0
 10
0.0
 20
7.0
 30
-20.0
 40
0.2
  1

  2
ROTY
 70
     1
  0
ATTRIB
  5
3D9
  8
0
 10
0.0
 20
6.8
 30
-20.0
 40
0.2
  1

  2
ROTZ
 70
     1
  0
ATTRIB
  5
3DA
  8
0
 10
0.0
 20
6.456213
 30
-20.0
 40
0.2
  1

  2
ID
 70
     1
  0
ATTRIB
  5
3DB
  8
0
 10
0.945493
 20
8.0
 30
-20.0
 40
0.2
  1
-1000
  2
FX
 70
     1
  0
ATTRIB
  5
3DC
  8
0
 10
0.945493
 20
7.8
 30
-20.0
 40
0.2
  1

  2
FY
 70
     1
  0
ATTRIB
  5
3DD
  8
0
 10
0.945493
 20
7.6
 30
-20.0
 40
0.2
  1

  2
FZ
 70
     1
  0
ATTRIB
  5
3DE
  8
0
 10
0.945493
 20
7.2
 30
-20.0
 40
0.2
  1

  2
MX
 70
     1
  0
ATTRIB
  5
3DF
  8
0
 10
0.945493
 20
7.0
 30
-20.0
 40
0.2
  1

  2
MY
 70
     1
  0
ATTRIB
  5
3E0
  8
0
 10
0.945493
 20
6.8
 30
-20.0
 40
0.2
  1

  2
MZ
 70
     1
  0
SEQEND
  5
3E1
  8
NODES
  0
INSERT
  5
3E2
  8
NODES
 66
     1
  2
FE-NODE
 10
0.0
 20
6.25
 30
-20.0
  0
ATTRIB
  5
3E3
  8
0
 10
0.0
 20
6.75
 30
-20.0
 40
0.2
  1

  2
UX
 70
     1
  0
ATTRIB
  5
3E4
  8
0
 10
0.0
 20
6.55
 30
-20.0
 40
0.2
  1

  2
UY
 70
     1
  0
ATTRIB
  5
3E5
  8
0
 10
0.0
 20
6.35
 30
-20.0
 40
0.2
  1

  2
UZ
 70
     1
  0
ATTRIB
  5
3E6
  8
0
 10
0.0
 20
5.95
 30
-20.0
 40
0.2
  1

  2
ROTX
 70
     1
  0
ATTRIB
  5
3E7
  8
0
 10
0.0
 20
5.75
 30
-20.0
 40
0.2
  1

  2
ROTY
 70
     1
  0
ATTRIB
  5
3E8
  8
0
 10
0.0
 20
5.55
 30
-20.0
 40
0.2
  1

  2
ROTZ
 70
     1
  0
ATTRIB
  5
3E9
  8
0
 10
0.0
 20
5.206213
 30
-20.0
 40
0.2
  1

  2
ID
 70
     1
  0
ATTRIB
  5
3EA
  8
0
 10
0.945493
 20
6.75
 30
-20.0
 40
0.2
  1
-1000
  2
FX
 70
     1
  0
ATTRIB
  5
3EB
  8
0
 10
0.945493
 20
6.55
 30
-20.0
 40
0.2
  1

  2
FY
 70
     1
  0
ATTRIB
  5
3EC
  8
0
 10
0.945493
 20
6.35
 30
-20.0
 40
0.2
  1

  2
FZ
 70
     1
  0
ATTRIB
  5
3ED
  8
0
 10
0.945493
 20
5.95
 30
-20.0
 40
0.2
  1

  2
MX
 70
     1
  0
ATTRIB
  5
3EE
  8
0
 10
0.945493
 20
5.75
 30
-20.0
 40
0.2
  1

  2
MY
 70
     1
  0
ATTRIB
  5
3EF
  8
0
 10
0.945493
 20
5.55
 30
-20.0
 40
0.2
  1

  2
MZ
 70
     1
  0
SEQEND
  5
3F0
  8
NODES
  0
INSERT
  5
3F1
  8
NODES
 66
     1
  2
FE-NODE
 10
0.0
 20
5.0
 30
-20.0
  0
ATTRIB
  5
3F2
  8
0
 10
0.0
 20
5.5
 30
-20.0
 40
0.2
  1

  2
UX
 70
     1
  0
ATTRIB
  5
3F3
  8
0
 10
0.0
 20
5.3
 30
-20.0
 40
0.2
  1

  2
UY
 70
     1
  0
ATTRIB
  5
3F4
  8
0
 10
0.0
 20
5.1
 30
-20.0
 40
0.2
  1

  2
UZ
 70
     1
  0
ATTRIB
  5
3F5
  8
0
 10
0.0
 20
4.7
 30
-20.0
 40
0.2
  1

  2
ROTX
 70
     1
  0
ATTRIB
  5
3F6
  8
0
 10
0.0
 20
4.5
 30
-20.0
 40
0.2
  1

  2
ROTY
 70
     1
  0
ATTRIB
  5
3F7
  8
0
 10
0.0
 20
4.3
 30
-20.0
 40
0.2
  1

  2
ROTZ
 70
     1
  0
ATTRIB
  5
3F8
  8
0
 10
0.0
 20
3.956213
 30
-20.0
 40
0.2
  1

  2
ID
 70
     1
  0
ATTRIB
  5
3F9
  8
0
 10
0.945493
 20
5.5
 30
-20.0
 40
0.2
  1
-1000
  2
FX
 70
     1
  0
ATTRIB
  5
3FA
  8
0
 10
0.945493
 20
5.3
 30
-20.0
 40
0.2
  1

  2
FY
 70
     1
  0
ATTRIB
  5
3FB
  8
0
 10
0.945493
 20
5.1
 30
-20.0
 40
0.2
  1

  2
FZ
 70
     1
  0
ATTRIB
  5
3FC
  8
0
 10
0.945493
 20
4.7
 30
-20.0
 40
0.2
  1

  2
MX
 70
     1
  0
ATTRIB
  5
3FD
  8
0
 10
0.945493
 20
4.5
 30
-20.0
 40
0.2
  1

  2
MY
 70
     1
  0
ATTRIB
  5
3FE
  8
0
 10
0.945493
 20
4.3
 30
-20.0
 40
0.2
  1

  2
MZ
 70
     1
  0
SEQEND
  5
3FF
  8
NODES
  0
INSERT
  5
400
  8
NODES
 66
     1
  2
FE-NODE
 10
0.0
 20
3.75
 30
-20.0
  0
ATTRIB
  5
401
  8
0
 10
0.0
 20
4.25
 30
-20.0
 40
0.2
  1

  2
UX
 70
     1
  0
ATTRIB
  5
402
  8
0
 10
0.0
 20
4.05
 30
-20.0
 40
0.2
  1

  2
UY
 70
     1
  0
ATTRIB
  5
403
  8
0
 10
0.0
 20
3.85
 30
-20.0
 40
0.2
  1

  2
UZ
 70
     1
  0
ATTRIB
  5
404
  8
0
 10
0.0
 20
3.45
 30
-20.0
 40
0.2
  1

  2
ROTX
 70
     1
  0
ATTRIB
  5
405
  8
0
 10
0.0
 20
3.25
 30
-20.0
 40
0.2
  1

  2
ROTY
 70
     1
  0
ATTRIB
  5
406
  8
0
 10
0.0
 20
3.05
 30
-20.0
 40
0.2
  1

  2
ROTZ
 70
     1
  0
ATTRIB
  5
407
  8
0
 10
0.0
 20
2.706213
 30
-20.0
 40
0.2
  1

  2
ID
 70
     1
  0
ATTRIB
  5
408
  8
0
 10
0.945493
 20
4.25
 30
-20.0
 40
0.2
  1
-1000
  2
FX
 70
     1
  0
ATTRIB
  5
409
  8
0
 10
0.945493
 20
4.05
 30
-20.0
 40
0.2
  1

  2
FY
 70
     1
  0
ATTRIB
  5
40A
  8
0
 10
0.945493
 20
3.85
 30
-20.0
 40
0.2
  1

  2
FZ
 70
     1
  0
ATTRIB
  5
40B
  8
0
 10
0.945493
 20
3.45
 30
-20.0
 40
0.2
  1

  2
MX
 70
     1
  0
ATTRIB
  5
40C
  8
0
 10
0.945493
 20
3.25
 30
-20.0
 40
0.2
  1

  2
MY
 70
     1
  0
ATTRIB
  5
40D
  8
0
 10
0.945493
 20
3.05
 30
-20.0
 40
0.2
  1

  2
MZ
 70
     1
  0
SEQEND
  5
40E
  8
NODES
  0
INSERT
  5
40F
  8
NODES
 66
     1
  2
FE-NODE
 10
0.0
 20
2.5
 30
-20.0
  0
ATTRIB
  5
410
  8
0
 10
0.0
 20
3.0
 30
-20.0
 40
0.2
  1

  2
UX
 70
     1
  0
ATTRIB
  5
411
  8
0
 10
0.0
 20
2.8
 30
-20.0
 40
0.2
  1

  2
UY
 70
     1
  0
ATTRIB
  5
412
  8
0
 10
0.0
 20
2.6
 30
-20.0
 40
0.2
  1

  2
UZ
 70
     1
  0
ATTRIB
  5
413
  8
0
 10
0.0
 20
2.2
 30
-20.0
 40
0.2
  1

  2
ROTX
 70
     1
  0
ATTRIB
  5
414
  8
0
 10
0.0
 20
2.0
 30
-20.0
 40
0.2
  1

  2
ROTY
 70
     1
  0
ATTRIB
  5
415
  8
0
 10
0.0
 20
1.8
 30
-20.0
 40
0.2
  1

  2
ROTZ
 70
     1
  0
ATTRIB
  5
416
  8
0
 10
0.0
 20
1.456213
 30
-20.0
 40
0.2
  1

  2
ID
 70
     1
  0
ATTRIB
  5
417
  8
0
 10
0.945493
 20
3.0
 30
-20.0
 40
0.2
  1
-1000
  2
FX
 70
     1
  0
ATTRIB
  5
418
  8
0
 10
0.945493
 20
2.8
 30
-20.0
 40
0.2
  1

  2
FY
 70
     1
  0
ATTRIB
  5
419
  8
0
 10
0.945493
 20
2.6
 30
-20.0
 40
0.2
  1

  2
FZ
 70
     1
  0
ATTRIB
  5
41A
  8
0
 10
0.945493
 20
2.2
 30
-20.0
 40
0.2
  1

  2
MX
 70
     1
  0
ATTRIB
  5
41B
  8
0
 10
0.945493
 20
2.0
 30
-20.0
 40
0.2
  1

  2
MY
 70
     1
  0
ATTRIB
  5
41C
  8
0
 10
0.945493
 20
1.8
 30
-20.0
 40
0.2
  1

  2
MZ
 70
     1
  0
SEQEND
  5
41D
  8
NODES
  0
INSERT
  5
41E
  8
NODES
 66
     1
  2
FE-NODE
 10
0.0
 20
1.25
 30
-20.0
  0
ATTRIB
  5
41F
  8
0
 10
0.0
 20
1.75
 30
-20.0
 40
0.2
  1

  2
UX
 70
     1
  0
ATTRIB
  5
420
  8
0
 10
0.0
 20
1.55
 30
-20.0
 40
0.2
  1

  2
UY
 70
     1
  0
ATTRIB
  5
421
  8
0
 10
0.0
 20
1.35
 30
-20.0
 40
0.2
  1

  2
UZ
 70
     1
  0
ATTRIB
  5
422
  8
0
 10
0.0
 20
0.95
 30
-20.0
 40
0.2
  1

  2
ROTX
 70
     1
  0
ATTRIB
  5
423
  8
0
 10
0.0
 20
0.75
 30
-20.0
 40
0.2
  1

  2
ROTY
 70
     1
  0
ATTRIB
  5
424
  8
0
 10
0.0
 20
0.55
 30
-20.0
 40
0.2
  1

  2
ROTZ
 70
     1
  0
ATTRIB
  5
425
  8
0
 10
0.0
 20
0.206213
 30
-20.0
 40
0.2
  1

  2
ID
 70
     1
  0
ATTRIB
  5
426
  8
0
 10
0.945493
 20
1.75
 30
-20.0
 40
0.2
  1
-1000
  2
FX
 70
     1
  0
ATTRIB
  5
427
  8
0
 10
0.945493
 20
1.55
 30
-20.0
 40
0.2
  1

  2
FY
 70
     1
  0
ATTRIB
  5
428
  8
0
 10
0.945493
 20
1.35
 30
-20.0
 40
0.2
  1

  2
FZ
 70
     1
  0
ATTRIB
  5
429
  8
0
 10
0.945493
 20
0.95
 30
-20.0
 40
0.2
  1

  2
MX
 70
     1
  0
ATTRIB
  5
42A
  8
0
 10
0.945493
 20
0.75
 30
-20.0
 40
0.2
  1

  2
MY
 70
     1
  0
ATTRIB
  5
42B
  8
0
 10
0.945493
 20
0.55
 30
-20.0
 40
0.2
  1

  2
MZ
 70
     1
  0
SEQEND
  5
42C
  8
NODES
  0
INSERT
  5
42D
  8
NODES
 66
     1
  2
FE-NODE
 10
0.0
 20
0.0
 30
-20.0
  0
ATTRIB
  5
42E
  8
0
 10
0.0
 20
0.5
 30
-20.0
 40
0.2
  1

  2
UX
 70
     1
  0
ATTRIB
  5
42F
  8
0
 10
0.0
 20
0.3
 30
-20.0
 40
0.2
  1

  2
UY
 70
     1
  0
ATTRIB
  5
430
  8
0
 10
0.0
 20
0.1
 30
-20.0
 40
0.2
  1

  2
UZ
 70
     1
  0
ATTRIB
  5
431
  8
0
 10
0.0
 20
-0.3
 30
-20.0
 40
0.2
  1

  2
ROTX
 70
     1
  0
ATTRIB
  5
432
  8
0
 10
0.0
 20
-0.5
 30
-20.0
 40
0.2
  1

  2
ROTY
 70
     1
  0
ATTRIB
  5
433
  8
0
 10
0.0
 20
-0.7
 30
-20.0
 40
0.2
  1

  2
ROTZ
 70
     1
  0
ATTRIB
  5
434
  8
0
 10
0.0
 20
-1.043787
 30
-20.0
 40
0.2
  1

  2
ID
 70
     1
  0
ATTRIB
  5
435
  8
0
 10
0.945493
 20
0.5
 30
-20.0
 40
0.2
  1
-1000
  2
FX
 70
     1
  0
ATTRIB
  5
436
  8
0
 10
0.945493
 20
0.3
 30
-20.0
 40
0.2
  1

  2
FY
 70
     1
  0
ATTRIB
  5
437
  8
0
 10
0.945493
 20
0.1
 30
-20.0
 40
0.2
  1

  2
FZ
 70
     1
  0
ATTRIB
  5
438
  8
0
 10
0.945493
 20
-0.3
 30
-20.0
 40
0.2
  1

  2
MX
 70
     1
  0
ATTRIB
  5
439
  8
0
 10
0.945493
 20
-0.5
 30
-20.0
 40
0.2
  1

  2
MY
 70
     1
  0
ATTRIB
  5
43A
  8
0
 10
0.945493
 20
-0.7
 30
-20.0
 40
0.2
  1

  2
MZ
 70
     1
  0
SEQEND
  5
43B
  8
NODES
  0
INSERT
  5
43C
  8
NODES
 66
     1
  2
FE-NODE
 10
0.0
 20
0.0
 30
-17.5
  0
ATTRIB
  5
43D
  8
0
 10
0.0
 20
0.5
 30
-17.5
 40
0.2
  1

  2
UX
 70
     1
  0
ATTRIB
  5
43E
  8
0
 10
0.0
 20
0.3
 30
-17.5
 40
0.2
  1

  2
UY
 70
     1
  0
ATTRIB
  5
43F
  8
0
 10
0.0
 20
0.1
 30
-17.5
 40
0.2
  1

  2
UZ
 70
     1
  0
ATTRIB
  5
440
  8
0
 10
0.0
 20
-0.3
 30
-17.5
 40
0.2
  1

  2
ROTX
 70
     1
  0
ATTRIB
  5
441
  8
0
 10
0.0
 20
-0.5
 30
-17.5
 40
0.2
  1

  2
ROTY
 70
     1
  0
ATTRIB
  5
442
  8
0
 10
0.0
 20
-0.7
 30
-17.5
 40
0.2
  1

  2
ROTZ
 70
     1
  0
ATTRIB
  5
443
  8
0
 10
0.0
 20
-1.043787
 30
-17.5
 40
0.2
  1

  2
ID
 70
     1
  0
ATTRIB
  5
444
  8
0
 10
0.945493
 20
0.5
 30
-17.5
 40
0.2
  1
-1000
  2
FX
 70
     1
  0
ATTRIB
  5
445
  8
0
 10
0.945493
 20
0.3
 30
-17.5
 40
0.2
  1

  2
FY
 70
     1
  0
ATTRIB
  5
446
  8
0
 10
0.945493
 20
0.1
 30
-17.5
 40
0.2
  1

  2
FZ
 70
     1
  0
ATTRIB
  5
447
  8
0
 10
0.945493
 20
-0.3
 30
-17.5
 40
0.2
  1

  2
MX
 70
     1
  0
ATTRIB
  5
448
  8
0
 10
0.945493
 20
-0.5
 30
-17.5
 40
0.2
  1

  2
MY
 70
     1
  0
ATTRIB
  5
449
  8
0
 10
0.945493
 20
-0.7
 30
-17.5
 40
0.2
  1

  2
MZ
 70
     1
  0
SEQEND
  5
44A
  8
NODES
  0
INSERT
  5
44B
  8
NODES
 66
     1
  2
FE-NODE
 10
0.0
 20
0.0
 30
-15.0
  0
ATTRIB
  5
44C
  8
0
 10
0.0
 20
0.5
 30
-15.0
 40
0.2
  1

  2
UX
 70
     1
  0
ATTRIB
  5
44D
  8
0
 10
0.0
 20
0.3
 30
-15.0
 40
0.2
  1

  2
UY
 70
     1
  0
ATTRIB
  5
44E
  8
0
 10
0.0
 20
0.1
 30
-15.0
 40
0.2
  1

  2
UZ
 70
     1
  0
ATTRIB
  5
44F
  8
0
 10
0.0
 20
-0.3
 30
-15.0
 40
0.2
  1

  2
ROTX
 70
     1
  0
ATTRIB
  5
450
  8
0
 10
0.0
 20
-0.5
 30
-15.0
 40
0.2
  1

  2
ROTY
 70
     1
  0
ATTRIB
  5
451
  8
0
 10
0.0
 20
-0.7
 30
-15.0
 40
0.2
  1

  2
ROTZ
 70
     1
  0
ATTRIB
  5
452
  8
0
 10
0.0
 20
-1.043787
 30
-15.0
 40
0.2
  1

  2
ID
 70
     1
  0
ATTRIB
  5
453
  8
0
 10
0.945493
 20
0.5
 30
-15.0
 40
0.2
  1
-1000
  2
FX
 70
     1
  0
ATTRIB
  5
454
  8
0
 10
0.945493
 20
0.3
 30
-15.0
 40
0.2
  1

  2
FY
 70
     1
  0
ATTRIB
  5
455
  8
0
 10
0.945493
 20
0.1
 30
-15.0
 40
0.2
  1

  2
FZ
 70
     1
  0
ATTRIB
  5
456
  8
0
 10
0.945493
 20
-0.3
 30
-15.0
 40
0.2
  1

  2
MX
 70
     1
  0
ATTRIB
  5
457
  8
0
 10
0.945493
 20
-0.5
 30
-15.0
 40
0.2
  1

  2
MY
 70
     1
  0
ATTRIB
  5
458
  8
0
 10
0.945493
 20
-0.7
 30
-15.0
 40
0.2
  1

  2
MZ
 70
     1
  0
SEQEND
  5
459
  8
NODES
  0
INSERT
  5
45A
  8
NODES
 66
     1
  2
FE-NODE
 10
0.0
 20
0.0
 30
-12.5
  0
ATTRIB
  5
45B
  8
0
 10
0.0
 20
0.5
 30
-12.5
 40
0.2
  1

  2
UX
 70
     1
  0
ATTRIB
  5
45C
  8
0
 10
0.0
 20
0.3
 30
-12.5
 40
0.2
  1

  2
UY
 70
     1
  0
ATTRIB
  5
45D
  8
0
 10
0.0
 20
0.1
 30
-12.5
 40
0.2
  1

  2
UZ
 70
     1
  0
ATTRIB
  5
45E
  8
0
 10
0.0
 20
-0.3
 30
-12.5
 40
0.2
  1

  2
ROTX
 70
     1
  0
ATTRIB
  5
45F
  8
0
 10
0.0
 20
-0.5
 30
-12.5
 40
0.2
  1

  2
ROTY
 70
     1
  0
ATTRIB
  5
460
  8
0
 10
0.0
 20
-0.7
 30
-12.5
 40
0.2
  1

  2
ROTZ
 70
     1
  0
ATTRIB
  5
461
  8
0
 10
0.0
 20
-1.043787
 30
-12.5
 40
0.2
  1

  2
ID
 70
     1
  0
ATTRIB
  5
462
  8
0
 10
0.945493
 20
0.5
 30
-12.5
 40
0.2
  1
-1000
  2
FX
 70
     1
  0
ATTRIB
  5
463
  8
0
 10
0.945493
 20
0.3
 30
-12.5
 40
0.2
  1

  2
FY
 70
     1
  0
ATTRIB
  5
464
  8
0
 10
0.945493
 20
0.1
 30
-12.5
 40
0.2
  1

  2
FZ
 70
     1
  0
ATTRIB
  5
465
  8
0
 10
0.945493
 20
-0.3
 30
-12.5
 40
0.2
  1

  2
MX
 70
     1
  0
ATTRIB
  5
466
  8
0
 10
0.945493
 20
-0.5
 30
-12.5
 40
0.2
  1

  2
MY
 70
     1
  0
ATTRIB
  5
467
  8
0
 10
0.945493
 20
-0.7
 30
-12.5
 40
0.2
  1

  2
MZ
 70
     1
  0
SEQEND
  5
468
  8
NODES
  0
INSERT
  5
469
  8
NODES
 66
     1
  2
FE-NODE
 10
0.0
 20
0.0
 30
-10.0
  0
ATTRIB
  5
46A
  8
0
 10
0.0
 20
0.5
 30
-10.0
 40
0.2
  1

  2
UX
 70
     1
  0
ATTRIB
  5
46B
  8
0
 10
0.0
 20
0.3
 30
-10.0
 40
0.2
  1

  2
UY
 70
     1
  0
ATTRIB
  5
46C
  8
0
 10
0.0
 20
0.1
 30
-10.0
 40
0.2
  1

  2
UZ
 70
     1
  0
ATTRIB
  5
46D
  8
0
 10
0.0
 20
-0.3
 30
-10.0
 40
0.2
  1

  2
ROTX
 70
     1
  0
ATTRIB
  5
46E
  8
0
 10
0.0
 20
-0.5
 30
-10.0
 40
0.2
  1

  2
ROTY
 70
     1
  0
ATTRIB
  5
46F
  8
0
 10
0.0
 20
-0.7
 30
-10.0
 40
0.2
  1

  2
ROTZ
 70
     1
  0
ATTRIB
  5
470
  8
0
 10
0.0
 20
-1.043787
 30
-10.0
 40
0.2
  1

  2
ID
 70
     1
  0
ATTRIB
  5
471
  8
0
 10
0.945493
 20
0.5
 30
-10.0
 40
0.2
  1
-1000
  2
FX
 70
     1
  0
ATTRIB
  5
472
  8
0
 10
0.945493
 20
0.3
 30
-10.0
 40
0.2
  1

  2
FY
 70
     1
  0
ATTRIB
  5
473
  8
0
 10
0.945493
 20
0.1
 30
-10.0
 40
0.2
  1

  2
FZ
 70
     1
  0
ATTRIB
  5
474
  8
0
 10
0.945493
 20
-0.3
 30
-10.0
 40
0.2
  1

  2
MX
 70
     1
  0
ATTRIB
  5
475
  8
0
 10
0.945493
 20
-0.5
 30
-10.0
 40
0.2
  1

  2
MY
 70
     1
  0
ATTRIB
  5
476
  8
0
 10
0.945493
 20
-0.7
 30
-10.0
 40
0.2
  1

  2
MZ
 70
     1
  0
SEQEND
  5
477
  8
NODES
  0
INSERT
  5
478
  8
NODES
 66
     1
  2
FE-NODE
 10
0.0
 20
0.0
 30
-7.5
  0
ATTRIB
  5
479
  8
0
 10
0.0
 20
0.5
 30
-7.5
 40
0.2
  1

  2
UX
 70
     1
  0
ATTRIB
  5
47A
  8
0
 10
0.0
 20
0.3
 30
-7.5
 40
0.2
  1

  2
UY
 70
     1
  0
ATTRIB
  5
47B
  8
0
 10
0.0
 20
0.1
 30
-7.5
 40
0.2
  1

  2
UZ
 70
     1
  0
ATTRIB
  5
47C
  8
0
 10
0.0
 20
-0.3
 30
-7.5
 40
0.2
  1

  2
ROTX
 70
     1
  0
ATTRIB
  5
47D
  8
0
 10
0.0
 20
-0.5
 30
-7.5
 40
0.2
  1

  2
ROTY
 70
     1
  0
ATTRIB
  5
47E
  8
0
 10
0.0
 20
-0.7
 30
-7.5
 40
0.2
  1

  2
ROTZ
 70
     1
  0
ATTRIB
  5
47F
  8
0
 10
0.0
 20
-1.043787
 30
-7.5
 40
0.2
  1

  2
ID
 70
     1
  0
ATTRIB
  5
480
  8
0
 10
0.945493
 20
0.5
 30
-7.5
 40
0.2
  1
-1000
  2
FX
 70
     1
  0
ATTRIB
  5
481
  8
0
 10
0.945493
 20
0.3
 30
-7.5
 40
0.2
  1

  2
FY
 70
     1
  0
ATTRIB
  5
482
  8
0
 10
0.945493
 20
0.1
 30
-7.5
 40
0.2
  1

  2
FZ
 70
     1
  0
ATTRIB
  5
483
  8
0
 10
0.945493
 20
-0.3
 30
-7.5
 40
0.2
  1

  2
MX
 70
     1
  0
ATTRIB
  5
484
  8
0
 10
0.945493
 20
-0.5
 30
-7.5
 40
0.2
  1

  2
MY
 70
     1
  0
ATTRIB
  5
485
  8
0
 10
0.945493
 20
-0.7
 30
-7.5
 40
0.2
  1

  2
MZ
 70
     1
  0
SEQEND
  5
486
  8
NODES
  0
INSERT
  5
487
  8
NODES
 66
     1
  2
FE-NODE
 10
0.0
 20
0.0
 30
-5.0
  0
ATTRIB
  5
488
  8
0
 10
0.0
 20
0.5
 30
-5.0
 40
0.2
  1

  2
UX
 70
     1
  0
ATTRIB
  5
489
  8
0
 10
0.0
 20
0.3
 30
-5.0
 40
0.2
  1

  2
UY
 70
     1
  0
ATTRIB
  5
48A
  8
0
 10
0.0
 20
0.1
 30
-5.0
 40
0.2
  1

  2
UZ
 70
     1
  0
ATTRIB
  5
48B
  8
0
 10
0.0
 20
-0.3
 30
-5.0
 40
0.2
  1

  2
ROTX
 70
     1
  0
ATTRIB
  5
48C
  8
0
 10
0.0
 20
-0.5
 30
-5.0
 40
0.2
  1

  2
ROTY
 70
     1
  0
ATTRIB
  5
48D
  8
0
 10
0.0
 20
-0.7
 30
-5.0
 40
0.2
  1

  2
ROTZ
 70
     1
  0
ATTRIB
  5
48E
  8
0
 10
0.0
 20
-1.043787
 30
-5.0
 40
0.2
  1

  2
ID
 70
     1
  0
ATTRIB
  5
48F
  8
0
 10
0.945493
 20
0.5
 30
-5.0
 40
0.2
  1
-1000
  2
FX
 70
     1
  0
ATTRIB
  5
490
  8
0
 10
0.945493
 20
0.3
 30
-5.0
 40
0.2
  1

  2
FY
 70
     1
  0
ATTRIB
  5
491
  8
0
 10
0.945493
 20
0.1
 30
-5.0
 40
0.2
  1

  2
FZ
 70
     1
  0
ATTRIB
  5
492
  8
0
 10
0.945493
 20
-0.3
 30
-5.0
 40
0.2
  1

  2
MX
 70
     1
  0
ATTRIB
  5
493
  8
0
 10
0.945493
 20
-0.5
 30
-5.0
 40
0.2
  1

  2
MY
 70
     1
  0
ATTRIB
  5
494
  8
0
 10
0.945493
 20
-0.7
 30
-5.0
 40
0.2
  1

  2
MZ
 70
     1
  0
SEQEND
  5
495
  8
NODES
  0
INSERT
  5
496
  8
NODES
 66
     1
  2
FE-NODE
 10
0.0
 20
0.0
 30
-2.5
  0
ATTRIB
  5
497
  8
0
 10
0.0
 20
0.5
 30
-2.5
 40
0.2
  1

  2
UX
 70
     1
  0
ATTRIB
  5
498
  8
0
 10
0.0
 20
0.3
 30
-2.5
 40
0.2
  1

  2
UY
 70
     1
  0
ATTRIB
  5
499
  8
0
 10
0.0
 20
0.1
 30
-2.5
 40
0.2
  1

  2
UZ
 70
     1
  0
ATTRIB
  5
49A
  8
0
 10
0.0
 20
-0.3
 30
-2.5
 40
0.2
  1

  2
ROTX
 70
     1
  0
ATTRIB
  5
49B
  8
0
 10
0.0
 20
-0.5
 30
-2.5
 40
0.2
  1

  2
ROTY
 70
     1
  0
ATTRIB
  5
49C
  8
0
 10
0.0
 20
-0.7
 30
-2.5
 40
0.2
  1

  2
ROTZ
 70
     1
  0
ATTRIB
  5
49D
  8
0
 10
0.0
 20
-1.043787
 30
-2.5
 40
0.2
  1

  2
ID
 70
     1
  0
ATTRIB
  5
49E
  8
0
 10
0.945493
 20
0.5
 30
-2.5
 40
0.2
  1
-1000
  2
FX
 70
     1
  0
ATTRIB
  5
49F
  8
0
 10
0.945493
 20
0.3
 30
-2.5
 40
0.2
  1

  2
FY
 70
     1
  0
ATTRIB
  5
4A0
  8
0
 10
0.945493
 20
0.1
 30
-2.5
 40
0.2
  1

  2
FZ
 70
     1
  0
ATTRIB
  5
4A1
  8
0
 10
0.945493
 20
-0.3
 30
-2.5
 40
0.2
  1

  2
MX
 70
     1
  0
ATTRIB
  5
4A2
  8
0
 10
0.945493
 20
-0.5
 30
-2.5
 40
0.2
  1

  2
MY
 70
     1
  0
ATTRIB
  5
4A3
  8
0
 10
0.945493
 20
-0.7
 30
-2.5
 40
0.2
  1

  2
MZ
 70
     1
  0
SEQEND
  5
4A4
  8
NODES
  0
INSERT
  5
4A5
  8
NODES
 66
     1
  2
FE-NODE
 10
0.0
 20
0.0
 30
0.0
  0
ATTRIB
  5
4A6
  8
0
 10
0.0
 20
0.5
 30
0.0
 40
0.2
  1

  2
UX
 70
     1
  0
ATTRIB
  5
4A7
  8
0
 10
0.0
 20
0.3
 30
0.0
 40
0.2
  1

  2
UY
 70
     1
  0
ATTRIB
  5
4A8
  8
0
 10
0.0
 20
0.1
 30
0.0
 40
0.2
  1

  2
UZ
 70
     1
  0
ATTRIB
  5
4A9
  8
0
 10
0.0
 20
-0.3
 30
0.0
 40
0.2
  1

  2
ROTX
 70
     1
  0
ATTRIB
  5
4AA
  8
0
 10
0.0
 20
-0.5
 30
0.0
 40
0.2
  1

  2
ROTY
 70
     1
  0
ATTRIB
  5
4AB
  8
0
 10
0.0
 20
-0.7
 30
0.0
 40
0.2
  1

  2
ROTZ
 70
     1
  0
ATTRIB
  5
4AC
  8
0
 10
0.0
 20
-1.043787
 30
0.0
 40
0.2
  1

  2
ID
 70
     1
  0
ATTRIB
  5
4AD
  8
0
 10
0.945493
 20
0.5
 30
0.0
 40
0.2
  1
-1000
  2
FX
 70
     1
  0
ATTRIB
  5
4AE
  8
0
 10
0.945493
 20
0.3
 30
0.0
 40
0.2
  1

  2
FY
 70
     1
  0
ATTRIB
  5
4AF
  8
0
 10
0.945493
 20
0.1
 30
0.0
 40
0.2
  1

  2
FZ
 70
     1
  0
ATTRIB
  5
4B0
  8
0
 10
0.945493
 20
-0.3
 30
0.0
 40
0.2
  1

  2
MX
 70
     1
  0
ATTRIB
  5
4B1
  8
0
 10
0.945493
 20
-0.5
 30
0.0
 40
0.2
  1

  2
MY
 70
     1
  0
ATTRIB
  5
4B2
  8
0
 10
0.945493
 20
-0.7
 30
0.0
 40
0.2
  1

  2
MZ
 70
     1
  0
SEQEND
  5
4B3
  8
NODES
  0
INSERT
  5
4B4
  8
NODES
 66
     1
  2
FE-NODE
 10
0.0
 20
1.25
 30
0.0
  0
ATTRIB
  5
4B5
  8
0
 10
0.0
 20
1.75
 30
0.0
 40
0.2
  1

  2
UX
 70
     1
  0
ATTRIB
  5
4B6
  8
0
 10
0.0
 20
1.55
 30
0.0
 40
0.2
  1

  2
UY
 70
     1
  0
ATTRIB
  5
4B7
  8
0
 10
0.0
 20
1.35
 30
0.0
 40
0.2
  1

  2
UZ
 70
     1
  0
ATTRIB
  5
4B8
  8
0
 10
0.0
 20
0.95
 30
0.0
 40
0.2
  1

  2
ROTX
 70
     1
  0
ATTRIB
  5
4B9
  8
0
 10
0.0
 20
0.75
 30
0.0
 40
0.2
  1

  2
ROTY
 70
     1
  0
ATTRIB
  5
4BA
  8
0
 10
0.0
 20
0.55
 30
0.0
 40
0.2
  1

  2
ROTZ
 70
     1
  0
ATTRIB
  5
4BB
  8
0
 10
0.0
 20
0.206213
 30
0.0
 40
0.2
  1

  2
ID
 70
     1
  0
ATTRIB
  5
4BC
  8
0
 10
0.945493
 20
1.75
 30
0.0
 40
0.2
  1
-1000
  2
FX
 70
     1
  0
ATTRIB
  5
4BD
  8
0
 10
0.945493
 20
1.55
 30
0.0
 40
0.2
  1

  2
FY
 70
     1
  0
ATTRIB
  5
4BE
  8
0
 10
0.945493
 20
1.35
 30
0.0
 40
0.2
  1

  2
FZ
 70
     1
  0
ATTRIB
  5
4BF
  8
0
 10
0.945493
 20
0.95
 30
0.0
 40
0.2
  1

  2
MX
 70
     1
  0
ATTRIB
  5
4C0
  8
0
 10
0.945493
 20
0.75
 30
0.0
 40
0.2
  1

  2
MY
 70
     1
  0
ATTRIB
  5
4C1
  8
0
 10
0.945493
 20
0.55
 30
0.0
 40
0.2
  1

  2
MZ
 70
     1
  0
SEQEND
  5
4C2
  8
NODES
  0
INSERT
  5
4C3
  8
NODES
 66
     1
  2
FE-NODE
 10
0.0
 20
2.5
 30
0.0
  0
ATTRIB
  5
4C4
  8
0
 10
0.0
 20
3.0
 30
0.0
 40
0.2
  1

  2
UX
 70
     1
  0
ATTRIB
  5
4C5
  8
0
 10
0.0
 20
2.8
 30
0.0
 40
0.2
  1

  2
UY
 70
     1
  0
ATTRIB
  5
4C6
  8
0
 10
0.0
 20
2.6
 30
0.0
 40
0.2
  1

  2
UZ
 70
     1
  0
ATTRIB
  5
4C7
  8
0
 10
0.0
 20
2.2
 30
0.0
 40
0.2
  1

  2
ROTX
 70
     1
  0
ATTRIB
  5
4C8
  8
0
 10
0.0
 20
2.0
 30
0.0
 40
0.2
  1

  2
ROTY
 70
     1
  0
ATTRIB
  5
4C9
  8
0
 10
0.0
 20
1.8
 30
0.0
 40
0.2
  1

  2
ROTZ
 70
     1
  0
ATTRIB
  5
4CA
  8
0
 10
0.0
 20
1.456213
 30
0.0
 40
0.2
  1

  2
ID
 70
     1
  0
ATTRIB
  5
4CB
  8
0
 10
0.945493
 20
3.0
 30
0.0
 40
0.2
  1
-1000
  2
FX
 70
     1
  0
ATTRIB
  5
4CC
  8
0
 10
0.945493
 20
2.8
 30
0.0
 40
0.2
  1

  2
FY
 70
     1
  0
ATTRIB
  5
4CD
  8
0
 10
0.945493
 20
2.6
 30
0.0
 40
0.2
  1

  2
FZ
 70
     1
  0
ATTRIB
  5
4CE
  8
0
 10
0.945493
 20
2.2
 30
0.0
 40
0.2
  1

  2
MX
 70
     1
  0
ATTRIB
  5
4CF
  8
0
 10
0.945493
 20
2.0
 30
0.0
 40
0.2
  1

  2
MY
 70
     1
  0
ATTRIB
  5
4D0
  8
0
 10
0.945493
 20
1.8
 30
0.0
 40
0.2
  1

  2
MZ
 70
     1
  0
SEQEND
  5
4D1
  8
NODES
  0
INSERT
  5
4D2
  8
NODES
 66
     1
  2
FE-NODE
 10
0.0
 20
3.75
 30
0.0
  0
ATTRIB
  5
4D3
  8
0
 10
0.0
 20
4.25
 30
0.0
 40
0.2
  1

  2
UX
 70
     1
  0
ATTRIB
  5
4D4
  8
0
 10
0.0
 20
4.05
 30
0.0
 40
0.2
  1

  2
UY
 70
     1
  0
ATTRIB
  5
4D5
  8
0
 10
0.0
 20
3.85
 30
0.0
 40
0.2
  1

  2
UZ
 70
     1
  0
ATTRIB
  5
4D6
  8
0
 10
0.0
 20
3.45
 30
0.0
 40
0.2
  1

  2
ROTX
 70
     1
  0
ATTRIB
  5
4D7
  8
0
 10
0.0
 20
3.25
 30
0.0
 40
0.2
  1

  2
ROTY
 70
     1
  0
ATTRIB
  5
4D8
  8
0
 10
0.0
 20
3.05
 30
0.0
 40
0.2
  1

  2
ROTZ
 70
     1
  0
ATTRIB
  5
4D9
  8
0
 10
0.0
 20
2.706213
 30
0.0
 40
0.2
  1

  2
ID
 70
     1
  0
ATTRIB
  5
4DA
  8
0
 10
0.945493
 20
4.25
 30
0.0
 40
0.2
  1
-1000
  2
FX
 70
     1
  0
ATTRIB
  5
4DB
  8
0
 10
0.945493
 20
4.05
 30
0.0
 40
0.2
  1

  2
FY
 70
     1
  0
ATTRIB
  5
4DC
  8
0
 10
0.945493
 20
3.85
 30
0.0
 40
0.2
  1

  2
FZ
 70
     1
  0
ATTRIB
  5
4DD
  8
0
 10
0.945493
 20
3.45
 30
0.0
 40
0.2
  1

  2
MX
 70
     1
  0
ATTRIB
  5
4DE
  8
0
 10
0.945493
 20
3.25
 30
0.0
 40
0.2
  1

  2
MY
 70
     1
  0
ATTRIB
  5
4DF
  8
0
 10
0.945493
 20
3.05
 30
0.0
 40
0.2
  1

  2
MZ
 70
     1
  0
SEQEND
  5
4E0
  8
NODES
  0
INSERT
  5
4E1
  8
NODES
 66
     1
  2
FE-NODE
 10
0.0
 20
5.0
 30
0.0
  0
ATTRIB
  5
4E2
  8
0
 10
0.0
 20
5.5
 30
0.0
 40
0.2
  1

  2
UX
 70
     1
  0
ATTRIB
  5
4E3
  8
0
 10
0.0
 20
5.3
 30
0.0
 40
0.2
  1

  2
UY
 70
     1
  0
ATTRIB
  5
4E4
  8
0
 10
0.0
 20
5.1
 30
0.0
 40
0.2
  1

  2
UZ
 70
     1
  0
ATTRIB
  5
4E5
  8
0
 10
0.0
 20
4.7
 30
0.0
 40
0.2
  1

  2
ROTX
 70
     1
  0
ATTRIB
  5
4E6
  8
0
 10
0.0
 20
4.5
 30
0.0
 40
0.2
  1

  2
ROTY
 70
     1
  0
ATTRIB
  5
4E7
  8
0
 10
0.0
 20
4.3
 30
0.0
 40
0.2
  1

  2
ROTZ
 70
     1
  0
ATTRIB
  5
4E8
  8
0
 10
0.0
 20
3.956213
 30
0.0
 40
0.2
  1

  2
ID
 70
     1
  0
ATTRIB
  5
4E9
  8
0
 10
0.945493
 20
5.5
 30
0.0
 40
0.2
  1
-1000
  2
FX
 70
     1
  0
ATTRIB
  5
4EA
  8
0
 10
0.945493
 20
5.3
 30
0.0
 40
0.2
  1

  2
FY
 70
     1
  0
ATTRIB
  5
4EB
  8
0
 10
0.945493
 20
5.1
 30
0.0
 40
0.2
  1

  2
FZ
 70
     1
  0
ATTRIB
  5
4EC
  8
0
 10
0.945493
 20
4.7
 30
0.0
 40
0.2
  1

  2
MX
 70
     1
  0
ATTRIB
  5
4ED
  8
0
 10
0.945493
 20
4.5
 30
0.0
 40
0.2
  1

  2
MY
 70
     1
  0
ATTRIB
  5
4EE
  8
0
 10
0.945493
 20
4.3
 30
0.0
 40
0.2
  1

  2
MZ
 70
     1
  0
SEQEND
  5
4EF
  8
NODES
  0
INSERT
  5
4F0
  8
NODES
 66
     1
  2
FE-NODE
 10
0.0
 20
6.25
 30
0.0
  0
ATTRIB
  5
4F1
  8
0
 10
0.0
 20
6.75
 30
0.0
 40
0.2
  1

  2
UX
 70
     1
  0
ATTRIB
  5
4F2
  8
0
 10
0.0
 20
6.55
 30
0.0
 40
0.2
  1

  2
UY
 70
     1
  0
ATTRIB
  5
4F3
  8
0
 10
0.0
 20
6.35
 30
0.0
 40
0.2
  1

  2
UZ
 70
     1
  0
ATTRIB
  5
4F4
  8
0
 10
0.0
 20
5.95
 30
0.0
 40
0.2
  1

  2
ROTX
 70
     1
  0
ATTRIB
  5
4F5
  8
0
 10
0.0
 20
5.75
 30
0.0
 40
0.2
  1

  2
ROTY
 70
     1
  0
ATTRIB
  5
4F6
  8
0
 10
0.0
 20
5.55
 30
0.0
 40
0.2
  1

  2
ROTZ
 70
     1
  0
ATTRIB
  5
4F7
  8
0
 10
0.0
 20
5.206213
 30
0.0
 40
0.2
  1

  2
ID
 70
     1
  0
ATTRIB
  5
4F8
  8
0
 10
0.945493
 20
6.75
 30
0.0
 40
0.2
  1
-1000
  2
FX
 70
     1
  0
ATTRIB
  5
4F9
  8
0
 10
0.945493
 20
6.55
 30
0.0
 40
0.2
  1

  2
FY
 70
     1
  0
ATTRIB
  5
4FA
  8
0
 10
0.945493
 20
6.35
 30
0.0
 40
0.2
  1

  2
FZ
 70
     1
  0
ATTRIB
  5
4FB
  8
0
 10
0.945493
 20
5.95
 30
0.0
 40
0.2
  1

  2
MX
 70
     1
  0
ATTRIB
  5
4FC
  8
0
 10
0.945493
 20
5.75
 30
0.0
 40
0.2
  1

  2
MY
 70
     1
  0
ATTRIB
  5
4FD
  8
0
 10
0.945493
 20
5.55
 30
0.0
 40
0.2
  1

  2
MZ
 70
     1
  0
SEQEND
  5
4FE
  8
NODES
  0
INSERT
  5
4FF
  8
NODES
 66
     1
  2
FE-NODE
 10
0.0
 20
7.5
 30
0.0
  0
ATTRIB
  5
500
  8
0
 10
0.0
 20
8.0
 30
0.0
 40
0.2
  1

  2
UX
 70
     1
  0
ATTRIB
  5
501
  8
0
 10
0.0
 20
7.8
 30
0.0
 40
0.2
  1

  2
UY
 70
     1
  0
ATTRIB
  5
502
  8
0
 10
0.0
 20
7.6
 30
0.0
 40
0.2
  1

  2
UZ
 70
     1
  0
ATTRIB
  5
503
  8
0
 10
0.0
 20
7.2
 30
0.0
 40
0.2
  1

  2
ROTX
 70
     1
  0
ATTRIB
  5
504
  8
0
 10
0.0
 20
7.0
 30
0.0
 40
0.2
  1

  2
ROTY
 70
     1
  0
ATTRIB
  5
505
  8
0
 10
0.0
 20
6.8
 30
0.0
 40
0.2
  1

  2
ROTZ
 70
     1
  0
ATTRIB
  5
506
  8
0
 10
0.0
 20
6.456213
 30
0.0
 40
0.2
  1

  2
ID
 70
     1
  0
ATTRIB
  5
507
  8
0
 10
0.945493
 20
8.0
 30
0.0
 40
0.2
  1
-1000
  2
FX
 70
     1
  0
ATTRIB
  5
508
  8
0
 10
0.945493
 20
7.8
 30
0.0
 40
0.2
  1

  2
FY
 70
     1
  0
ATTRIB
  5
509
  8
0
 10
0.945493
 20
7.6
 30
0.0
 40
0.2
  1

  2
FZ
 70
     1
  0
ATTRIB
  5
50A
  8
0
 10
0.945493
 20
7.2
 30
0.0
 40
0.2
  1

  2
MX
 70
     1
  0
ATTRIB
  5
50B
  8
0
 10
0.945493
 20
7.0
 30
0.0
 40
0.2
  1

  2
MY
 70
     1
  0
ATTRIB
  5
50C
  8
0
 10
0.945493
 20
6.8
 30
0.0
 40
0.2
  1

  2
MZ
 70
     1
  0
SEQEND
  5
50D
  8
NODES
  0
INSERT
  5
50E
  8
NODES
 66
     1
  2
FE-NODE
 10
0.0
 20
8.75
 30
0.0
  0
ATTRIB
  5
50F
  8
0
 10
0.0
 20
9.25
 30
0.0
 40
0.2
  1

  2
UX
 70
     1
  0
ATTRIB
  5
510
  8
0
 10
0.0
 20
9.05
 30
0.0
 40
0.2
  1

  2
UY
 70
     1
  0
ATTRIB
  5
511
  8
0
 10
0.0
 20
8.85
 30
0.0
 40
0.2
  1

  2
UZ
 70
     1
  0
ATTRIB
  5
512
  8
0
 10
0.0
 20
8.45
 30
0.0
 40
0.2
  1

  2
ROTX
 70
     1
  0
ATTRIB
  5
513
  8
0
 10
0.0
 20
8.25
 30
0.0
 40
0.2
  1

  2
ROTY
 70
     1
  0
ATTRIB
  5
514
  8
0
 10
0.0
 20
8.05
 30
0.0
 40
0.2
  1

  2
ROTZ
 70
     1
  0
ATTRIB
  5
515
  8
0
 10
0.0
 20
7.706213
 30
0.0
 40
0.2
  1

  2
ID
 70
     1
  0
ATTRIB
  5
516
  8
0
 10
0.945493
 20
9.25
 30
0.0
 40
0.2
  1
-1000
  2
FX
 70
     1
  0
ATTRIB
  5
517
  8
0
 10
0.945493
 20
9.05
 30
0.0
 40
0.2
  1

  2
FY
 70
     1
  0
ATTRIB
  5
518
  8
0
 10
0.945493
 20
8.85
 30
0.0
 40
0.2
  1

  2
FZ
 70
     1
  0
ATTRIB
  5
519
  8
0
 10
0.945493
 20
8.45
 30
0.0
 40
0.2
  1

  2
MX
 70
     1
  0
ATTRIB
  5
51A
  8
0
 10
0.945493
 20
8.25
 30
0.0
 40
0.2
  1

  2
MY
 70
     1
  0
ATTRIB
  5
51B
  8
0
 10
0.945493
 20
8.05
 30
0.0
 40
0.2
  1

  2
MZ
 70
     1
  0
SEQEND
  5
51C
  8
NODES
  0
INSERT
  5
51D
  8
NODES
 66
     1
  2
FE-NODE
 10
0.0
 20
10.0
 30
0.0
  0
ATTRIB
  5
51E
  8
0
 10
0.0
 20
10.5
 30
0.0
 40
0.2
  1

  2
UX
 70
     1
  0
ATTRIB
  5
51F
  8
0
 10
0.0
 20
10.3
 30
0.0
 40
0.2
  1

  2
UY
 70
     1
  0
ATTRIB
  5
520
  8
0
 10
0.0
 20
10.1
 30
0.0
 40
0.2
  1

  2
UZ
 70
     1
  0
ATTRIB
  5
521
  8
0
 10
0.0
 20
9.7
 30
0.0
 40
0.2
  1

  2
ROTX
 70
     1
  0
ATTRIB
  5
522
  8
0
 10
0.0
 20
9.5
 30
0.0
 40
0.2
  1

  2
ROTY
 70
     1
  0
ATTRIB
  5
523
  8
0
 10
0.0
 20
9.3
 30
0.0
 40
0.2
  1

  2
ROTZ
 70
     1
  0
ATTRIB
  5
524
  8
0
 10
0.0
 20
8.956213
 30
0.0
 40
0.2
  1

  2
ID
 70
     1
  0
ATTRIB
  5
525
  8
0
 10
0.945493
 20
10.5
 30
0.0
 40
0.2
  1
-1000
  2
FX
 70
     1
  0
ATTRIB
  5
526
  8
0
 10
0.945493
 20
10.3
 30
0.0
 40
0.2
  1

  2
FY
 70
     1
  0
ATTRIB
  5
527
  8
0
 10
0.945493
 20
10.1
 30
0.0
 40
0.2
  1

  2
FZ
 70
     1
  0
ATTRIB
  5
528
  8
0
 10
0.945493
 20
9.7
 30
0.0
 40
0.2
  1

  2
MX
 70
     1
  0
ATTRIB
  5
529
  8
0
 10
0.945493
 20
9.5
 30
0.0
 40
0.2
  1

  2
MY
 70
     1
  0
ATTRIB
  5
52A
  8
0
 10
0.945493
 20
9.3
 30
0.0
 40
0.2
  1

  2
MZ
 70
     1
  0
SEQEND
  5
52B
  8
NODES
  0
INSERT
  5
52C
  8
NODES
 66
     1
  2
FE-NODE
 10
0.0
 20
10.0
 30
-2.5
  0
ATTRIB
  5
52D
  8
0
 10
0.0
 20
10.5
 30
-2.5
 40
0.2
  1

  2
UX
 70
     1
  0
ATTRIB
  5
52E
  8
0
 10
0.0
 20
10.3
 30
-2.5
 40
0.2
  1

  2
UY
 70
     1
  0
ATTRIB
  5
52F
  8
0
 10
0.0
 20
10.1
 30
-2.5
 40
0.2
  1

  2
UZ
 70
     1
  0
ATTRIB
  5
530
  8
0
 10
0.0
 20
9.7
 30
-2.5
 40
0.2
  1

  2
ROTX
 70
     1
  0
ATTRIB
  5
531
  8
0
 10
0.0
 20
9.5
 30
-2.5
 40
0.2
  1

  2
ROTY
 70
     1
  0
ATTRIB
  5
532
  8
0
 10
0.0
 20
9.3
 30
-2.5
 40
0.2
  1

  2
ROTZ
 70
     1
  0
ATTRIB
  5
533
  8
0
 10
0.0
 20
8.956213
 30
-2.5
 40
0.2
  1

  2
ID
 70
     1
  0
ATTRIB
  5
534
  8
0
 10
0.945493
 20
10.5
 30
-2.5
 40
0.2
  1
-1000
  2
FX
 70
     1
  0
ATTRIB
  5
535
  8
0
 10
0.945493
 20
10.3
 30
-2.5
 40
0.2
  1

  2
FY
 70
     1
  0
ATTRIB
  5
536
  8
0
 10
0.945493
 20
10.1
 30
-2.5
 40
0.2
  1

  2
FZ
 70
     1
  0
ATTRIB
  5
537
  8
0
 10
0.945493
 20
9.7
 30
-2.5
 40
0.2
  1

  2
MX
 70
     1
  0
ATTRIB
  5
538
  8
0
 10
0.945493
 20
9.5
 30
-2.5
 40
0.2
  1

  2
MY
 70
     1
  0
ATTRIB
  5
539
  8
0
 10
0.945493
 20
9.3
 30
-2.5
 40
0.2
  1

  2
MZ
 70
     1
  0
SEQEND
  5
53A
  8
NODES
  0
INSERT
  5
53B
  8
NODES
 66
     1
  2
FE-NODE
 10
0.0
 20
10.0
 30
-5.0
  0
ATTRIB
  5
53C
  8
0
 10
0.0
 20
10.5
 30
-5.0
 40
0.2
  1

  2
UX
 70
     1
  0
ATTRIB
  5
53D
  8
0
 10
0.0
 20
10.3
 30
-5.0
 40
0.2
  1

  2
UY
 70
     1
  0
ATTRIB
  5
53E
  8
0
 10
0.0
 20
10.1
 30
-5.0
 40
0.2
  1

  2
UZ
 70
     1
  0
ATTRIB
  5
53F
  8
0
 10
0.0
 20
9.7
 30
-5.0
 40
0.2
  1

  2
ROTX
 70
     1
  0
ATTRIB
  5
540
  8
0
 10
0.0
 20
9.5
 30
-5.0
 40
0.2
  1

  2
ROTY
 70
     1
  0
ATTRIB
  5
541
  8
0
 10
0.0
 20
9.3
 30
-5.0
 40
0.2
  1

  2
ROTZ
 70
     1
  0
ATTRIB
  5
542
  8
0
 10
0.0
 20
8.956213
 30
-5.0
 40
0.2
  1

  2
ID
 70
     1
  0
ATTRIB
  5
543
  8
0
 10
0.945493
 20
10.5
 30
-5.0
 40
0.2
  1
-1000
  2
FX
 70
     1
  0
ATTRIB
  5
544
  8
0
 10
0.945493
 20
10.3
 30
-5.0
 40
0.2
  1

  2
FY
 70
     1
  0
ATTRIB
  5
545
  8
0
 10
0.945493
 20
10.1
 30
-5.0
 40
0.2
  1

  2
FZ
 70
     1
  0
ATTRIB
  5
546
  8
0
 10
0.945493
 20
9.7
 30
-5.0
 40
0.2
  1

  2
MX
 70
     1
  0
ATTRIB
  5
547
  8
0
 10
0.945493
 20
9.5
 30
-5.0
 40
0.2
  1

  2
MY
 70
     1
  0
ATTRIB
  5
548
  8
0
 10
0.945493
 20
9.3
 30
-5.0
 40
0.2
  1

  2
MZ
 70
     1
  0
SEQEND
  5
549
  8
NODES
  0
INSERT
  5
54A
  8
NODES
 66
     1
  2
FE-NODE
 10
0.0
 20
10.0
 30
-7.5
  0
ATTRIB
  5
54B
  8
0
 10
0.0
 20
10.5
 30
-7.5
 40
0.2
  1

  2
UX
 70
     1
  0
ATTRIB
  5
54C
  8
0
 10
0.0
 20
10.3
 30
-7.5
 40
0.2
  1

  2
UY
 70
     1
  0
ATTRIB
  5
54D
  8
0
 10
0.0
 20
10.1
 30
-7.5
 40
0.2
  1

  2
UZ
 70
     1
  0
ATTRIB
  5
54E
  8
0
 10
0.0
 20
9.7
 30
-7.5
 40
0.2
  1

  2
ROTX
 70
     1
  0
ATTRIB
  5
54F
  8
0
 10
0.0
 20
9.5
 30
-7.5
 40
0.2
  1

  2
ROTY
 70
     1
  0
ATTRIB
  5
550
  8
0
 10
0.0
 20
9.3
 30
-7.5
 40
0.2
  1

  2
ROTZ
 70
     1
  0
ATTRIB
  5
551
  8
0
 10
0.0
 20
8.956213
 30
-7.5
 40
0.2
  1

  2
ID
 70
     1
  0
ATTRIB
  5
552
  8
0
 10
0.945493
 20
10.5
 30
-7.5
 40
0.2
  1
-1000
  2
FX
 70
     1
  0
ATTRIB
  5
553
  8
0
 10
0.945493
 20
10.3
 30
-7.5
 40
0.2
  1

  2
FY
 70
     1
  0
ATTRIB
  5
554
  8
0
 10
0.945493
 20
10.1
 30
-7.5
 40
0.2
  1

  2
FZ
 70
     1
  0
ATTRIB
  5
555
  8
0
 10
0.945493
 20
9.7
 30
-7.5
 40
0.2
  1

  2
MX
 70
     1
  0
ATTRIB
  5
556
  8
0
 10
0.945493
 20
9.5
 30
-7.5
 40
0.2
  1

  2
MY
 70
     1
  0
ATTRIB
  5
557
  8
0
 10
0.945493
 20
9.3
 30
-7.5
 40
0.2
  1

  2
MZ
 70
     1
  0
SEQEND
  5
558
  8
NODES
  0
INSERT
  5
559
  8
NODES
 66
     1
  2
FE-NODE
 10
0.0
 20
10.0
 30
-10.0
  0
ATTRIB
  5
55A
  8
0
 10
0.0
 20
10.5
 30
-10.0
 40
0.2
  1

  2
UX
 70
     1
  0
ATTRIB
  5
55B
  8
0
 10
0.0
 20
10.3
 30
-10.0
 40
0.2
  1

  2
UY
 70
     1
  0
ATTRIB
  5
55C
  8
0
 10
0.0
 20
10.1
 30
-10.0
 40
0.2
  1

  2
UZ
 70
     1
  0
ATTRIB
  5
55D
  8
0
 10
0.0
 20
9.7
 30
-10.0
 40
0.2
  1

  2
ROTX
 70
     1
  0
ATTRIB
  5
55E
  8
0
 10
0.0
 20
9.5
 30
-10.0
 40
0.2
  1

  2
ROTY
 70
     1
  0
ATTRIB
  5
55F
  8
0
 10
0.0
 20
9.3
 30
-10.0
 40
0.2
  1

  2
ROTZ
 70
     1
  0
ATTRIB
  5
560
  8
0
 10
0.0
 20
8.956213
 30
-10.0
 40
0.2
  1

  2
ID
 70
     1
  0
ATTRIB
  5
561
  8
0
 10
0.945493
 20
10.5
 30
-10.0
 40
0.2
  1
-1000
  2
FX
 70
     1
  0
ATTRIB
  5
562
  8
0
 10
0.945493
 20
10.3
 30
-10.0
 40
0.2
  1

  2
FY
 70
     1
  0
ATTRIB
  5
563
  8
0
 10
0.945493
 20
10.1
 30
-10.0
 40
0.2
  1

  2
FZ
 70
     1
  0
ATTRIB
  5
564
  8
0
 10
0.945493
 20
9.7
 30
-10.0
 40
0.2
  1

  2
MX
 70
     1
  0
ATTRIB
  5
565
  8
0
 10
0.945493
 20
9.5
 30
-10.0
 40
0.2
  1

  2
MY
 70
     1
  0
ATTRIB
  5
566
  8
0
 10
0.945493
 20
9.3
 30
-10.0
 40
0.2
  1

  2
MZ
 70
     1
  0
SEQEND
  5
567
  8
NODES
  0
INSERT
  5
568
  8
NODES
 66
     1
  2
FE-NODE
 10
0.0
 20
10.0
 30
-12.5
  0
ATTRIB
  5
569
  8
0
 10
0.0
 20
10.5
 30
-12.5
 40
0.2
  1

  2
UX
 70
     1
  0
ATTRIB
  5
56A
  8
0
 10
0.0
 20
10.3
 30
-12.5
 40
0.2
  1

  2
UY
 70
     1
  0
ATTRIB
  5
56B
  8
0
 10
0.0
 20
10.1
 30
-12.5
 40
0.2
  1

  2
UZ
 70
     1
  0
ATTRIB
  5
56C
  8
0
 10
0.0
 20
9.7
 30
-12.5
 40
0.2
  1

  2
ROTX
 70
     1
  0
ATTRIB
  5
56D
  8
0
 10
0.0
 20
9.5
 30
-12.5
 40
0.2
  1

  2
ROTY
 70
     1
  0
ATTRIB
  5
56E
  8
0
 10
0.0
 20
9.3
 30
-12.5
 40
0.2
  1

  2
ROTZ
 70
     1
  0
ATTRIB
  5
56F
  8
0
 10
0.0
 20
8.956213
 30
-12.5
 40
0.2
  1

  2
ID
 70
     1
  0
ATTRIB
  5
570
  8
0
 10
0.945493
 20
10.5
 30
-12.5
 40
0.2
  1
-1000
  2
FX
 70
     1
  0
ATTRIB
  5
571
  8
0
 10
0.945493
 20
10.3
 30
-12.5
 40
0.2
  1

  2
FY
 70
     1
  0
ATTRIB
  5
572
  8
0
 10
0.945493
 20
10.1
 30
-12.5
 40
0.2
  1

  2
FZ
 70
     1
  0
ATTRIB
  5
573
  8
0
 10
0.945493
 20
9.7
 30
-12.5
 40
0.2
  1

  2
MX
 70
     1
  0
ATTRIB
  5
574
  8
0
 10
0.945493
 20
9.5
 30
-12.5
 40
0.2
  1

  2
MY
 70
     1
  0
ATTRIB
  5
575
  8
0
 10
0.945493
 20
9.3
 30
-12.5
 40
0.2
  1

  2
MZ
 70
     1
  0
SEQEND
  5
576
  8
NODES
  0
INSERT
  5
577
  8
NODES
 66
     1
  2
FE-NODE
 10
0.0
 20
10.0
 30
-15.0
  0
ATTRIB
  5
578
  8
0
 10
0.0
 20
10.5
 30
-15.0
 40
0.2
  1

  2
UX
 70
     1
  0
ATTRIB
  5
579
  8
0
 10
0.0
 20
10.3
 30
-15.0
 40
0.2
  1

  2
UY
 70
     1
  0
ATTRIB
  5
57A
  8
0
 10
0.0
 20
10.1
 30
-15.0
 40
0.2
  1

  2
UZ
 70
     1
  0
ATTRIB
  5
57B
  8
0
 10
0.0
 20
9.7
 30
-15.0
 40
0.2
  1

  2
ROTX
 70
     1
  0
ATTRIB
  5
57C
  8
0
 10
0.0
 20
9.5
 30
-15.0
 40
0.2
  1

  2
ROTY
 70
     1
  0
ATTRIB
  5
57D
  8
0
 10
0.0
 20
9.3
 30
-15.0
 40
0.2
  1

  2
ROTZ
 70
     1
  0
ATTRIB
  5
57E
  8
0
 10
0.0
 20
8.956213
 30
-15.0
 40
0.2
  1

  2
ID
 70
     1
  0
ATTRIB
  5
57F
  8
0
 10
0.945493
 20
10.5
 30
-15.0
 40
0.2
  1
-1000
  2
FX
 70
     1
  0
ATTRIB
  5
580
  8
0
 10
0.945493
 20
10.3
 30
-15.0
 40
0.2
  1

  2
FY
 70
     1
  0
ATTRIB
  5
581
  8
0
 10
0.945493
 20
10.1
 30
-15.0
 40
0.2
  1

  2
FZ
 70
     1
  0
ATTRIB
  5
582
  8
0
 10
0.945493
 20
9.7
 30
-15.0
 40
0.2
  1

  2
MX
 70
     1
  0
ATTRIB
  5
583
  8
0
 10
0.945493
 20
9.5
 30
-15.0
 40
0.2
  1

  2
MY
 70
     1
  0
ATTRIB
  5
584
  8
0
 10
0.945493
 20
9.3
 30
-15.0
 40
0.2
  1

  2
MZ
 70
     1
  0
SEQEND
  5
585
  8
NODES
  0
INSERT
  5
586
  8
NODES
 66
     1
  2
FE-NODE
 10
0.0
 20
10.0
 30
-17.5
  0
ATTRIB
  5
587
  8
0
 10
0.0
 20
10.5
 30
-17.5
 40
0.2
  1

  2
UX
 70
     1
  0
ATTRIB
  5
588
  8
0
 10
0.0
 20
10.3
 30
-17.5
 40
0.2
  1

  2
UY
 70
     1
  0
ATTRIB
  5
589
  8
0
 10
0.0
 20
10.1
 30
-17.5
 40
0.2
  1

  2
UZ
 70
     1
  0
ATTRIB
  5
58A
  8
0
 10
0.0
 20
9.7
 30
-17.5
 40
0.2
  1

  2
ROTX
 70
     1
  0
ATTRIB
  5
58B
  8
0
 10
0.0
 20
9.5
 30
-17.5
 40
0.2
  1

  2
ROTY
 70
     1
  0
ATTRIB
  5
58C
  8
0
 10
0.0
 20
9.3
 30
-17.5
 40
0.2
  1

  2
ROTZ
 70
     1
  0
ATTRIB
  5
58D
  8
0
 10
0.0
 20
8.956213
 30
-17.5
 40
0.2
  1

  2
ID
 70
     1
  0
ATTRIB
  5
58E
  8
0
 10
0.945493
 20
10.5
 30
-17.5
 40
0.2
  1
-1000
  2
FX
 70
     1
  0
ATTRIB
  5
58F
  8
0
 10
0.945493
 20
10.3
 30
-17.5
 40
0.2
  1

  2
FY
 70
     1
  0
ATTRIB
  5
590
  8
0
 10
0.945493
 20
10.1
 30
-17.5
 40
0.2
  1

  2
FZ
 70
     1
  0
ATTRIB
  5
591
  8
0
 10
0.945493
 20
9.7
 30
-17.5
 40
0.2
  1

  2
MX
 70
     1
  0
ATTRIB
  5
592
  8
0
 10
0.945493
 20
9.5
 30
-17.5
 40
0.2
  1

  2
MY
 70
     1
  0
ATTRIB
  5
593
  8
0
 10
0.945493
 20
9.3
 30
-17.5
 40
0.2
  1

  2
MZ
 70
     1
  0
SEQEND
  5
594
  8
NODES
  0
ENDSEC
  0
EOF
